<svg width="80" height="78" viewBox="0 0 80 78" fill="none" xmlns="http://www.w3.org/2000/svg">
<path opacity="0.7" d="M57.9279 18.1529C62.2991 22.3258 66.2665 28.3797 65.6334 33.8091C64.676 42.0124 71.02 46.2045 64.1954 58.3556C63.2088 60.1353 61.9906 61.7837 60.5626 63.2711C59.8609 63.9969 59.101 64.6742 58.2876 65.2988C51.1131 70.8126 41.4046 70.7197 33.0644 66.9675C22.0948 62.031 20.0647 53.2474 19.0751 47.7032C18.0856 42.159 8.8768 31.4861 15.4695 19.4826C16.4678 17.6444 17.7197 15.9485 19.1997 14.4291C22.595 10.9731 27.6556 8.26078 33.2161 7.98507C33.6348 7.96525 34.0554 7.95666 34.4779 7.9593C42.7631 8.01646 51.9661 12.4647 57.9279 18.1529Z" fill="#FEBAB6"/>
<path d="M11.276 34.5208C12.2985 31.1919 14.2174 28.2086 16.8225 25.8977C15.4051 24.7647 16.8225 17.7217 16.8225 17.7217C16.8225 17.7217 22.4891 20.2311 23.502 21.4052C23.502 21.4052 27.8729 16.102 40.5445 16.102C53.2161 16.102 65.1561 25.8992 65.1561 38.9738C65.1561 52.0484 55.6829 56.2186 55.6829 56.2186C55.1894 58.5255 54.4289 60.7671 53.4168 62.8981H48.3965C47.5957 61.6659 46.8792 60.3809 46.2522 59.0519C46.2522 59.0519 42.2448 59.5385 39.3704 59.5385C37.3449 59.4973 35.3268 59.2805 33.3388 58.8907C33.1672 60.3145 32.6832 61.6829 31.9214 62.8981H26.457C24.7567 61.4411 23.9066 56.8664 23.9066 56.8664C23.9066 56.8664 10.143 50.6325 7.22759 46.9065C5.64744 43.9515 5.84971 37.3937 5.84971 37.3937C7.38016 35.9842 9.24882 34.9941 11.2745 34.5193L11.276 34.5208Z" stroke="#636262" stroke-width="3" stroke-linecap="round" stroke-linejoin="round"/>
<path d="M28.7231 23.9556C31.9664 21.6237 35.9077 20.4672 39.8967 20.6767C44.2551 20.605 48.5182 21.9552 52.0406 24.5229" stroke="#636262" stroke-width="3" stroke-linecap="round" stroke-linejoin="round"/>
</svg>
