<svg width="63" height="65" viewBox="0 0 63 65" fill="none" xmlns="http://www.w3.org/2000/svg">
<path d="M61.1555 35.5994C59.1583 41.0875 55.0807 47.0282 49.3411 48.788C40.6686 51.4462 39.6325 58.6219 24.0998 57.9567C21.8313 57.8703 19.5789 57.5311 17.383 56.9452C16.3091 56.6551 15.2547 56.2949 14.2264 55.8669C5.15178 52.0937 0.420125 43.7893 0.0247037 35.1004C-0.494035 23.6716 7.27365 18.2244 12.3216 15.0346C17.3696 11.8448 23.4578 -0.513713 38.7277 0.0165597C41.0605 0.088198 43.3772 0.435876 45.6309 1.05257C50.7713 2.47981 55.9963 5.63963 59.035 10.2567C59.2628 10.6047 59.4804 10.9592 59.6877 11.32C63.7478 18.3975 63.8765 28.1156 61.1555 35.5994Z" fill="#BDD0FB" fill-opacity="0.55"/>
<path d="M41.9172 34.9671C42.2599 34.6245 42.4524 34.1597 42.4524 33.675C42.4524 33.1904 42.2599 32.7256 41.9172 32.3829C41.5745 32.0403 41.1097 31.8477 40.6251 31.8477C40.1405 31.8477 39.6757 32.0403 39.333 32.3829L27.8501 43.8695L23.6672 39.6829C23.4975 39.5133 23.2961 39.3787 23.0744 39.2868C22.8527 39.195 22.6151 39.1477 22.3751 39.1477C22.1351 39.1477 21.8975 39.195 21.6758 39.2868C21.4541 39.3787 21.2527 39.5133 21.083 39.6829C20.9133 39.8526 20.7787 40.0541 20.6869 40.2758C20.5951 40.4975 20.5478 40.7351 20.5478 40.975C20.5478 41.215 20.5951 41.4526 20.6869 41.6743C20.7787 41.896 20.9133 42.0975 21.083 42.2672L26.558 47.7421C26.7275 47.9121 26.9289 48.0469 27.1506 48.139C27.3724 48.231 27.61 48.2783 27.8501 48.2783C28.0901 48.2783 28.3278 48.231 28.5496 48.139C28.7713 48.0469 28.9727 47.9121 29.1422 47.7421L41.9172 34.9671ZM26.0251 6.30005C24.8924 6.29946 23.7874 6.65019 22.8624 7.3039C21.9374 7.95762 21.2379 8.88214 20.8603 9.95005H15.0751C13.623 9.95005 12.2304 10.5269 11.2037 11.5536C10.1769 12.5804 9.6001 13.973 9.6001 15.425V59.2251C9.6001 60.6771 10.1769 62.0697 11.2037 63.0965C12.2304 64.1232 13.623 64.7001 15.0751 64.7001H47.9251C49.3772 64.7001 50.7697 64.1232 51.7965 63.0965C52.8233 62.0697 53.4001 60.6771 53.4001 59.2251V15.425C53.4001 13.973 52.8233 12.5804 51.7965 11.5536C50.7697 10.5269 49.3772 9.95005 47.9251 9.95005H42.1398C41.7623 8.88214 41.0628 7.95762 40.1378 7.3039C39.2128 6.65019 38.1078 6.29946 36.9751 6.30005H26.0251ZM24.2001 11.775C24.2001 11.291 24.3924 10.8268 24.7346 10.4846C25.0769 10.1423 25.5411 9.95005 26.0251 9.95005H36.9751C37.4591 9.95005 37.9233 10.1423 38.2656 10.4846C38.6078 10.8268 38.8001 11.291 38.8001 11.775C38.8001 12.2591 38.6078 12.7233 38.2656 13.0655C37.9233 13.4078 37.4591 13.6 36.9751 13.6H26.0251C25.5411 13.6 25.0769 13.4078 24.7346 13.0655C24.3924 12.7233 24.2001 12.2591 24.2001 11.775ZM15.0751 13.6H20.8603C21.2379 14.668 21.9374 15.5925 22.8624 16.2462C23.7874 16.8999 24.8924 17.2506 26.0251 17.25H36.9751C38.1078 17.2506 39.2128 16.8999 40.1378 16.2462C41.0628 15.5925 41.7623 14.668 42.1398 13.6H47.9251C48.4091 13.6 48.8733 13.7923 49.2156 14.1346C49.5578 14.4768 49.7501 14.941 49.7501 15.425V59.2251C49.7501 59.7091 49.5578 60.1733 49.2156 60.5155C48.8733 60.8578 48.4091 61.05 47.9251 61.05H15.0751C14.5911 61.05 14.1269 60.8578 13.7846 60.5155C13.4424 60.1733 13.2501 59.7091 13.2501 59.2251V15.425C13.2501 14.941 13.4424 14.4768 13.7846 14.1346C14.1269 13.7923 14.5911 13.6 15.0751 13.6Z" fill="#636262"/>
</svg>
