<svg width="75" height="77" viewBox="0 0 75 77" fill="none" xmlns="http://www.w3.org/2000/svg">
<path d="M52.5293 0C40.1677 0 30.1484 3.50843 30.1484 7.83738V14.7914C31.346 17.279 39.7988 20.4435 52.5293 20.4435C65.2584 20.4435 73.7116 17.2786 74.9081 14.7914V7.83738C74.9081 3.50843 64.8878 0 52.5293 0ZM6.55829 61.8123L6.2421 61.1576V60.381C4.89258 61.3897 4.11597 62.5109 4.11597 63.6979V70.6523C5.31348 73.1395 13.7663 76.3037 26.4968 76.3037C39.2259 76.3037 47.6794 73.1395 48.8759 70.6523V67.0428C44.3622 68.4434 38.4108 69.27 31.8104 69.27C19.0553 69.27 8.67023 66.2037 6.55829 61.8123Z" fill="#757575"/>
<path d="M9.43046 58.4039V60.4303C10.6273 62.9183 19.0801 66.0825 31.8109 66.0825C44.54 66.0825 52.9932 62.9183 54.1904 60.4303V53.4767C54.1904 52.9797 54.0441 52.4963 53.7911 52.0258V53.1118L53.4766 53.7675C51.363 58.1583 40.9803 61.2245 28.2241 61.2245C20.7415 61.2245 14.0898 60.1635 9.43046 58.4039ZM44.7593 41.5627V34.609C44.7593 30.2797 34.7387 26.7716 22.3798 26.7716C10.0182 26.7716 0 30.2797 0 34.609V41.5627C1.19616 44.0502 9.64935 47.2144 22.3798 47.2144C35.1089 47.2144 43.5621 44.0502 44.7593 41.5627Z" fill="#757575"/>
<path d="M47.9468 41.7282V42.2899L47.6316 42.9446C45.5187 47.3357 35.1359 50.4016 22.3798 50.4016C16.0409 50.4016 10.2878 49.6439 5.84399 48.3427V52.3842C7.04083 54.8718 15.4937 58.0363 28.2241 58.0363C40.9532 58.0363 49.4064 54.8718 50.6036 52.3842V45.4312C50.604 44.0898 49.6389 42.8301 47.9468 41.7282ZM30.1486 19.0994V24.0594C36.9097 24.89 43.0101 26.8469 45.997 30.0463C48.1688 30.2463 50.3488 30.3452 52.5298 30.3428C65.2589 30.3428 73.7121 27.178 74.9086 24.6907V19.0994C70.2398 22.0879 61.3485 23.631 52.5298 23.631C43.7087 23.631 34.8177 22.0879 30.1486 19.0994ZM47.812 33.38C47.8927 33.7773 47.9468 34.1857 47.9468 34.6086V38.0981C49.1973 38.7227 50.2803 39.4301 51.1752 40.2212C51.6251 40.2283 52.0673 40.2418 52.5298 40.2418C65.2589 40.2418 73.7121 37.077 74.9086 34.5897V28.9994C70.2398 31.9873 61.3485 33.5304 52.5298 33.5304C50.956 33.5297 49.3826 33.4796 47.812 33.38ZM53.7915 45.4312V47.4752C54.8562 48.2373 55.7146 49.0916 56.3274 50.0368C66.9178 49.4858 73.836 46.7185 74.9086 44.4894V38.8981C70.3992 41.7839 61.9538 43.3169 53.4371 43.4182C53.6601 44.0567 53.7915 44.7228 53.7915 45.4312ZM57.3776 53.4766V59.8767C67.3769 59.2041 73.8702 56.5439 74.9082 54.3884V48.7981C71.0934 51.238 64.4627 52.7139 57.3556 53.173C57.3631 53.2736 57.3776 53.3736 57.3776 53.4766ZM52.0636 65.846V70.5513C52.2193 70.554 52.372 70.5604 52.5294 70.5604C64.888 70.5604 74.9082 67.0516 74.9082 62.7237V58.6964C70.8755 61.2772 63.6894 62.7774 56.123 63.1392C55.1947 64.1394 53.8168 65.0501 52.0636 65.846Z" fill="#757575"/>
</svg>
