<svg width="33" height="33" viewBox="0 0 33 33" fill="none" xmlns="http://www.w3.org/2000/svg">
<path d="M16.8334 0.333252C8.00137 0.333252 0.833374 7.50125 0.833374 16.3333C0.833374 25.1653 8.00137 32.3333 16.8334 32.3333C25.6654 32.3333 32.8334 25.1653 32.8334 16.3333C32.8334 7.50125 25.6654 0.333252 16.8334 0.333252ZM24.2574 11.2133C24.0174 13.7413 22.9774 19.8853 22.4494 22.7173C22.2254 23.9173 21.7774 24.3173 21.3614 24.3653C20.4334 24.4453 19.7294 23.7573 18.8334 23.1653C17.4254 22.2373 16.6254 21.6613 15.2654 20.7653C13.6814 19.7253 14.7054 19.1493 15.6174 18.2213C15.8574 17.9813 19.9534 14.2533 20.0334 13.9173C20.0445 13.8664 20.043 13.8135 20.0291 13.7633C20.0151 13.7131 19.9891 13.6671 19.9534 13.6293C19.8574 13.5493 19.7294 13.5813 19.6174 13.5973C19.4734 13.6293 17.2334 15.1173 12.8654 18.0613C12.2254 18.4933 11.6494 18.7173 11.1374 18.7013C10.5614 18.6853 9.47337 18.3813 8.65737 18.1093C7.64937 17.7893 6.86537 17.6133 6.92937 17.0533C6.96137 16.7653 7.36137 16.4773 8.11337 16.1733C12.7854 14.1413 15.8894 12.7973 17.4414 12.1573C21.8894 10.3013 22.8014 9.98125 23.4094 9.98125C23.5374 9.98125 23.8414 10.0133 24.0334 10.1733C24.1934 10.3013 24.2414 10.4773 24.2574 10.6053C24.2414 10.7013 24.2734 10.9893 24.2574 11.2133Z" fill="#1AB6F9"/>
</svg>
