<svg width="183" height="332" fill="none" xmlns="http://www.w3.org/2000/svg"><path d="M144.916 8.421L15.248 77.49a16.159 16.159 0 00-5.154 4.316 15.906 15.906 0 00-2.921 6.014 15.927 15.927 0 00-.716 6.92 16.163 16.163 0 002.302 6.602l35.526 57.56 87.881 158.176c1.911 3.44 5.126 6.003 8.937 7.126a15.145 15.145 0 0011.385-1.141l126.879-67.582a16.169 16.169 0 007.324-9.336 16.12 16.12 0 00-1.063-11.806l-87.871-158.16-30.052-60.476a16.505 16.505 0 00-4.06-5.197 16.826 16.826 0 00-12.392-3.96 16.605 16.605 0 00-6.337 1.875z" stroke="#3535A2" stroke-linecap="round" stroke-linejoin="round"/><path d="M27.872 99.859l23.965 43.156L180.81 74.281l-23.964-43.156L27.872 99.86zm143.072-28.484L54.706 133.32l-16.973-30.564L153.972 40.81l16.972 30.564z" fill="#3535A2" stroke="#3535A2" stroke-linecap="round" stroke-linejoin="round"/><path d="M126.089 134.738l-56.37 30.046a4.836 4.836 0 00-1.965 6.638l5.702 10.269c1.323 2.383 4.347 3.274 6.755 1.991l56.371-30.046a4.836 4.836 0 001.964-6.638l-5.702-10.27c-1.323-2.383-4.347-3.274-6.755-1.99zm-46.898 25.404l10.279 18.553m2.862-25.572l10.279 18.553m2.863-25.573l10.279 18.553m2.871-25.577l10.279 18.553" stroke="#3535A2" stroke-linecap="round" stroke-linejoin="round"/><path d="M172.504 123.341l-16.226 8.643a3.825 3.825 0 00-1.556 5.252l4.434 7.98c1.047 1.885 3.442 2.59 5.349 1.575l16.226-8.643a3.824 3.824 0 001.555-5.252l-4.433-7.98a3.993 3.993 0 00-5.349-1.575zm-70.086 63.799l-16.22 8.639a3.824 3.824 0 00-1.556 5.251l5.89 10.6a3.992 3.992 0 005.347 1.575l16.222-8.64a3.823 3.823 0 001.555-5.25l-5.891-10.601c-1.047-1.884-3.441-2.589-5.347-1.574zm27.179-14.517l-16.221 8.639a3.824 3.824 0 00-1.555 5.25l5.891 10.601c1.047 1.885 3.441 2.59 5.346 1.575l16.222-8.64a3.824 3.824 0 001.555-5.25l-5.891-10.601c-1.047-1.884-3.441-2.589-5.347-1.574zm27.179-14.517l-16.221 8.639a3.824 3.824 0 00-1.555 5.25l5.89 10.601a3.992 3.992 0 005.347 1.575l16.221-8.64a3.824 3.824 0 001.555-5.25l-5.89-10.601c-1.047-1.885-3.441-2.589-5.347-1.574zm27.179-14.517l-16.221 8.639a3.824 3.824 0 00-1.555 5.25l5.89 10.601c1.047 1.885 3.441 2.59 5.347 1.575l16.221-8.64a3.823 3.823 0 001.555-5.25l-5.89-10.601c-1.047-1.885-3.441-2.589-5.347-1.574zm-68.615 66.874l-16.222 8.639a3.824 3.824 0 00-1.554 5.25l5.89 10.601c1.047 1.885 3.441 2.59 5.347 1.575l16.221-8.64a3.824 3.824 0 001.555-5.25l-5.89-10.601c-1.048-1.885-3.441-2.589-5.347-1.574zm27.179-14.518l-16.222 8.64a3.823 3.823 0 00-1.554 5.25l5.89 10.601c1.047 1.885 3.441 2.59 5.347 1.574l16.221-8.639a3.824 3.824 0 001.555-5.25l-5.89-10.601a3.992 3.992 0 00-5.347-1.575zm27.178-14.517l-16.221 8.64a3.823 3.823 0 00-1.555 5.25l5.891 10.601c1.047 1.884 3.441 2.589 5.347 1.574l16.221-8.639a3.824 3.824 0 001.555-5.25l-5.891-10.601c-1.047-1.885-3.441-2.59-5.347-1.575zm27.179-14.517l-16.221 8.64a3.823 3.823 0 00-1.555 5.25l5.89 10.601c1.048 1.885 3.442 2.589 5.347 1.574l16.222-8.639a3.823 3.823 0 001.554-5.25l-5.89-10.601c-1.047-1.885-3.441-2.59-5.347-1.575zm-68.61 66.883l-16.221 8.639a3.824 3.824 0 00-1.555 5.25l5.89 10.601c1.047 1.885 3.441 2.59 5.347 1.575l16.221-8.64a3.823 3.823 0 001.555-5.25l-5.89-10.601c-1.047-1.884-3.441-2.589-5.347-1.574zm27.179-14.517l-16.221 8.639a3.824 3.824 0 00-1.555 5.251l5.89 10.6c1.047 1.885 3.441 2.59 5.347 1.575l16.221-8.64a3.823 3.823 0 001.555-5.25l-5.89-10.601a3.992 3.992 0 00-5.347-1.574zm27.178-14.517l-16.221 8.639a3.824 3.824 0 00-1.555 5.25l5.891 10.601c1.047 1.885 3.441 2.59 5.347 1.575l16.221-8.64a3.823 3.823 0 001.555-5.25l-5.891-10.601c-1.047-1.884-3.441-2.589-5.347-1.574zm-41.431 52.365l-16.221 8.639a3.825 3.825 0 00-1.555 5.251l5.89 10.601c1.047 1.884 3.441 2.589 5.347 1.574l16.221-8.639a3.825 3.825 0 001.555-5.251l-5.89-10.601c-1.047-1.884-3.441-2.589-5.347-1.574zm27.179-14.517l-16.221 8.639a3.824 3.824 0 00-1.555 5.251l5.89 10.601c1.047 1.884 3.441 2.589 5.347 1.574l16.221-8.639a3.825 3.825 0 001.555-5.251l-5.89-10.601a3.992 3.992 0 00-5.347-1.574zm27.178-14.517l-16.221 8.639a3.825 3.825 0 00-1.555 5.251l5.891 10.6c1.047 1.885 3.441 2.59 5.347 1.575l16.221-8.64a3.823 3.823 0 001.555-5.25l-5.891-10.601c-1.047-1.884-3.441-2.589-5.347-1.574zm-41.431 52.365l-16.221 8.64a3.823 3.823 0 00-1.555 5.25l5.89 10.601c1.047 1.885 3.441 2.589 5.347 1.574l16.221-8.639a3.824 3.824 0 001.555-5.25l-5.89-10.601c-1.047-1.885-3.441-2.59-5.347-1.575zm27.179-14.517l-16.221 8.64a3.823 3.823 0 00-1.555 5.25l5.89 10.601c1.047 1.884 3.441 2.589 5.347 1.574l16.221-8.639a3.824 3.824 0 001.555-5.25l-5.89-10.601a3.992 3.992 0 00-5.347-1.575zm18.579-157.218l-16.226 8.642a3.825 3.825 0 00-1.555 5.253l4.433 7.98c1.048 1.885 3.442 2.59 5.349 1.575l16.226-8.643a3.826 3.826 0 001.556-5.253l-4.434-7.979c-1.047-1.886-3.442-2.591-5.349-1.575z" fill="#3535A2" stroke="#3535A2" stroke-linecap="round" stroke-linejoin="round"/><path d="M106.292 85.446c0-.483.138-.955.398-1.363a2.57 2.57 0 011.072-.943c1.852-.987 3.365-.057 4.488 1.965l1.541 2.774c1.205 2.17.957 4.149-1.236 5.317-2.193 1.169-4.007.287-5.212-1.882l-.528-.95 1.494-.796.586 1.054c.71 1.279 1.67 1.764 2.815 1.154 1.144-.61 1.25-1.662.54-2.941l-1.532-2.757c-.71-1.28-1.67-1.764-2.814-1.155a1.734 1.734 0 00-.903 1.025 1.73 1.73 0 00.131 1.357l.183.329-1.494.796-3.998-8.095 5.713-3.044.792 1.426-4.219 2.248 2.183 4.481zM118 90.075l-.594.316-1.089-1.961 1.52-.81 1.022 1.84.266 2.355-.655.35-.47-2.09zm3.195-15.709l.244.44c.802 1.444.872 2.773-.02 3.797 1.448-.166 2.521.707 3.309 2.124l.585 1.054c1.215 2.187.82 4.167-1.408 5.354-2.228 1.187-4.14.436-5.354-1.75l-.576-1.038c-.797-1.434-.952-2.752-.006-3.883-1.416.183-2.481-.594-3.283-2.037l-.244-.44c-1.215-2.187-.779-4.133 1.432-5.31 2.21-1.179 4.106-.497 5.321 1.69zm-5.19 2.765l.384.692c.768 1.382 1.785 1.624 2.912 1.024 1.128-.6 1.464-1.564.696-2.947l-.384-.691c-.806-1.452-1.853-1.768-2.981-1.167-1.127.6-1.405 1.69-.608 3.124l-.019-.035zm3.413 6.145l.662 1.193c.812 1.46 1.86 1.798 3.004 1.188 1.145-.61 1.364-1.623.605-3.11l-.663-1.194c-.763-1.374-1.749-1.722-2.937-1.089-1.189.633-1.415 1.672-.652 3.047l-.019-.035zm9.734-13.082l4.018 7.234c1.248 2.247 1.018 4.217-1.271 5.437-2.289 1.22-4.019.327-5.224-1.843l-.149-.267 1.494-.796.207.371c.705 1.27 1.673 1.73 2.826 1.115 1.154-.615 1.32-1.7.485-3.204l-1.766-3.18c.093.553 0 1.12-.266 1.614a2.551 2.551 0 01-1.205 1.118c-1.853.987-3.385.124-4.523-1.925l-1.205-2.169c-1.204-2.169-.916-4.137 1.294-5.314 2.211-1.178 4.08-.36 5.285 1.81zm-5.045 2.576l1.185 2.135c.706 1.27 1.697 1.75 2.842 1.14 1.144-.61 1.263-1.68.557-2.95l-1.186-2.135c-.72-1.296-1.657-1.76-2.827-1.137-1.171.624-1.291 1.651-.571 2.948zm13.093-6.852c2.376 4.278-1.627 8.404.17 11.68l.125.225 4.709-2.509.796 1.435-6.29 3.351-.677-1.218c-2.544-4.58 1.819-8.059-.398-12.051-.811-1.46-1.728-1.97-2.916-1.336-1.188.633-1.206 1.762-.524 2.99l.696 1.253-1.494.796-.639-1.15c-1.205-2.169-1.001-4.147 1.209-5.325s4.028-.31 5.233 1.86zm7.871 7.157l1.091 1.963-1.54.82-1.091-1.963 1.54-.82zm-.268-8.199c0-.485.138-.959.4-1.367a2.574 2.574 0 011.078-.944c1.844-.982 3.365-.057 4.489 1.966l1.54 2.774c1.205 2.169.958 4.148-1.235 5.317-2.193 1.168-4.007.287-5.212-1.882l-.528-.95 1.494-.797.585 1.055c.711 1.278 1.671 1.764 2.815 1.154 1.145-.61 1.259-1.668.549-2.947l-1.531-2.756c-.711-1.28-1.671-1.764-2.824-1.15a1.712 1.712 0 00-.771 2.382l.182.328-1.494.796-3.998-8.095 5.661-3.016.792 1.426-4.184 2.23 2.192 4.476zm11.487-9.211l.163.294-1.502.8-.202-.362c-.71-1.28-1.661-1.747-2.823-1.128-1.162.619-1.32 1.7-.475 3.221l1.766 3.18a2.56 2.56 0 01.272-1.618 2.6 2.6 0 011.203-1.128c1.844-.982 3.351-.082 4.489 1.966l1.19 2.143c1.205 2.17.914 4.172-1.279 5.34-2.193 1.169-4.095.334-5.3-1.835l-4.017-7.233c-1.248-2.247-.995-4.197 1.277-5.407 2.271-1.21 4.038-.393 5.238 1.767zm-1.993 7.95l1.181 2.126c.711 1.279 1.671 1.764 2.841 1.14 1.171-.624 1.321-1.7.61-2.979l-1.181-2.126c-.71-1.279-1.696-1.75-2.885-1.117-1.188.633-1.276 1.677-.566 2.956z" fill="#3535A2"/></svg>