<svg width="554" height="370" fill="none" xmlns="http://www.w3.org/2000/svg"><g clip-path="url(#clip0_101_994)"><path d="M364.545 34.202c-51.858 14.09-68.1 53.099-132.845 83.597-67.787 22.224-104.817 4.465-152.487 29.987-51.286 27.465-62.882 114.656-21.265 179.648 41.617 64.991 131.336 73.582 168.578 57.751 29.765-12.653 50.927-35.843 83.715-52.967 35.39-10.018 65.99-7.437 96.27-18.688 37.884-14.07 99.275-82.82 88.746-160.186-10.529-77.365-74.925-134.303-130.712-119.142z" fill="#FEBAB6"/><path opacity=".7" d="M364.545 34.202c-51.858 14.09-68.1 53.099-132.845 83.597-67.787 22.224-104.817 4.465-152.487 29.987-51.286 27.465-62.882 114.656-21.265 179.648 41.617 64.991 131.336 73.582 168.578 57.751 29.765-12.653 50.927-35.843 83.715-52.967 35.39-10.018 65.99-7.437 96.27-18.688 37.884-14.07 99.275-82.82 88.746-160.186-10.529-77.365-74.925-134.303-130.712-119.142z" fill="#fff"/><path d="M484.181 338.839l25.433.066m-477.8-1.243l443.333 1.155M374.504 204.98s8.236 13.195 11.686 25.952c2.445 9.073 2.556 73.823 2.556 73.823s.169-100.159 12.439-120.842" stroke="#3535A2" stroke-linecap="round" stroke-linejoin="round"/><path d="M407.744 137.64s-11.819 19.144-15.157 39.043c-3.339 19.898-6.338 125.896-6.338 125.896-.192-10.36.495-104.821-2.814-121.212a122.973 122.973 0 00-9.352-28.29" stroke="#3535A2" stroke-linecap="round" stroke-linejoin="round"/><path d="M376.661 158.878s9.942.467 14.581-7.015c4.639-7.481 1.596-14.622-2.77-15.148-4.365-.525-6.264 4.884-7.881 2.294-1.618-2.59 4.646-7.481-2.371-11.973-7.018-4.492-10.283 1.954-12.506-.348-2.223-2.301-.621-8.288-5.245-10.959-4.624-2.671-6.795.644-9.359.74-2.563.096-10.636-4.248-13.857-.829-3.221 3.419 4.484 11.707.864 11.951-3.619.244-5.097 7.319-2.149 11.899 2.947 4.581 12.409 6.387 10.563 8.777-1.847 2.39-10.888 2.22-7.21 7.585 3.679 5.365 16.192 5.698 17.994 6.327 1.803.629-5.761 2.027-4.483 7.03 1.277 5.002 11.67 5.624 18.355 2.405 6.685-3.219 5.474-12.736 5.474-12.736z" fill="#FEBAB6"/><path d="M347.971 125.156s21.119 13.831 28.69 33.722m-29.724-24.035l14.153 1.384-3.45-11.766" stroke="#3535A2" stroke-linecap="round" stroke-linejoin="round"/><path d="M358.327 151.101h14.16l1.035-12.802" stroke="#3535A2" stroke-linecap="round" stroke-linejoin="round"/><path d="M405.787 141.932s-8.074.378-11.819-5.69c-3.745-6.068-1.293-11.877 2.216-12.299 3.509-.422 5.075 3.966 6.389 1.857 1.315-2.109-3.767-6.068 1.928-9.716 5.695-3.648 8.347 1.584 10.157-.281 1.81-1.865.502-6.756 4.262-8.88 3.76-2.124 5.518.525 7.594.614 2.075.089 8.635-3.448 11.25-.666 2.614 2.782-3.642 9.502-.702 9.694 2.94.192 4.136 5.92 1.743 9.62-2.393 3.7-10.075 5.18-8.576 7.126 1.5 1.946 8.864 1.821 5.85 6.164-3.013 4.344-13.141 4.625-14.603 5.136-1.463.511 4.676 1.643 3.642 5.705-1.035 4.063-9.478 4.566-14.899 1.954-5.422-2.612-4.432-10.338-4.432-10.338z" fill="#FEBAB6"/><path d="M429.069 114.56s-17.137 11.225-23.283 27.38m24.125-19.522l-11.493 1.125 2.807-9.546" stroke="#3535A2" stroke-linecap="round" stroke-linejoin="round"/><path d="M420.663 135.62H409.17l-.842-10.39" stroke="#3535A2" stroke-linecap="round" stroke-linejoin="round"/><path d="M379.379 214.341s6.545.304 9.603-4.617 1.049-9.62-1.825-9.975c-2.873-.356-4.121 3.219-5.17 1.48-1.049-1.739 3.058-4.929-1.566-7.889s-6.774 1.288-8.236-.229c-1.463-1.517-.407-5.476-3.457-7.215-3.051-1.739-4.477.422-6.168.496-1.692.074-7.003-2.798-9.123-.541-2.12 2.257 2.955 7.704.569 7.867-2.386.162-3.353 4.817-1.418 7.836 1.935 3.019 8.177 4.211 6.958 5.78-1.219 1.568-7.172 1.48-4.742 4.995 2.43 3.515 10.659 3.751 11.818 4.166 1.16.414-3.796 1.332-2.954 4.632.842 3.301 7.682 3.7 12.084 1.584 4.403-2.117 3.627-8.37 3.627-8.37z" fill="#FEBAB6"/><path d="M360.469 192.134s13.909 9.109 18.895 22.2m-19.559-15.822l9.322.911-2.276-7.748" stroke="#3535A2" stroke-linecap="round" stroke-linejoin="round"/><path d="M367.309 209.221h9.322l.68-8.429" stroke="#3535A2" stroke-linecap="round" stroke-linejoin="round"/><path d="M386.936 260.391s-8.126.378-11.944-5.749c-3.819-6.128-1.301-11.974 2.275-12.403 3.575-.429 5.126 4.004 6.448 1.88 1.322-2.124-3.804-6.127 1.943-9.805s8.421 1.598 10.238-.289c1.817-1.887.509-6.808 4.306-8.969 3.797-2.16 5.562.533 7.66.622 2.098.089 8.709-3.478 11.346-.681 2.637 2.797-3.693 9.583-.739 9.783 2.955.2 4.167 5.994 1.759 9.738-2.409 3.745-10.165 5.24-8.65 7.193 1.514 1.954 8.915 1.835 5.909 6.209-3.006 4.373-13.296 4.662-14.729 5.18-1.433.518 4.713 1.65 3.693 5.75-1.019 4.099-9.558 4.602-15.031 1.968-5.474-2.634-4.484-10.427-4.484-10.427z" fill="#FEBAB6"/><path d="M410.425 232.774s-17.292 11.322-23.489 27.617m24.339-19.683l-11.59 1.132 2.822-9.628" stroke="#3535A2" stroke-linecap="round" stroke-linejoin="round"/><path d="M401.945 254.02h-11.597l-.849-10.478" stroke="#3535A2" stroke-linecap="round" stroke-linejoin="round"/><path d="M398.799 188.656s-9.869-1.332-13.097-9.517c-3.228-8.184 1.049-14.674 5.429-14.407 4.381.266 5.289 5.92 7.343 3.663 2.053-2.257-3.228-8.185 4.476-11.352 7.704-3.167 9.765 3.767 12.365 1.894 2.601-1.872 2.098-8.066 7.129-9.834 5.03-1.769 6.566 1.85 9.07 2.42 2.504.569 11.228-2.272 13.784 1.672 2.556 3.944-6.508 10.708-2.955 11.596 3.553.888 3.694 8.14 0 12.091-3.693 3.952-13.347 4.063-11.959 6.742 1.389 2.679 10.342 4.159 5.74 8.761-4.602 4.603-16.99 2.701-18.836 2.96-1.847.259 5.311 3.027 3.161 7.719-2.149 4.691-12.491 3.441-18.467-.918-5.975-4.359-3.183-13.49-3.183-13.49z" fill="#FEBAB6"/><path d="M433.043 160.617s-23.245 9.82-34.244 28.039m33.535-18.323l-14.175-1.176 5.496-10.96" stroke="#3535A2" stroke-linecap="round" stroke-linejoin="round"/><path d="M418.218 184.282l-13.924-2.531 1.264-12.779" stroke="#3535A2" stroke-linecap="round" stroke-linejoin="round"/><path d="M372.561 300.514c-.738 1.902-1.115 18.086-1.115 20.232 0 14.237 7.837 17.538 17.506 17.538s17.507-2.538 17.507-17.538c0-2.146-.407-18.33-1.108-20.232h-32.79zm-218.239-40.907l11.139 77.049a1.106 1.106 0 001.546.85 1.107 1.107 0 00.641-1.139l-9.167-76.027-4.159-.733z" fill="#3535A2" stroke="#3535A2" stroke-linecap="round" stroke-linejoin="round"/><path d="M126.792 250.513s11.974-1.332 22.795-.171c4.551.489 20.602 1.747 20.085 5.528-.517 3.782-3.937 5.321-4.624 5.321-.687 0-64.789 4.44-65.816 3.433-1.026-1.006-2.053-3.433-1.373-4.81.68-1.376 28.933-9.301 28.933-9.301z" fill="#3535A2" stroke="#3535A2" stroke-linecap="round" stroke-linejoin="round"/><path d="M80.773 196.626a1.714 1.714 0 00-1.532.544 1.723 1.723 0 00-.396 1.579c2.578 10.849 14.286 59.792 15.512 61.043 1.411 1.406 7.32 4.225 9.854 3.944 2.534-.281 14.914-4.225 23.926-11.84 9.011-7.614 14.913-15.791 14.352-20.868-.562-5.076-3.694-9.583-6.471-10.145-2.777-.563-14.079.281-23.925-2.82-9.847-3.1-18.016-8.177-22.515-14.378-3.36-4.625-6.256-6.608-8.805-7.059z" fill="#3535A2" stroke="#3535A2" stroke-linecap="round" stroke-linejoin="round"/><path d="M92.134 235.32l2.725 28.912-16.523 72.313a.956.956 0 00.915 1.191.942.942 0 00.916-.703l19.066-72.439 9.602-.362v-1.961l-9.78-.74-5.473-26.485a.74.74 0 00-.974-.552.744.744 0 00-.455.485.739.739 0 00-.02.341zm259.686 24.287l-11.117 77.049a1.102 1.102 0 01-1.916.578 1.104 1.104 0 01-.271-.867l9.145-76.027 4.159-.733z" fill="#3535A2" stroke="#3535A2" stroke-linecap="round" stroke-linejoin="round"/><path d="M379.35 250.513s-11.974-1.332-22.796-.171c-4.55.489-20.601 1.747-20.084 5.528.517 3.782 3.944 5.321 4.624 5.321.68 0 64.788 4.44 65.815 3.433 1.027-1.006 2.061-3.433 1.374-4.81-.687-1.376-28.933-9.301-28.933-9.301z" fill="#3535A2" stroke="#3535A2" stroke-linecap="round" stroke-linejoin="round"/><path d="M425.368 196.626a1.717 1.717 0 011.533.545 1.726 1.726 0 01.403 1.578c-2.586 10.849-14.293 59.792-15.512 61.043-1.411 1.406-7.32 4.225-9.854 3.944-2.534-.281-14.914-4.225-23.918-11.84-9.004-7.614-14.921-15.791-14.36-20.868.562-5.076 3.694-9.583 6.478-10.145 2.785-.563 14.072.281 23.918-2.82 9.847-3.1 18.017-8.177 22.522-14.378 3.347-4.625 6.249-6.608 8.79-7.059z" fill="#3535A2" stroke="#3535A2" stroke-linecap="round" stroke-linejoin="round"/><path d="M414.015 235.32l-2.733 28.912 16.524 72.313a.956.956 0 01-.916 1.191.943.943 0 01-.916-.703l-19.065-72.409-9.602-.363V262.3l9.78-.74 5.473-26.484a.74.74 0 011.251-.376.742.742 0 01.204.62z" fill="#3535A2" stroke="#3535A2" stroke-linecap="round" stroke-linejoin="round"/><path d="M147.652 338.506h-5.119l-2.563-119.614h10.245l-2.563 119.614z" fill="#fff" stroke="#3535A2" stroke-linecap="round" stroke-linejoin="round"/><path d="M140.132 226.396h9.921l.162-7.504H139.97l.162 7.504z" fill="#3535A2" stroke="#3535A2" stroke-linecap="round" stroke-linejoin="round"/><path d="M364.384 338.506h-5.119l-2.563-119.614h10.245l-2.563 119.614z" fill="#fff" stroke="#3535A2" stroke-linecap="round" stroke-linejoin="round"/><path d="M356.865 226.396h9.92l.162-7.504h-10.245l.163 7.504z" fill="#3535A2" stroke="#3535A2" stroke-linecap="round" stroke-linejoin="round"/><path d="M370.109 209.76H136.476v12.454h233.633V209.76z" fill="#fff" stroke="#3535A2" stroke-linecap="round" stroke-linejoin="round"/><path d="M370.109 209.76H136.476v6.231h233.633v-6.231z" fill="#3535A2" stroke="#3535A2" stroke-linecap="round" stroke-linejoin="round"/><path d="M375.198 209.76H131.387v4.736h243.811v-4.736z" fill="#FEBAB6" stroke="#3535A2" stroke-linecap="round" stroke-linejoin="round"/><path d="M266.865 158.36s2.911 2.649 3.694 2.916c.783.266 2.29.614 2.29.614l1.676.355-3.693-5.38-3.967 1.495z" fill="#fff" stroke="#3535A2" stroke-linecap="round" stroke-linejoin="round"/><path d="M251.169 138.491l34.296 35.994 10.851-4.788-22.862-32.375-22.285 1.169z" fill="#B8B8B8" stroke="#3535A2" stroke-linecap="round" stroke-linejoin="round"/><path d="M254.722 139.764l22.071 24.176 13.422-1.732-17.536-23.747-17.957 1.303zm8.177 13.667a9.108 9.108 0 01-.827-1.391c.069-.937.21-1.867.421-2.782.125-.378.509-.511.842.251.243.559.344 1.169.295 1.776.08.443.194.878.34 1.303l-.842 1.184-.229-.341z" fill="#fff" stroke="#3535A2" stroke-linecap="round" stroke-linejoin="round"/><path d="M264.539 155.681s-1.64-1.909-1.64-2.22c.272-.789.606-1.556.997-2.294.044-.133 2.216-.259 2.548-.392.333-.133 1.079-.215.902.348a1.855 1.855 0 01-1.035 1.213 5.77 5.77 0 00-1.078.6l-.133.606.606.866" fill="#fff"/><path d="M264.539 155.681s-1.64-1.909-1.64-2.22c.272-.789.606-1.556.997-2.294.044-.133 2.216-.259 2.548-.392.333-.133 1.079-.215.902.348a1.855 1.855 0 01-1.035 1.213 5.77 5.77 0 00-1.078.6l-.133.606.606.866" stroke="#3535A2" stroke-linecap="round" stroke-linejoin="round"/><path d="M265.78 157.146s-1.84-2.131-1.84-2.523c.307-.882.678-1.74 1.108-2.568.052-.148 2.467-.289 2.859-.437.391-.148 1.211-.244 1.019.385a2.074 2.074 0 01-1.167 1.362c-.427.182-.834.41-1.211.681l-.141.673.673.969" fill="#fff"/><path d="M265.78 157.146s-1.84-2.131-1.84-2.523c.307-.882.678-1.74 1.108-2.568.052-.148 2.467-.289 2.859-.437.391-.148 1.211-.244 1.019.385a2.074 2.074 0 01-1.167 1.362c-.427.182-.834.41-1.211.681l-.141.673.673.969" stroke="#3535A2" stroke-linecap="round" stroke-linejoin="round"/><path d="M267.619 159.04a24.044 24.044 0 01-2.216-2.575c.338-.829.726-1.637 1.16-2.42 0 0 4.505-.74 4.749-.68.244.059.384.34-.34 1.013a5.44 5.44 0 01-2.216.977c-.288.097-.339 1.355-.339 1.355l1.359 1.694" fill="#fff"/><path d="M267.619 159.04a24.044 24.044 0 01-2.216-2.575c.338-.829.726-1.637 1.16-2.42 0 0 4.505-.74 4.749-.68.244.059.384.34-.34 1.013a5.44 5.44 0 01-2.216.977c-.288.097-.339 1.355-.339 1.355l1.359 1.694" stroke="#3535A2" stroke-linecap="round" stroke-linejoin="round"/><path d="M251.671 158.589a20.576 20.576 0 00-3.656 1.754c-1.433.962-3.819 2.22-3.819 2.22l-2.453 8.399c1.906.099 3.746.724 5.319 1.806 2.386 1.754 7.475 1.273 8.753.481 1.278-.792 3.021-7.015 1.426-8.451-1.596-1.436-5.57-6.209-5.57-6.209z" fill="#fff" stroke="#3535A2" stroke-linecap="round" stroke-linejoin="round"/><path d="M267.272 165.286l-4.432-1.435s-3.346-2.22-4.144-2.546a17.665 17.665 0 00-3.657-.318s-7.637 10.996-7.955 11.796c-.318.799-.48 2.553.635 2.871 1.116.318 3.819-.637 3.819-.637s2.549 1.273 4.137.955c1.588-.318 6.367-3.7 6.367-3.7l5.57-.155-.34-6.831z" fill="#fff" stroke="#3535A2" stroke-linecap="round" stroke-linejoin="round"/><path d="M250.881 161.624s3.501 5.416 4.771 5.579c1.271.163 2.549-.636 1.589-2.39-.961-1.754-2.069-4.44-2.704-5.92-.635-1.48-3.184-1.428-4.299.962" fill="#fff"/><path d="M250.881 161.624s3.501 5.416 4.771 5.579c1.271.163 2.549-.636 1.589-2.39-.961-1.754-2.069-4.44-2.704-5.92-.635-1.48-3.184-1.428-4.299.962" stroke="#3535A2" stroke-linecap="round" stroke-linejoin="round"/><path d="M260.469 169.845a2.411 2.411 0 00-.2 2.79c.392.658.827 1.346.99 1.346a1.593 1.593 0 001.551-1.657c-.081-1.095-1.078-3.9-2.341-2.479z" fill="#fff" stroke="#3535A2" stroke-linecap="round" stroke-linejoin="round"/><path d="M258.6 171.88a2.429 2.429 0 00-.192 2.79c.384.658.827 1.339.99 1.339a1.59 1.59 0 001.12-.504 1.6 1.6 0 00.431-1.153c-.089-1.088-1.079-3.9-2.349-2.472zm-2.15 2.02a1.977 1.977 0 00-.155 2.22c.318.533.672 1.088.798 1.088a1.3 1.3 0 00.906-.408 1.296 1.296 0 00.35-.932c-.067-.828-.872-3.093-1.899-1.968zm-1.891.903a1.485 1.485 0 00-.118 1.724c.236.407.51.829.613.829a.98.98 0 00.892-.64.99.99 0 00.061-.381c-.052-.674-.665-2.435-1.448-1.532z" fill="#fff" stroke="#3535A2" stroke-linecap="round" stroke-linejoin="round"/><path d="M244.942 161.601l-2.024 10.893-3.863-.163 2.356-11.744 3.531 1.014z" fill="#FEBAB6" stroke="#3535A2" stroke-linecap="round" stroke-linejoin="round"/><path d="M242.283 159.1s-1.854 13.594-2.866 14.8c-1.012 1.206-14.626-2.523-15.298-2.694-.672-.17.842-19.528.842-19.528s15.778 6.719 17.322 7.422z" fill="#FEBAB6" stroke="#3535A2" stroke-linecap="round" stroke-linejoin="round"/><path d="M288.442 66.319s-2.475 5.75-2.475 8.029.2 5.653-.391 7.4c-.591 1.746-3.464 2.775-2.77 4.262.694 1.487 2.666 2.383 2.666 2.383s1.389 7.14 2.18 9.324c.79 2.183 2.083 2.479 3.264 2.28 1.182-.2 4.263-.993 4.263-.993l2.275 11.796 14.943-8.325-2.475-7.733s4.255-7.437-.295-17.849c-4.55-10.412-14.352-16.62-21.185-10.574z" fill="#fff" stroke="#3535A2" stroke-linecap="round" stroke-linejoin="round"/><path d="M287.459 77.744a1.74 1.74 0 011.007-.896 1.716 1.716 0 011.342.105" stroke="#3535A2" stroke-linecap="round" stroke-linejoin="round"/><path d="M289.033 82.384c.379 0 .687-.666.687-1.487 0-.822-.308-1.488-.687-1.488-.38 0-.687.666-.687 1.488 0 .821.307 1.487.687 1.487z" fill="#3535A2"/><path d="M287.947 90.014s3.863-.096 5.643-2.48" stroke="#3535A2" stroke-linecap="round" stroke-linejoin="round"/><path d="M312.633 99.419s-17.033 10.36-17.669 11.167c-.635.806-1.115 6.06-1.115 6.06l21.325-14.06-2.541-3.167z" fill="#fff" stroke="#3535A2" stroke-linecap="round" stroke-linejoin="round"/><path d="M286.603 240.959s-1.389 10.086-.865 12.861c.525 2.775 17.344 54.02 17.522 55.781.177 1.762 1.735 9.739 1.735 9.739s-3.471 6.083-4.166 8.517c-.694 2.435-3.819 5.04-5.03 5.92-1.211.881-5.208 2.435-5.725 3.13-.517.696 1.227.555 2.349.8 1.757.14 3.522.162 5.282.066 0 0 4.86.178 6.249-.348 1.389-.525 3.294-5.735 4.166-6.778a4.774 4.774 0 012.253-1.391l-1.559 8.88h2.423s1.736-7.126 2.43-9.561c.695-2.435 1.566-3.818.525-6.253a36.359 36.359 0 00-3.125-5.387s-.694-19.47-.524-20.335c.17-.866-1.212-17.908-1.729-22.422-.517-4.514-4.343-16.502-4.513-17.546-.17-1.043 1.042-12.861 1.042-12.861l-18.74-2.812z" fill="#B8B8B8" stroke="#3535A2" stroke-linecap="round" stroke-linejoin="round"/><path d="M299.396 243.527s1.973 14.652 3.095 20.809c1.123 6.156 5.629 46.842 5.341 50.527a44.873 44.873 0 01-.635 5.232s-4.942 10.36-6.072 11.566c-1.13 1.206-3.066 3.737-4.218 3.959-1.152.222-5.496.94-4.499 2.072.998 1.132 11.612 1.243 13.91.607 2.297-.637 5.259-5.558 6.212-6.157l.945-.607.739 6.556 2.504-.066s1.965-6.046 1.861-9.916c-.103-3.87-2.526-8.051-2.526-8.051s2.556-13.217 4.055-22.149c1.5-8.931 4.226-15.577 2.313-22.488a83.28 83.28 0 01-2.637-12.306c0-.578 1.137-20.72 1.137-20.72s-16.443 3.707-21.525 1.132z" fill="#fff" stroke="#3535A2" stroke-linecap="round" stroke-linejoin="round"/><path d="M318.594 328.109a16.627 16.627 0 00-1.337-5.565c-.251.089-.509.178-.79.289-2.992 1.191-7.535 7.052-11.272 10.182a10.104 10.104 0 01-7.653 2.435l-.096-.06a1.57 1.57 0 01-.539.23c-1.152.229-5.496.94-4.499 2.072.998 1.132 11.612 1.243 13.91.607 2.297-.637 5.259-5.558 6.212-6.157l.945-.607.739 6.556 2.504-.066s1.98-6.046 1.876-9.916zm-35.64-143.265l1.543 15.696-4.247 46.02s15.438 6.52 28.173 5.78c12.734-.74 19.678-4.44 19.678-4.44s-1.736-33.848-1.544-35.779c.192-1.932 2.512-9.472.584-17.975-1.928-8.502-3.864-11.795-3.864-11.795s-26.813 6.941-40.323 2.493z" fill="#3535A2" stroke="#3535A2" stroke-linecap="round" stroke-linejoin="round"/><path d="M314.672 100.854s-20.683 13.557-23.238 16.747c-2.556 3.189-8.436 18.655-8.436 21.363 0 2.709 3.501 30.77 3.501 30.77l-4.934 17.545s3.184 4.618 19.737 3.345c16.554-1.273 24.827-5.261 24.827-5.261s-7.609-17.701-7.764-20.092c-.155-2.39 5.252-25.16 5.57-30.132.317-4.973-2.349-18.5-3.974-22.644a127.469 127.469 0 00-5.289-11.641z" fill="#FEBAB6" stroke="#3535A2" stroke-linecap="round" stroke-linejoin="round"/><path d="M290.614 56.04s-6.301 2.427-6.139 4.7c.163 2.27 3.553 8.583 6.301 11.173s10.341 8.577 10.991 13.927c.65 5.35-.805 10.523-2.91 10.685l-2.098.163s.805 3.885 8.081 5.017c7.276 1.133 15.512.97 19.56-5.993 4.048-6.964 3.066-22.341-.975-29.467-4.04-7.127-14.035-11.5-19.56-12.307-5.525-.806-13.251 2.102-13.251 2.102z" fill="#3535A2" stroke="#3535A2" stroke-linecap="round" stroke-linejoin="round"/><path d="M289.35 126.273a40.955 40.955 0 013.228-4.047 28.337 28.337 0 016.84-4.944l1.751-2.871 1.596.637s4.432-2.872 7.8-5.425a23.336 23.336 0 004.772-4.617m-29.288 26.144s.886-1.398 2.105-3.174" stroke="#3535A2" stroke-linecap="round" stroke-linejoin="round"/><path d="M304.67 118.948s-4.934 6.053-5.407 8.14c-.472 2.087-3.796 26.558-3.796 26.558s-2.394 0-2.711.644c-.318.644-.791 4.943-.791 4.943s-1.278 1.429-1.913 1.591l-24.191 3.826 1.115 9.568s15.438 0 19.737-.481c4.299-.481 9.862 0 12.558-1.117 3.974-.792 7.32-4.44 7.32-4.44l2.149-5.18s8.355-21.46 8.672-25.73a16.674 16.674 0 00-.325-5.602" fill="#FEBAB6"/><path d="M304.67 118.948s-4.934 6.053-5.407 8.14c-.472 2.087-3.796 26.558-3.796 26.558s-2.394 0-2.711.644c-.318.644-.791 4.943-.791 4.943s-1.278 1.429-1.913 1.591l-24.191 3.826 1.115 9.568s15.438 0 19.737-.481c4.299-.481 9.862 0 12.558-1.117 3.974-.792 7.32-4.44 7.32-4.44l2.149-5.18s8.355-21.46 8.672-25.73a16.674 16.674 0 00-.325-5.602" stroke="#3535A2" stroke-linecap="round" stroke-linejoin="round"/><path d="M226.32 58.26s2.873 5.498 3.006 8.377c.133 2.879-1.048 6.15-.657 8.502.391 2.354 2.873 3.271 2.349 4.84-.525 1.569-2.873 2.094-2.873 2.094s-1.175 5.365-2.083 8.503c-.909 3.138-3.923 3.53-5.356 3.53a23.695 23.695 0 01-4.705-1.044l-1.566 9.058-17.625-12.817 1.433-7.718 2.874-5.365s-3.782-8.503-.392-14.519c3.391-6.016 9.271-7.977 15.8-8.761 6.53-.785 9.795 5.32 9.795 5.32z" fill="#fff" stroke="#3535A2" stroke-linecap="round" stroke-linejoin="round"/><path d="M203.732 77.36a2.562 2.562 0 001.698 1.968 4.984 4.984 0 003.132-.525s-1.307 5.365 1.042 8.369m9.78-6.801s1.041 3.922 4.432 3.922m-1.019-17.923s1.691-1.435 4.048.66m-1.072 10.722c1.959 0 3.546-2.223 3.546-4.966 0-2.742-1.587-4.965-3.546-4.965-1.958 0-3.545 2.223-3.545 4.965 0 2.743 1.587 4.966 3.545 4.966z" stroke="#3535A2" stroke-linecap="round" stroke-linejoin="round"/><path d="M226.453 74c0 .903-.355 1.635-.783 1.635-.428 0-.783-.74-.783-1.635s.347-1.635.783-1.635c.436 0 .783.695.783 1.635z" fill="#3535A2"/><path d="M222.014 73.371l-13.843-.326" stroke="#3535A2" stroke-linecap="round" stroke-linejoin="round"/><path d="M216.001 93.062a7.07 7.07 0 01-2.216-1.05c-.783-.652-1.958-1.436-1.958-1.436l3.265 7.844.909-5.358z" fill="#3535A2" stroke="#3535A2" stroke-miterlimit="10"/><path d="M226.32 58.26s-3.789-3.5-6.936-2.479-4.048 2.612-2.615 5.75c1.433 3.138.916 6.15-.517 7.067-1.433.918-6.005 1.702-6.53 2.62a8.943 8.943 0 01-1.566 1.827s-1.174-3.53-3.139-2.486c-1.965 1.043-2.475 5.106-1.3 6.8l-5.488 4.189s.265-6.275-1.825-11.248c-2.09-4.973-3.125-15.962.82-19.24 3.944-3.278 8.864-2.612 10.341-3.922 1.478-1.31 1.308-4.322 5.91-4.714 4.601-.392 6.529 3.012 8.487 3.796 1.957.785 2.74-1.96 6.005.26 3.265 2.22 5.91 5.364 4.831 8.635-1.078 3.271-6.478 3.145-6.478 3.145zm-36.431 222.2s-2.637 18.248-2.637 22.104c0 3.855-.399 15.895-.399 15.895s-1.418 4.255-1.418 5.269c0 1.014.199 3.448.199 3.448l.813 10.752h9.713s3.849-15.414 3.442-28.194c-.406-12.779-7.49-36.578-7.49-36.578l-2.223 7.304z" fill="#3535A2" stroke="#3535A2" stroke-linecap="round" stroke-linejoin="round"/><path d="M181.402 181.766s.495 23.717 1.994 29.215c1.5 5.498 4.964 12.233 4.964 13.979 0 1.746 2.216 22.2 3.738 27.72 1.521 5.521-4.24 22.474-2.741 32.213 1.5 9.738 5.732 34.217 5.732 34.217s-.997-.244-.997 3.249v7.244l.251 8.488h10.718s-.738-1.746 1.743-1.746c2.482 0 3.989 1.48 5.238 1.746 1.248.267 17.447 0 17.447 0s1.248-1.998.739-3.249c-.51-1.25-2.216-1.243-5.481-2.996-3.265-1.754-7.232-4.492-8.48-5.743-1.249-1.25-1.743-4.492-2.49-5.994-.746-1.502-1.994-3.241-1.994-4.24 0-.999 1.477-23.983 1.477-37.474 0-13.49 1.995-21.726 4.24-34.21 2.246-12.484 1.995-35.712 2.216-42.454.222-6.741.739-18.5.739-18.5l-39.053-1.465zm35.33-76.553s4.24 4.618 3.509 7.756a21.182 21.182 0 00-.554 5.727s4.432 7.4 4.794 20.876c.362 13.475 2.762 32.33 2.762 32.33l-4.24 9.235-5.17-10.16s1.477-24.568 1.662-30.665c.184-6.098.369-11.271-.37-14.963a55.826 55.826 0 01-.923-6.838l-2.955-10.715 1.485-2.583z" fill="#3535A2" stroke="#3535A2" stroke-linecap="round" stroke-linejoin="round"/><path d="M195.577 86.432l22.367 16.147-2.682 10.204-21.702-21.105 2.017-5.246z" fill="#F2F5FF" stroke="#3535A2" stroke-linecap="round" stroke-linejoin="round"/><path d="M193.531 91.678s-13.156 18.5-14.995 26.1c-1.84 7.6-.554 21.793-.37 23.68.185 1.887.924 41.196 1.847 42.861.923 1.665 6.264 2.22 6.264 2.22h34.304s2.577-1.295 2.393-5.358c-.185-4.062-.739-8.495-.739-8.495s.185-39.901-.185-45.258c-.369-5.358-6.817-17.02-6.817-17.02l-21.702-18.73z" fill="#F2F5FF" stroke="#3535A2" stroke-linecap="round" stroke-linejoin="round"/><path d="M189.453 231.546a1.476 1.476 0 01-1.477-1.48v-6.002a3.34 3.34 0 01.981-2.355 3.329 3.329 0 012.358-.967h4.661a1.478 1.478 0 011.477 1.48 1.48 1.48 0 01-1.477 1.48h-4.661a.362.362 0 00-.362.362v6.002a1.474 1.474 0 01-.441 1.054 1.483 1.483 0 01-1.059.426z" fill="#fff" stroke="#3535A2" stroke-linecap="round" stroke-linejoin="round"/><path d="M201.553 209.183s1.927 2.96 2.829 3.626c.901.666 1.248 1.932 2.267 4.44a14.749 14.749 0 011.131 4.078c.414.948.716 1.941.901 2.96 0 .791-3.62 2.382-3.62 2.382s.111 1.48-.569 1.813a4.356 4.356 0 01-2.954.341 17.372 17.372 0 01-2.719-2.154 13.091 13.091 0 01-3.279-.68c-1.478-.57-3.169-.911-4.078-2.161-.908-1.251-1.241-2.154-.901-5.099.34-2.945 2.032-9.753 2.032-9.753l8.96.207z" fill="#fff" stroke="#3535A2" stroke-linecap="round" stroke-linejoin="round"/><path d="M191.706 204.077s.229 5.447.79 5.787a12.898 12.898 0 005.91 1.132 16.514 16.514 0 004.757-1.361l-.118-5.328s-9.418.791-11.339-.23z" fill="#FEBAB6" stroke="#3535A2" stroke-linecap="round" stroke-linejoin="round"/><path d="M189.438 108.077s-5.554 11.337-5.761 16.495c-.207 5.158 2.268 34.632 2.268 46.79 0 12.158 2.674 30.717 3.693 32.56 1.019 1.843 3.501 2.264 5.348 2.264 1.846 0 7.822 1.029 9.056-1.65 1.233-2.679 0-30.096 0-34.632 0-4.536 6.995-30.717 4.321-46.176" fill="#F2F5FF"/><path d="M189.438 108.077s-5.554 11.337-5.761 16.495c-.207 5.158 2.268 34.632 2.268 46.79 0 12.158 2.674 30.717 3.693 32.56 1.019 1.843 3.501 2.264 5.348 2.264 1.846 0 7.822 1.029 9.056-1.65 1.233-2.679 0-30.096 0-34.632 0-4.536 6.995-30.717 4.321-46.176" stroke="#3535A2" stroke-linecap="round" stroke-linejoin="round"/><path d="M210.269 220.742h-4.654a1.484 1.484 0 00-.775.222v2.516c.232.147.5.227.775.23h4.654a.362.362 0 01.362.362v6.002a1.48 1.48 0 001.477 1.48 1.475 1.475 0 001.477-1.48v-6.002a3.333 3.333 0 00-.968-2.354 3.312 3.312 0 00-2.348-.976z" fill="#fff" stroke="#3535A2" stroke-linecap="round" stroke-linejoin="round"/><path d="M227.376 229.97H173.86a3.564 3.564 0 00-3.56 3.567v36.852a3.563 3.563 0 003.56 3.566h53.516a3.564 3.564 0 003.561-3.566v-36.852a3.564 3.564 0 00-3.561-3.567z" fill="#FEBAB6" stroke="#3535A2" stroke-linecap="round" stroke-linejoin="round"/><path d="M204.596 220.061l.125 4.507" stroke="#3535A2" stroke-linecap="round" stroke-linejoin="round"/></g><defs><clipPath id="clip0_101_994"><path fill="#fff" d="M0 0h554v370H0z"/></clipPath></defs></svg>