<svg width="840" height="574" fill="none" xmlns="http://www.w3.org/2000/svg"><path d="M852.244 213.151c-14.9 40.26-45.32 83.84-88.14 96.75-64.7 19.5-72.43 72.14-188.31 67.26a231.507 231.507 0 01-50.11-7.42 192.957 192.957 0 01-23.55-7.91c-67.7-27.68-103-88.6-105.95-152.34-3.87-83.84 54.08-123.8 91.74-147.2 37.66-23.4 83.08-114.06 197-110.17a224.249 224.249 0 0151.5 7.6c38.35 10.47 77.33 33.65 100 67.52 1.7 2.554 3.324 5.154 4.87 7.8 30.29 51.92 31.25 123.21 10.95 178.11z" fill="#BDD0FB" fill-opacity=".55"/><path opacity=".7" d="M456.244 562.151c-14.9 40.26-45.32 83.84-88.14 96.75-64.7 19.5-72.43 72.14-188.31 67.26a231.507 231.507 0 01-50.11-7.42 192.957 192.957 0 01-23.55-7.91c-67.7-27.68-103-88.6-105.95-152.34-3.87-83.84 54.08-123.8 91.74-147.2 37.66-23.4 83.08-114.06 197-110.17a224.33 224.33 0 0151.5 7.6c38.35 10.47 77.33 33.65 100 67.52 1.7 2.554 3.324 5.154 4.87 7.8 30.29 51.92 31.25 123.21 10.95 178.11z" fill="#FEBAB6"/><path d="M680.239 224.616l18.996 181.925m-2.5-29.546l-8.912-9.421" stroke="#263238" stroke-width="2" stroke-linecap="round" stroke-linejoin="round"/><path d="M690.535 370.399a10.107 10.107 0 00-.954-4.162 10.1 10.1 0 00-2.591-3.394c-2.288-2.048-14.336-7.062-15.536-2.825-1.187 4.562 11.143 13.63 19.081 10.381z" fill="#3535A2" stroke="#263238" stroke-linecap="round" stroke-linejoin="round"/><path d="M690.534 370.399l-11.468-7.146" stroke="#263238" stroke-width=".5" stroke-linecap="round" stroke-linejoin="round"/><path d="M698.981 398.42l-8.912-9.406" stroke="#263238" stroke-width="2" stroke-linecap="round" stroke-linejoin="round"/><path d="M692.78 391.825a10.08 10.08 0 00-3.545-7.557c-2.288-2.047-14.335-7.061-15.536-2.824-1.2 4.562 11.13 13.629 19.081 10.381z" fill="#3535A2" stroke="#263238" stroke-linecap="round" stroke-linejoin="round"/><path d="M692.766 391.825l-11.468-7.147" stroke="#263238" stroke-width=".5" stroke-linecap="round" stroke-linejoin="round"/><path d="M691.283 324.696l-8.912-9.421" stroke="#263238" stroke-width="2" stroke-linecap="round" stroke-linejoin="round"/><path d="M685.083 318.1a10.061 10.061 0 00-3.602-7.599c-2.288-2.048-14.321-7.061-15.465-2.824-1.2 4.604 11.115 13.671 19.067 10.423z" fill="#3535A2" stroke="#263238" stroke-linecap="round" stroke-linejoin="round"/><path d="M685.083 318.1l-11.468-7.147" stroke="#263238" stroke-width=".5" stroke-linecap="round" stroke-linejoin="round"/><path d="M693.515 346.135l-8.912-9.42" stroke="#263238" stroke-width="2" stroke-linecap="round" stroke-linejoin="round"/><path d="M687.314 339.539a10.12 10.12 0 00-3.545-7.57c-2.288-2.048-14.335-7.062-15.536-2.825-1.186 4.576 11.144 13.63 19.081 10.395z" fill="#3535A2" stroke="#263238" stroke-linecap="round" stroke-linejoin="round"/><path d="M687.314 339.539l-11.468-7.146" stroke="#263238" stroke-width=".5" stroke-linecap="round" stroke-linejoin="round"/><path d="M687.653 289.881l-8.926-9.406" stroke="#263238" stroke-width="2" stroke-linecap="round" stroke-linejoin="round"/><path d="M681.481 283.285a10.075 10.075 0 00-3.545-7.556c-2.288-2.048-14.335-7.062-15.536-2.825-1.228 4.562 11.102 13.587 19.081 10.381z" fill="#3535A2" stroke="#263238" stroke-linecap="round" stroke-linejoin="round"/><path d="M681.439 283.285l-11.468-7.146" stroke="#263238" stroke-width=".5" stroke-linecap="round" stroke-linejoin="round"/><path d="M683.995 254.925l-8.912-9.42" stroke="#263238" stroke-width="2" stroke-linecap="round" stroke-linejoin="round"/><path d="M677.795 248.358a10.112 10.112 0 00-3.545-7.57c-2.288-2.048-14.335-7.062-15.536-2.825-1.243 4.548 11.144 13.601 19.081 10.395z" fill="#3535A2" stroke="#263238" stroke-linecap="round" stroke-linejoin="round"/><path d="M677.795 248.33l-11.468-7.147" stroke="#263238" stroke-width=".5" stroke-linecap="round" stroke-linejoin="round"/><path d="M695.238 364.312l6.779-11.059" stroke="#263238" stroke-width="2" stroke-linecap="round" stroke-linejoin="round"/><path d="M699.955 356.572a10.057 10.057 0 011.907-8.121c1.822-2.471 12.555-9.886 14.547-6.002 2.175 4.251-8.022 15.663-16.454 14.123z" fill="#3535A2" stroke="#263238" stroke-linecap="round" stroke-linejoin="round"/><path d="M699.955 356.586l10.324-9.872" stroke="#263238" stroke-width=".5" stroke-linecap="round" stroke-linejoin="round"/><path d="M689.362 307.917l6.78-11.059" stroke="#263238" stroke-width="2" stroke-linecap="round" stroke-linejoin="round"/><path d="M694.066 300.177a10.11 10.11 0 011.906-8.121c1.822-2.472 12.556-9.887 14.562-6.003 2.16 4.252-8.023 15.663-16.468 14.124z" fill="#3535A2" stroke="#263238" stroke-linecap="round" stroke-linejoin="round"/><path d="M694.065 300.177l10.325-9.858" stroke="#263238" stroke-width=".5" stroke-linecap="round" stroke-linejoin="round"/><path d="M686.763 283.13l6.78-11.045" stroke="#263238" stroke-width="2" stroke-linecap="round" stroke-linejoin="round"/><path d="M691.481 275.404a10.082 10.082 0 011.907-8.135c1.821-2.472 12.555-9.886 14.547-6.002 2.175 4.251-8.022 15.663-16.454 14.137z" fill="#3535A2" stroke="#263238" stroke-linecap="round" stroke-linejoin="round"/><path d="M691.481 275.404l10.324-9.872" stroke="#263238" stroke-width=".5" stroke-linecap="round" stroke-linejoin="round"/><path d="M682.979 246.804l6.779-11.058" stroke="#263238" stroke-width="2" stroke-linecap="round" stroke-linejoin="round"/><path d="M687.696 239.064a10.082 10.082 0 011.906-8.135c1.808-2.471 12.556-9.886 14.548-6.002 2.16 4.265-8.023 15.677-16.454 14.137z" fill="#3535A2" stroke="#263238" stroke-linecap="round" stroke-linejoin="round"/><path d="M687.696 239.065l10.324-9.873" stroke="#263238" stroke-width=".5" stroke-linecap="round" stroke-linejoin="round"/><path d="M680.069 223.571a10.082 10.082 0 011.907-8.135c1.822-2.472 12.555-9.887 14.547-6.003 2.189 4.266-7.98 15.677-16.454 14.138z" fill="#3535A2" stroke="#263238" stroke-linecap="round" stroke-linejoin="round"/><path d="M680.083 223.571l10.324-9.872" stroke="#263238" stroke-width=".5" stroke-linecap="round" stroke-linejoin="round"/><path d="M680.676 223.995a10.102 10.102 0 01-7.881-2.754c-2.273-2.062-8.544-13.531-4.449-15.098 4.464-1.709 14.745 9.618 12.33 17.852z" fill="#3535A2" stroke="#263238" stroke-linecap="round" stroke-linejoin="round"/><path d="M680.676 223.995l-8.728-11.299" stroke="#263238" stroke-width=".5" stroke-linecap="round" stroke-linejoin="round"/><path d="M732.114 250.561l-16.256 156.658m1.031-4.138l-6.793-11.059" stroke="#263238" stroke-width="2" stroke-linecap="round" stroke-linejoin="round"/><path d="M712.172 395.342a10.09 10.09 0 00-1.921-8.121c-1.822-2.472-12.556-9.887-14.547-6.003-2.175 4.265 8.022 15.663 16.468 14.124z" fill="#3535A2" stroke="#263238" stroke-linecap="round" stroke-linejoin="round"/><path d="M712.172 395.341l-9.759-9.349" stroke="#263238" stroke-width=".5" stroke-linecap="round" stroke-linejoin="round"/><path d="M722.312 350.782l-6.793-11.059" stroke="#263238" stroke-width="2" stroke-linecap="round" stroke-linejoin="round"/><path d="M717.595 342.985a10.07 10.07 0 00-.081-4.268 10.068 10.068 0 00-1.84-3.853c-1.821-2.471-12.555-9.886-14.547-6.002-2.175 4.322 8.022 15.719 16.468 14.123z" fill="#3535A2" stroke="#263238" stroke-linecap="round" stroke-linejoin="round"/><path d="M717.595 343.042l-9.745-9.35" stroke="#263238" stroke-width=".5" stroke-linecap="round" stroke-linejoin="round"/><path d="M720.081 372.207l-6.779-11.045" stroke="#263238" stroke-width="2" stroke-linecap="round" stroke-linejoin="round"/><path d="M715.378 364.482a10.086 10.086 0 00-1.907-8.136c-1.822-2.471-12.57-9.886-14.561-5.988-2.175 4.251 7.994 15.663 16.468 14.124z" fill="#3535A2" stroke="#263238" stroke-linecap="round" stroke-linejoin="round"/><path d="M715.364 364.482l-9.745-9.35" stroke="#263238" stroke-width=".5" stroke-linecap="round" stroke-linejoin="round"/><path d="M725.928 315.967l-6.793-11.059" stroke="#263238" stroke-width="2" stroke-linecap="round" stroke-linejoin="round"/><path d="M721.211 308.228a10.09 10.09 0 00-1.921-8.122c-1.822-2.471-12.556-9.886-14.547-6.002-2.175 4.265 8.022 15.663 16.468 14.124z" fill="#3535A2" stroke="#263238" stroke-linecap="round" stroke-linejoin="round"/><path d="M721.211 308.228l-9.759-9.35" stroke="#263238" stroke-width=".5" stroke-linecap="round" stroke-linejoin="round"/><path d="M729.544 280.997l-6.779-11.059" stroke="#263238" stroke-width="2" stroke-linecap="round" stroke-linejoin="round"/><path d="M724.841 273.258a10.091 10.091 0 00-1.921-8.121c-1.822-2.472-12.556-9.887-14.547-6.003-2.175 4.265 8.022 15.663 16.468 14.124z" fill="#3535A2" stroke="#263238" stroke-linecap="round" stroke-linejoin="round"/><path d="M724.841 273.257l-9.76-9.349" stroke="#263238" stroke-width=".5" stroke-linecap="round" stroke-linejoin="round"/><path d="M718.033 390.356l8.898-9.421" stroke="#263238" stroke-width="2" stroke-linecap="round" stroke-linejoin="round"/><path d="M724.233 383.76a10.06 10.06 0 013.545-7.57c2.288-2.034 14.321-7.062 15.536-2.825 1.172 4.562-11.143 13.629-19.081 10.395z" fill="#3535A2" stroke="#263238" stroke-linecap="round" stroke-linejoin="round"/><path d="M724.233 383.76l12.132-7.528" stroke="#263238" stroke-width=".5" stroke-linecap="round" stroke-linejoin="round"/><path d="M723.88 333.96l8.912-9.42" stroke="#263238" stroke-width="2" stroke-linecap="round" stroke-linejoin="round"/><path d="M730.08 327.365a10.128 10.128 0 013.545-7.57c2.288-2.048 14.322-7.062 15.536-2.825 1.187 4.562-11.186 13.629-19.081 10.395z" fill="#3535A2" stroke="#263238" stroke-linecap="round" stroke-linejoin="round"/><path d="M730.08 327.365l12.132-7.528" stroke="#263238" stroke-width=".5" stroke-linecap="round" stroke-linejoin="round"/><path d="M726.451 309.174l8.912-9.421" stroke="#263238" stroke-width="2" stroke-linecap="round" stroke-linejoin="round"/><path d="M732.651 302.578a10.135 10.135 0 013.545-7.57c2.288-2.048 14.335-7.062 15.536-2.825 1.186 4.562-11.143 13.629-19.081 10.395z" fill="#3535A2" stroke="#263238" stroke-linecap="round" stroke-linejoin="round"/><path d="M732.651 302.578l12.132-7.528" stroke="#263238" stroke-width=".5" stroke-linecap="round" stroke-linejoin="round"/><path d="M730.222 272.834l8.912-9.42" stroke="#263238" stroke-width="2" stroke-linecap="round" stroke-linejoin="round"/><path d="M736.422 266.238a10.088 10.088 0 013.545-7.556c2.288-2.048 14.335-7.062 15.536-2.825 1.186 4.548-11.144 13.686-19.081 10.381z" fill="#3535A2" stroke="#263238" stroke-linecap="round" stroke-linejoin="round"/><path d="M736.422 266.238l12.132-7.528" stroke="#263238" stroke-width=".5" stroke-linecap="round" stroke-linejoin="round"/><path d="M732.171 249.516a10.116 10.116 0 013.545-7.57c2.288-2.048 14.321-7.062 15.536-2.825 1.172 4.562-11.144 13.629-19.081 10.395z" fill="#3535A2" stroke="#263238" stroke-linecap="round" stroke-linejoin="round"/><path d="M732.171 249.516l12.132-7.542" stroke="#263238" stroke-width=".5" stroke-linecap="round" stroke-linejoin="round"/><path d="M732.665 250.053a10.095 10.095 0 01-7.146-4.322c-1.794-2.486-5.579-14.999-1.243-15.691 4.717-.749 12.443 12.457 8.389 20.013z" fill="#3535A2" stroke="#263238" stroke-linecap="round" stroke-linejoin="round"/><path d="M732.665 250.053l-6.214-12.867" stroke="#263238" stroke-width=".5" stroke-linecap="round" stroke-linejoin="round"/><path d="M709.7 173.828v233.391m.198-30.916l-7.895-10.282" stroke="#263238" stroke-width="2" stroke-linecap="round" stroke-linejoin="round"/><path d="M704.404 369.1a10.05 10.05 0 00-2.74-7.881c-2.062-2.274-13.516-8.559-15.098-4.463-1.709 4.463 9.604 14.745 17.838 12.344z" fill="#3535A2" stroke="#263238" stroke-linecap="round" stroke-linejoin="round"/><path d="M704.404 369.1l-10.663-8.291" stroke="#263238" stroke-width=".5" stroke-linecap="round" stroke-linejoin="round"/><path d="M709.898 331.517l-7.895-10.282" stroke="#263238" stroke-width="2" stroke-linecap="round" stroke-linejoin="round"/><path d="M704.404 324.314a10.051 10.051 0 00-2.74-7.881c-2.062-2.274-13.516-8.559-15.098-4.463-1.709 4.463 9.604 14.745 17.838 12.344z" fill="#3535A2" stroke="#263238" stroke-linecap="round" stroke-linejoin="round"/><path d="M704.404 324.314l-10.663-8.29" stroke="#263238" stroke-width=".5" stroke-linecap="round" stroke-linejoin="round"/><path d="M709.898 278.949l-7.895-10.296" stroke="#263238" stroke-width="2" stroke-linecap="round" stroke-linejoin="round"/><path d="M704.404 271.732a10.051 10.051 0 00-2.74-7.881c-2.062-2.274-13.516-8.559-15.098-4.463-1.709 4.506 9.604 14.745 17.838 12.344z" fill="#3535A2" stroke="#263238" stroke-linecap="round" stroke-linejoin="round"/><path d="M704.404 271.732l-10.663-8.29" stroke="#263238" stroke-width=".5" stroke-linecap="round" stroke-linejoin="round"/><path d="M709.898 243.937l-7.895-10.282" stroke="#263238" stroke-width="2" stroke-linecap="round" stroke-linejoin="round"/><path d="M704.404 236.734a10.051 10.051 0 00-2.74-7.881c-2.062-2.274-13.516-8.573-15.098-4.463-1.709 4.463 9.604 14.745 17.838 12.344z" fill="#3535A2" stroke="#263238" stroke-linecap="round" stroke-linejoin="round"/><path d="M704.404 236.734l-10.663-8.29" stroke="#263238" stroke-width=".5" stroke-linecap="round" stroke-linejoin="round"/><path d="M709.898 208.784l-7.895-10.296" stroke="#263238" stroke-width="2" stroke-linecap="round" stroke-linejoin="round"/><path d="M704.404 201.581a10.098 10.098 0 00-2.74-7.895c-2.062-2.26-13.516-8.559-15.098-4.449-1.709 4.449 9.604 14.745 17.838 12.344z" fill="#3535A2" stroke="#263238" stroke-linecap="round" stroke-linejoin="round"/><path d="M704.404 201.581l-10.663-8.291" stroke="#263238" stroke-width=".5" stroke-linecap="round" stroke-linejoin="round"/><path d="M709.714 389.988l7.895-10.296" stroke="#263238" stroke-width="2" stroke-linecap="round" stroke-linejoin="round"/><path d="M715.209 382.786a10.081 10.081 0 012.74-7.895c2.062-2.274 13.516-8.559 15.098-4.463 1.709 4.463-9.604 14.759-17.838 12.358z" fill="#3535A2" stroke="#263238" stroke-linecap="round" stroke-linejoin="round"/><path d="M715.208 382.785l11.299-8.742" stroke="#263238" stroke-width=".5" stroke-linecap="round" stroke-linejoin="round"/><path d="M709.714 318.749l7.895-10.281" stroke="#263238" stroke-width="2" stroke-linecap="round" stroke-linejoin="round"/><path d="M715.208 311.547a10.063 10.063 0 012.74-7.881c2.062-2.274 13.517-8.559 15.098-4.463 1.709 4.463-9.604 14.745-17.838 12.344z" fill="#3535A2" stroke="#263238" stroke-linecap="round" stroke-linejoin="round"/><path d="M715.208 311.546l11.299-8.742" stroke="#263238" stroke-width=".5" stroke-linecap="round" stroke-linejoin="round"/><path d="M709.714 283.596l7.895-10.282" stroke="#263238" stroke-width="2" stroke-linecap="round" stroke-linejoin="round"/><path d="M715.208 276.393a10.067 10.067 0 012.74-7.881c2.062-2.274 13.517-8.559 15.098-4.463 1.709 4.463-9.604 14.745-17.838 12.344z" fill="#3535A2" stroke="#263238" stroke-linecap="round" stroke-linejoin="round"/><path d="M715.208 276.393l11.299-8.743" stroke="#263238" stroke-width=".5" stroke-linecap="round" stroke-linejoin="round"/><path d="M709.714 237.13l7.895-10.282" stroke="#263238" stroke-width="2" stroke-linecap="round" stroke-linejoin="round"/><path d="M715.208 229.997a10.067 10.067 0 012.74-7.881c2.062-2.274 13.517-8.558 15.098-4.463 1.709 4.393-9.604 14.675-17.838 12.344z" fill="#3535A2" stroke="#263238" stroke-linecap="round" stroke-linejoin="round"/><path d="M715.208 229.927l11.299-8.743" stroke="#263238" stroke-width=".5" stroke-linecap="round" stroke-linejoin="round"/><path d="M709.714 200.606l7.895-10.296" stroke="#263238" stroke-width="2" stroke-linecap="round" stroke-linejoin="round"/><path d="M715.209 193.403a10.083 10.083 0 012.74-7.895c2.062-2.274 13.516-8.559 15.098-4.463 1.709 4.463-9.604 14.759-17.838 12.358z" fill="#3535A2" stroke="#263238" stroke-linecap="round" stroke-linejoin="round"/><path d="M715.208 193.403l11.299-8.742" stroke="#263238" stroke-width=".5" stroke-linecap="round" stroke-linejoin="round"/><path d="M709.248 177.203a10.087 10.087 0 012.74-7.937c2.062-2.274 13.516-8.559 15.098-4.463 1.709 4.463-9.604 14.801-17.838 12.4z" fill="#3535A2" stroke="#263238" stroke-linecap="round" stroke-linejoin="round"/><path d="M709.248 177.203l11.299-8.742" stroke="#263238" stroke-width=".5" stroke-linecap="round" stroke-linejoin="round"/><path d="M709.799 177.74a10.063 10.063 0 01-7.556-3.559c-2.048-2.288-7.062-14.335-2.825-15.536 4.661-1.229 13.63 11.101 10.381 19.095z" fill="#3535A2" stroke="#263238" stroke-linecap="round" stroke-linejoin="round"/><path d="M709.799 177.684l-7.514-12.147" stroke="#263238" stroke-width=".5" stroke-linecap="round" stroke-linejoin="round"/><path d="M102.417 407.276h661.617" stroke="#263238" stroke-linecap="round" stroke-linejoin="round"/><path d="M323.718 407.304l-34.927 30.38 46.452 2.796 30.733-31.086-42.258-2.09zm42.258 2.091l44.715 2.09-27.951 32.484-47.497-3.489 30.733-31.085z" fill="#fff" stroke="#263238" stroke-linecap="round" stroke-linejoin="round"/><path d="M321.416 416.597l26.75 1.978m-38.162 5.113l33.84 1.963m-38.952 3.94l32.653 2.359m11.807 1.568l33.84 2.372" stroke="#263238" stroke-linecap="round" stroke-linejoin="round"/><path d="M288.791 437.684l-.692 2.796 47.144 2.797v-2.797l-46.452-2.796zm46.452 3.841v1.752l48.543 3.488 26.552-32.837-1.045-1.737-26.553 31.778-47.497-2.444z" fill="#263238" stroke="#263238" stroke-linecap="round" stroke-linejoin="round"/><path d="M442.822 416.032l-27.598 35.62 56.579 2.443 19.208-36.665-48.189-1.398z" fill="#919191" stroke="#263238" stroke-linecap="round" stroke-linejoin="round"/><path d="M414.532 449.562l-3.502 3.841 58.33 2.797 1.751-4.548-56.579-2.09z" fill="#919191" stroke="#263238" stroke-linecap="round" stroke-linejoin="round"/><path d="M471.111 451.652l.692 2.443 19.209-36.665.593 1.837-19.477 39.108-2.768-2.175 1.751-4.548z" fill="#263238" stroke="#263238" stroke-linecap="round" stroke-linejoin="round"/><path d="M455.985 427.557l3.898-5.748-6.313-.212-4.294 5.621 6.709.339zm-11.991 2.119l-6.581-.339-2.387 2.923 6.864.17 2.104-2.754zm-4.336 10.154l-2.33 3.037 8.121.282 2.104-3.107-7.895-.212zm.198-4.745l-7.019-.156-1.61 1.964 7.118.183 1.511-1.991zm8.785 8.177l9.646.325 1.949-3.206-9.477-.254-2.118 3.135zm19.222-10.225l11.087.254 1.017-1.822-10.819-.536-1.285 2.104zm2.881-4.746l10.706.537 3.446-6.2-10.508-.339-3.644 6.002zm-5.762 9.506l11.284.296 1.187-2.118-11.214-.269-1.257 2.091zm-23.304-.622l7.683.198 1.37-2.034-7.528-.169-1.525 2.005zm25.987-9.039l3.616-5.96-8.206-.268-3.926 5.804 8.516.424zm-4.308 12.33l-1.963 3.234 11.539.382 1.85-3.319-11.426-.297zm-17.371-13.417l4.251-5.565-6.215-.198-4.463 5.452 6.427.311zm-9.675 12.682l-7.245-.183-2.43 2.952 7.373.254 2.302-3.023zm8.926-7.231l7.288.17 1.695-2.486-6.935-.353-2.048 2.669zm20.832-1.723l-8.686-.438-1.638 2.415 8.997.212 1.327-2.189zm-2.952 4.859l-9.18-.212-1.37 2.034 9.293.254 1.257-2.076z" fill="#fff" stroke="#263238" stroke-linecap="round" stroke-linejoin="round"/><path d="M411.03 453.403l3.63 2.062 57.468 2.91-2.768-2.175-58.33-2.797z" fill="#263238" stroke="#263238" stroke-linecap="round" stroke-linejoin="round"/><path d="M420.535 449.731l2.712-3.842 47.652 1.808-3.163 4.068-47.201-2.034zm-159.596-54.375c11.685 0 21.157-3.035 21.157-6.78 0-3.744-9.472-6.779-21.157-6.779s-21.157 3.035-21.157 6.779c0 3.745 9.472 6.78 21.157 6.78z" fill="#fff" stroke="#263238" stroke-linecap="round" stroke-linejoin="round"/><path d="M262.987 363.14l2.825-5.932 1.228 6.37-5.282 49.898a2.007 2.007 0 01-.738 1.37 2.025 2.025 0 01-1.493.438 2.031 2.031 0 01-1.808-2.232l5.268-49.912z" fill="#fff" stroke="#263238" stroke-linecap="round" stroke-linejoin="round"/><path d="M257.775 413.052a2.032 2.032 0 001.819 2.124 2.034 2.034 0 002.221-1.7l.918-8.629-4.04-.382-.918 8.587z" fill="#fff" stroke="#263238" stroke-linecap="round" stroke-linejoin="round"/><path d="M259.512 415.284a2.031 2.031 0 001.494-.438 2.03 2.03 0 00.738-1.37l.678-6.355-4.039-.466-.678 6.398a2.03 2.03 0 001.807 2.231zm3.475-52.144l-.028.325 4.039.466.028-.353-1.228-6.37-2.811 5.932z" fill="#fff" stroke="#263238" stroke-linecap="round" stroke-linejoin="round"/><path d="M275.599 367.49l4.435-4.844-.692 6.454-19.773 46.099a2.049 2.049 0 01-2.669 1.074 2.05 2.05 0 01-1.074-2.67l19.773-46.113z" fill="#263238" stroke="#263238" stroke-linecap="round" stroke-linejoin="round"/><path d="M255.784 413.603a2.035 2.035 0 103.743 1.596l3.418-7.965-3.757-1.568-3.404 7.937z" fill="#fff" stroke="#263238" stroke-linecap="round" stroke-linejoin="round"/><path d="M256.857 416.273a2.047 2.047 0 002.669-1.074l2.486-5.833-3.728-1.638-2.543 5.918a2.052 2.052 0 001.116 2.627zm18.742-48.783l-.127.296 3.729 1.639.141-.325.692-6.454-4.435 4.844z" fill="#fff" stroke="#263238" stroke-linecap="round" stroke-linejoin="round"/><path d="M257.14 411.4l-4.068-.141 1.596-50.153a2.02 2.02 0 012.091-1.963 2.023 2.023 0 011.416.636 2.012 2.012 0 01.547 1.454L257.14 411.4z" fill="#263238" stroke="#263238" stroke-linecap="round" stroke-linejoin="round"/><path d="M258.722 361.233a2.032 2.032 0 00-3.366-1.442 2.036 2.036 0 00-.688 1.315l-.282 8.672 4.067.085.269-8.63z" fill="#fff" stroke="#263238" stroke-linecap="round" stroke-linejoin="round"/><path d="M256.758 359.143a2.02 2.02 0 00-2.09 1.963l-.212 6.398 4.068.155.198-6.426a2.02 2.02 0 00-1.964-2.09zm4.181 36.213c-11.694 0-21.185-3.037-21.185-6.78v47.893c0 3.743 9.462 6.78 21.185 6.78 11.723 0 21.185-3.037 21.185-6.78v-47.893c-.042 3.743-9.505 6.78-21.185 6.78z" fill="#fff" stroke="#263238" stroke-linecap="round" stroke-linejoin="round"/><g opacity=".82"><path opacity=".46" fill-rule="evenodd" clip-rule="evenodd" d="M742.579-54.261c-11.598 0-21 9.402-21 21v76.59c0 11.598 9.402 21 21 21h76.59c11.597 0 21-9.402 21-21v-76.59c0-11.598-9.403-21-21.001-21h-76.589zm5.823 14.824c-6.627 0-12 5.372-12 12v64.942c0 6.627 5.373 12 12 12h64.943c6.627 0 12-5.373 12-12v-64.942c0-6.628-5.373-12-12-12h-64.943z" fill="#BDD0FB"/><g filter="url(#filter0_d_279_1029)"><path fill-rule="evenodd" clip-rule="evenodd" d="M764.301 16.775c-11.598 0-21 9.402-21 21v71.894c0 11.598 9.402 21 21 21h71.893c11.598 0 21-9.402 21-21V37.775c0-11.598-9.402-21-21-21h-71.893zm5.236 14.237c-6.627 0-12 5.373-12 12v61.42c0 6.627 5.373 12 12 12h61.42c6.628 0 12-5.373 12-12v-61.42c0-6.627-5.372-12-12-12h-61.42z" fill="#F2F5FF"/></g><g filter="url(#filter1_d_279_1029)"><path fill-rule="evenodd" clip-rule="evenodd" d="M568.803 64.916c-11.598 0-21 9.402-21 21v71.893c0 11.598 9.402 21 21 21h71.894c11.598 0 21-9.402 21-21V85.916c0-11.598-9.402-21-21-21h-71.894zm5.237 14.236c-6.627 0-12 5.373-12 12v61.42c0 6.628 5.373 12 12 12h61.42c6.627 0 12-5.372 12-12v-61.42c0-6.627-5.373-12-12-12h-61.42z" fill="#F2F5FF"/></g><path fill-rule="evenodd" clip-rule="evenodd" d="M666.258-46.63c-11.598 0-21 9.403-21 21V7.518c0 11.598 9.402 21 21 21h33.146c11.598 0 21-9.402 21-21V-25.63c0-11.598-9.402-21-21-21h-33.146zm.394 9.394c-6.628 0-12 5.373-12 12v32.36c0 6.627 5.372 12 12 12h32.359c6.628 0 12-5.373 12-12v-32.36c0-6.627-5.372-12-12-12h-32.359z" fill="#BDD0FB"/><path opacity=".46" fill-rule="evenodd" clip-rule="evenodd" d="M650.407 42.607c-11.598 0-21 9.402-21 21v33.146c0 11.598 9.402 21 21 21h33.146c11.598 0 21-9.402 21-21V63.607c0-11.598-9.402-21-21-21h-33.146zM650.8 52c-6.627 0-12 5.373-12 12v32.36c0 6.627 5.373 11.999 12 11.999h32.36c6.627 0 12-5.372 12-12V64c0-6.627-5.373-12-12-12H650.8zm98.237 47.553c-11.598 0-21 9.402-21 21v33.146c0 11.598 9.402 21 21 21h33.146c11.598 0 21-9.402 21-21v-33.146c0-11.598-9.402-21-21-21h-33.146zm.393 9.393c-6.628 0-12 5.373-12 12v32.36c0 6.627 5.372 12 12 12h32.359c6.628 0 12-5.373 12-12v-32.36c0-6.627-5.372-12-12-12H749.43zM554.713-50.152c-11.598 0-21 9.402-21 21V3.994c0 11.598 9.402 21 21 21h33.146c11.598 0 21-9.402 21-21v-33.146c0-11.598-9.402-21-21-21h-33.146zm.394 9.394c-6.628 0-12 5.372-12 12v32.36c0 6.627 5.372 12 12 12h32.359c6.628 0 12-5.373 12-12v-32.36c0-6.628-5.372-12-12-12h-32.359z" fill="#BDD0FB"/><path fill-rule="evenodd" clip-rule="evenodd" d="M816.098 2.685a5.283 5.283 0 00-5.283 5.284v15.264h-15.264a5.283 5.283 0 100 10.567h15.264v15.265a5.283 5.283 0 1010.567 0V33.8h15.264a5.284 5.284 0 000-10.568h-15.264V7.97a5.284 5.284 0 00-5.284-5.284z" fill="#3535A2"/><rect x="779.699" y="80.18" width="10.567" height="51.663" rx="5.284" transform="rotate(90 779.699 80.18)" fill="#FEBAB6"/><path fill-rule="evenodd" clip-rule="evenodd" d="M616.492 55.523a5.284 5.284 0 00-5.284-5.284h-41.096a5.283 5.283 0 000 10.567h41.096a5.284 5.284 0 005.284-5.283zm0 19.373a5.284 5.284 0 00-5.284-5.284h-41.096a5.283 5.283 0 000 10.568h41.096a5.284 5.284 0 005.284-5.284z" fill="#FEBAB6"/><g filter="url(#filter2_d_279_1029)"><path fill-rule="evenodd" clip-rule="evenodd" d="M585.829-117.666c-11.598 0-21 9.402-21 21v71.894c0 11.597 9.402 21 21 21h71.893c11.598 0 21-9.402 21-21v-71.894c0-11.598-9.402-21-21-21h-71.893zm5.236 14.237c-6.627 0-12 5.372-12 12v61.42c0 6.627 5.373 12 12 12h61.42c6.628 0 12-5.373 12-12v-61.42c0-6.628-5.372-12-12-12h-61.42z" fill="#3535A2"/></g><g filter="url(#filter3_d_279_1029)"><path fill-rule="evenodd" clip-rule="evenodd" d="M557.062 40.846c-11.598 0-21 9.402-21 21v16.707c0 11.598 9.402 21 21 21h16.708c11.598 0 21-9.402 21-21V61.846c0-11.598-9.402-21-21-21h-16.708zm-1.662 7.338c-6.627 0-12 5.373-12 12v20.03c0 6.628 5.373 12 12 12h20.031c6.628 0 12-5.372 12-12v-20.03c0-6.627-5.372-12-12-12H555.4z" fill="#3535A2"/></g><g filter="url(#filter4_d_279_1029)"><path fill-rule="evenodd" clip-rule="evenodd" d="M469-19.623c-11.598 0-21 9.402-21 21v30.797c0 11.598 9.402 21 21 21h30.798c11.598 0 21-9.402 21-21V1.376c0-11.598-9.402-21-21-21H469zm.1 9.1c-6.628 0-12 5.372-12 12v30.598c0 6.627 5.372 12 12 12h30.598c6.627 0 12-5.373 12-12V1.476c0-6.627-5.373-12-12-12H469.1z" fill="#FEBAB6"/></g><g filter="url(#filter5_d_279_1029)"><path fill-rule="evenodd" clip-rule="evenodd" d="M835.337 85.463c-11.598 0-21 9.402-21 21v9.663c0 11.598 9.402 21 21 21H845c11.598 0 21-9.402 21-21v-9.663c0-11.598-9.402-21-21-21h-9.663zm-2.542 6.458c-6.627 0-12 5.373-12 12v14.747c0 6.628 5.373 12 12 12h14.747c6.628 0 12-5.372 12-12v-14.747c0-6.627-5.372-12-12-12h-14.747z" fill="#3535A2"/></g><path fill-rule="evenodd" clip-rule="evenodd" d="M533.714-9.056a5.283 5.283 0 00-5.284 5.284v15.264h-15.264a5.284 5.284 0 000 10.567h15.264v15.264a5.283 5.283 0 1010.567 0V22.06h15.264a5.284 5.284 0 000-10.567h-15.264V-3.772a5.283 5.283 0 00-5.283-5.284z" fill="#BDD0FB"/></g><path d="M474.035 330.924c-2.542 22.908-4.11 55.081-4.237 76.408h139.484c-.141-21.383-1.709-53.5-4.237-76.408-2.655-23.94 4.788-32.484 9.576-60.647 4.788-28.162 2.132-88.328-2.119-94.19-1.935-2.655-6.497-3.446-10.917-3.516a60.562 60.562 0 01-17.697 27.978c-22.16 19.872-63.161 25.592-91.803-1.525a52.767 52.767 0 01-15.169-26.439c-4.237.127-8.474.96-10.366 3.502-4.238 5.862-6.921 65.985-2.133 94.19s12.273 36.707 9.618 60.647z" fill="#636262" stroke="#263238" stroke-linecap="round" stroke-linejoin="round"/><path d="M598.152 138.307c4.817 24.956-2.132 46.297-17.569 60.138-20.479 18.361-58.401 23.643-84.812-1.412-26.411-25.055-13.135-65.618-2.98-65.618s103.61-2.02 105.361 6.892z" fill="#636262" stroke="#263238" stroke-linecap="round" stroke-linejoin="round"/><path d="M457.454 406.033s-14.562 1.695-16.596 1.695c-2.033 0-3.05 2.372-.339 4.745 2.712 2.373 11.864 1.017 11.864 1.017l5.071-7.457z" fill="#fff" stroke="#263238" stroke-linecap="round" stroke-linejoin="round"/><path d="M455.985 218.698v15.296s-25.733 13.093-36.58 17.16c-10.847 4.068-18.516 7.683-19.872 13.997-1.356 6.313-14.448 65.053-15.352 72.27-.904 7.217-7.683 14.01-7.683 18.064-.113 2 .195 4.001.904 5.875 0 0 3.163 14.9 13.996 20.776 10.833 5.875 19.872-1.413 24.843-5.424 4.972-4.011 9.887-14.448 9.887-14.448s-3.616 34.786-4.068 37.936a56.276 56.276 0 00-.452 6.779h129.626a676.34 676.34 0 014.068-80.843c1.779-16.623-1.413-68.655-6.328-76.267-4.915-7.613-18.064-11.737-29.348-14.9-11.285-3.164-25.748-5.876-25.748-5.876l-.451-5.875-37.442-4.52z" fill="#BDD0FB" stroke="#263238" stroke-linecap="round" stroke-linejoin="round"/><path d="M417.046 307.027l-1.709-10.409m10.847 65.943l-8.064-49.037" stroke="#263238" stroke-linecap="round" stroke-linejoin="round"/><path d="M473.611 270.87c31.072 3.884 63.302-25.139 67.341-27.795-6.101-3.46-14.053-5.861-21.27-7.881-11.299-3.163-25.747-5.875-25.747-5.875l-.452-5.875-37.498-4.506v15.296s-16.948 8.615-29.109 14.039a78.754 78.754 0 0046.735 22.597z" fill="#fff" stroke="#263238" stroke-linecap="round" stroke-linejoin="round"/><path d="M455.985 234.234a175.07 175.07 0 01-2.246 18.516m40.196-23.431s.904 13.093 2.26 17.612" stroke="#263238" stroke-linecap="round" stroke-linejoin="round"/><path d="M506.844 120.78c-8.305-4.746-25.606-8.164-34.97-6.229-9.985 2.048-23.078 6.37-33.388 15.395-19.307 16.948-12.189 42.695-10.494 45.054l1.695 2.373a145.67 145.67 0 01-3.729 19.321c-3.05 12.188 11.85 24.01 30.14 27.428 18.29 3.417 47.766.677 67.073-5.071 19.307-5.748 22.724-21.016 15.931-43.712-6.793-22.697-14.123-43.246-25.295-50.351-2.5-1.596-4.83-2.994-6.963-4.208z" fill="#3535A2" stroke="#263238" stroke-linecap="round" stroke-linejoin="round"/><path d="M470.49 141.781a22.225 22.225 0 014.237-.649m-40.648 34.885s-4.731-1.681-2.711-8.474c1.652-5.509 20.069-19.053 34.362-24.307m.777-13.276a65.138 65.138 0 014.844-.339m-44.093 32.583s5.353-25.931 34.843-31.509m22.597-6.229c-2.655 4.915-5.819 11.581-6.581 16.666m10.507-23.375s-.409.636-1.073 1.738m19.73 16.651a90.94 90.94 0 0123.686 35.479m-34.885-43.699a51.429 51.429 0 018.29 5.72m31.439 72.637A20.856 20.856 0 01523.51 216m-15.24-65.377s30.832 29.461 30.154 45.732a24.788 24.788 0 01-.833 5.508m-23.558-8.587s9.477 5.409 5.423 15.239c-4.053 9.83-10.508 7.062-10.508 7.062" stroke="#263238" stroke-linecap="round" stroke-linejoin="round"/><path d="M477.17 147.544a116.891 116.891 0 01-25.648 19.547l-16.285 9.364s9.774 36.226 14.251 43.147c4.477 6.921 12.203 17.089 23.205 17.089 11.002 0 27.272-15.874 28.078-18.713.805-2.839 4.477-17.513 4.477-17.513a10.313 10.313 0 004.067-4.887 30.49 30.49 0 00.819-6.921s-18.36-17.499-24.829-25.238a39.314 39.314 0 01-8.135-15.875z" fill="#fff" stroke="#263238" stroke-linecap="round" stroke-linejoin="round"/><path d="M463.979 184.9l-27.131-1.807a1.551 1.551 0 00-1.639 1.85c.819 4.11 2.91 13.332 5.734 15.536 3.673 2.824 14.505 2.387 16.709 2.387 4.675 0 7.4-12.641 7.697-14.053.006-.09.006-.179 0-.269v-2.034a1.57 1.57 0 00-1.37-1.61zm8.474.777l27.188.735a1.544 1.544 0 011.197.647 1.544 1.544 0 01.215 1.344c-1.186 4.011-4.138 12.994-7.16 14.915-3.913 2.499-14.661 1.016-16.85.819-4.66-.438-6.2-13.276-6.355-14.717a.804.804 0 010-.268l.141-2.02a1.537 1.537 0 011.624-1.455zm-8.488-.777l8.474.777m-6.539 2.429l4.816.156m30.676-.904l4.364-2.853" stroke="#263238" stroke-width="2" stroke-linecap="round" stroke-linejoin="round"/><path d="M485.164 191.722c0 1.907-.876 3.46-1.949 3.46s-1.963-1.553-1.963-3.46.876-3.46 1.963-3.46c1.088 0 1.949 1.539 1.949 3.46zm-29.786-.762c0 1.92-.876 3.46-1.95 3.46-1.073 0-1.963-1.54-1.963-3.46 0-1.921.876-3.447 1.963-3.447 1.088 0 1.95 1.526 1.95 3.447z" fill="#263238"/><path d="M465.25 193.191s-3.39 13.545-3.842 15.126c-.452 1.582 2.034 3.164 6.554 1.582m-6.554 7.457s8.136 2.02 14.463-.452m0-33.656s4.505-5.197 18.742-.226m-32.527-.904s-8.347-6.553-17.838-1.412" stroke="#263238" stroke-linecap="round" stroke-linejoin="round"/><path d="M531.574 284.274s-.48 54.036-1.412 64.742c-.932 10.705 1.412 20.027 11.92 25.62s23.855 5.127 28.148 3.729c4.294-1.399 19.561-9.322 17.655-21.426-1.907-12.104-14.788-52.638-20.522-71.733-5.734-19.095-6.68-27.951-14.321-34.024s-9.971-7.711-16.652-3.051" fill="#BDD0FB"/><path d="M531.574 284.274s-.48 54.036-1.412 64.742c-.932 10.705 1.412 20.027 11.92 25.62s23.855 5.127 28.148 3.729c4.294-1.399 19.561-9.322 17.655-21.426-1.907-12.104-14.788-52.638-20.522-71.733-5.734-19.095-6.68-27.951-14.321-34.024s-9.971-7.711-16.652-3.051" stroke="#263238" stroke-linecap="round" stroke-linejoin="round"/><path d="M364.295 400.044l5.875-8.573s16.271-4.971 22.598-8.587c6.327-3.615 10.395-13.996 4.068-20.775-6.328-6.78-16.709-9.025-23.94-3.616-7.231 5.409-9.886 15.366-13.996 18.064-4.11 2.697-20.776 6.779-25.296 7.683-4.519.904-6.327 4.52-5.423 7.683.904 3.164 4.068 15.805 6.327 17.612 2.26 1.808 9.887 7.232 15.353 7.232 5.465 0 10.847-6.328 12.711-6.78 1.864-.452 6.694-4.971 1.723-9.943z" fill="#fff" stroke="#263238" stroke-linecap="round" stroke-linejoin="round"/><path d="M353.575 385.582s-2.133 19.9-1.412 20.663a6.813 6.813 0 005.649 1.158c2.316-.579 5.395-15.635 5.395-18.728a19.399 19.399 0 00-2.118-7.147m-21.044 5.593s6.567 11.793 9.081 13.531l2.514 1.737" stroke="#263238" stroke-linecap="round" stroke-linejoin="round"/><path d="M332.898 393.505s6.568 12.161 9.887 13.714c3.319 1.554 10.819 4.435 18.361 3.856" stroke="#263238" stroke-linecap="round" stroke-linejoin="round"/><path d="M341.104 368.111l8.036 32.484 2.317.763.395-3.475-6.878-30.747a2.002 2.002 0 00-.955-1.244 1.993 1.993 0 00-1.559-.168 1.989 1.989 0 00-1.356 2.387z" fill="#263238" stroke="#263238" stroke-linecap="round" stroke-linejoin="round"/><path d="M338.124 411.852s8.474 2.895 10.621 3.276c2.722.471 5.52.208 8.107-.762m7.443-14.322a4.773 4.773 0 01-3.715 2.26" stroke="#263238" stroke-linecap="round" stroke-linejoin="round"/><path d="M538.833 361.346s-49.432 32.484-52.172 33.896c-2.74 1.413-29.815 8.799-33.896 11.172-4.082 2.373-6.78 12.542-8.474 15.917-1.695 3.376-3.39 12.881-3.39 12.881a5.658 5.658 0 004.745 1.695c3.051-.339 6.441-13.22 6.441-13.22l6.765-9.816s-4.407 9.816-4.407 12.189c0 2.373-1.68 8.813-1.68 9.886 0 1.074 2.019 2.373 4.731 1.017 2.712-1.356 4.746-11.525 4.746-11.525l5.762-9.476s-4.407 13.205-5.762 15.917c-1.356 2.712-1.695 3.728 2.033 3.389 3.729-.339 4.068-4.406 5.085-7.061 1.017-2.656 3.389-7.782 3.389-7.782l6.766-4.746s-4.393 9.477-5.749 11.85c-1.356 2.372-2.711 3.05 2.034 3.05 4.746 0 7.782-10.493 7.782-10.493a63.691 63.691 0 005.085-4.068c1.412-1.412 6.44-9.152 6.44-9.152s60.293-20.324 67.412-23.713c7.118-3.39 7.782-8.475 5.07-12.867-2.712-4.392-14.632-14.731-28.756-8.94zm5.001 101.972l-43.67-36.439h77.877l-34.207 36.439z" fill="#fff" stroke="#263238" stroke-linecap="round" stroke-linejoin="round"/><path d="M545.67 458.912l-17.725-15.988h28.148l-10.423 15.988z" fill="#263238" stroke="#263238" stroke-linecap="round" stroke-linejoin="round"/><path d="M675.903 463.318h-132.07l20.141-83.795h132.069l-20.14 83.795z" fill="#fff" stroke="#263238" stroke-linecap="round" stroke-linejoin="round"/><path d="M685.493 423.49c-24.477 3.884-48.02 18.36-76.931 26.834a317.882 317.882 0 01-64.418 11.737l-.311 1.3h132.07l9.59-39.871z" fill="#263238" stroke="#263238" stroke-linecap="round" stroke-linejoin="round"/><path d="M623.264 429.591c5.109 0 9.251-3.168 9.251-7.076 0-3.908-4.142-7.076-9.251-7.076-5.109 0-9.251 3.168-9.251 7.076 0 3.908 4.142 7.076 9.251 7.076z" fill="#fff" stroke="#263238" stroke-linecap="round" stroke-linejoin="round"/><defs><filter id="filter0_d_279_1029" x="733.301" y="8.775" width="143.893" height="143.893" filterUnits="userSpaceOnUse" color-interpolation-filters="sRGB"><feFlood flood-opacity="0" result="BackgroundImageFix"/><feColorMatrix in="SourceAlpha" values="0 0 0 0 0 0 0 0 0 0 0 0 0 0 0 0 0 0 127 0" result="hardAlpha"/><feOffset dx="5" dy="7"/><feGaussianBlur stdDeviation="7.5"/><feComposite in2="hardAlpha" operator="out"/><feColorMatrix values="0 0 0 0 0.741176 0 0 0 0 0.815686 0 0 0 0 0.984314 0 0 0 0.55 0"/><feBlend in2="BackgroundImageFix" result="effect1_dropShadow_279_1029"/><feBlend in="SourceGraphic" in2="effect1_dropShadow_279_1029" result="shape"/></filter><filter id="filter1_d_279_1029" x="537.803" y="56.916" width="143.893" height="143.893" filterUnits="userSpaceOnUse" color-interpolation-filters="sRGB"><feFlood flood-opacity="0" result="BackgroundImageFix"/><feColorMatrix in="SourceAlpha" values="0 0 0 0 0 0 0 0 0 0 0 0 0 0 0 0 0 0 127 0" result="hardAlpha"/><feOffset dx="5" dy="7"/><feGaussianBlur stdDeviation="7.5"/><feComposite in2="hardAlpha" operator="out"/><feColorMatrix values="0 0 0 0 0.741176 0 0 0 0 0.815686 0 0 0 0 0.984314 0 0 0 0.55 0"/><feBlend in2="BackgroundImageFix" result="effect1_dropShadow_279_1029"/><feBlend in="SourceGraphic" in2="effect1_dropShadow_279_1029" result="shape"/></filter><filter id="filter2_d_279_1029" x="554.829" y="-125.666" width="143.893" height="143.893" filterUnits="userSpaceOnUse" color-interpolation-filters="sRGB"><feFlood flood-opacity="0" result="BackgroundImageFix"/><feColorMatrix in="SourceAlpha" values="0 0 0 0 0 0 0 0 0 0 0 0 0 0 0 0 0 0 127 0" result="hardAlpha"/><feOffset dx="5" dy="7"/><feGaussianBlur stdDeviation="7.5"/><feComposite in2="hardAlpha" operator="out"/><feColorMatrix values="0 0 0 0 0.741176 0 0 0 0 0.815686 0 0 0 0 0.984314 0 0 0 0.55 0"/><feBlend in2="BackgroundImageFix" result="effect1_dropShadow_279_1029"/><feBlend in="SourceGraphic" in2="effect1_dropShadow_279_1029" result="shape"/></filter><filter id="filter3_d_279_1029" x="526.062" y="32.846" width="88.708" height="88.708" filterUnits="userSpaceOnUse" color-interpolation-filters="sRGB"><feFlood flood-opacity="0" result="BackgroundImageFix"/><feColorMatrix in="SourceAlpha" values="0 0 0 0 0 0 0 0 0 0 0 0 0 0 0 0 0 0 127 0" result="hardAlpha"/><feOffset dx="5" dy="7"/><feGaussianBlur stdDeviation="7.5"/><feComposite in2="hardAlpha" operator="out"/><feColorMatrix values="0 0 0 0 0.741176 0 0 0 0 0.815686 0 0 0 0 0.984314 0 0 0 0.55 0"/><feBlend in2="BackgroundImageFix" result="effect1_dropShadow_279_1029"/><feBlend in="SourceGraphic" in2="effect1_dropShadow_279_1029" result="shape"/></filter><filter id="filter4_d_279_1029" x="438" y="-27.623" width="102.798" height="102.798" filterUnits="userSpaceOnUse" color-interpolation-filters="sRGB"><feFlood flood-opacity="0" result="BackgroundImageFix"/><feColorMatrix in="SourceAlpha" values="0 0 0 0 0 0 0 0 0 0 0 0 0 0 0 0 0 0 127 0" result="hardAlpha"/><feOffset dx="5" dy="7"/><feGaussianBlur stdDeviation="7.5"/><feComposite in2="hardAlpha" operator="out"/><feColorMatrix values="0 0 0 0 0.741176 0 0 0 0 0.815686 0 0 0 0 0.984314 0 0 0 0.55 0"/><feBlend in2="BackgroundImageFix" result="effect1_dropShadow_279_1029"/><feBlend in="SourceGraphic" in2="effect1_dropShadow_279_1029" result="shape"/></filter><filter id="filter5_d_279_1029" x="804.337" y="77.463" width="81.663" height="81.663" filterUnits="userSpaceOnUse" color-interpolation-filters="sRGB"><feFlood flood-opacity="0" result="BackgroundImageFix"/><feColorMatrix in="SourceAlpha" values="0 0 0 0 0 0 0 0 0 0 0 0 0 0 0 0 0 0 127 0" result="hardAlpha"/><feOffset dx="5" dy="7"/><feGaussianBlur stdDeviation="7.5"/><feComposite in2="hardAlpha" operator="out"/><feColorMatrix values="0 0 0 0 0.741176 0 0 0 0 0.815686 0 0 0 0 0.984314 0 0 0 0.55 0"/><feBlend in2="BackgroundImageFix" result="effect1_dropShadow_279_1029"/><feBlend in="SourceGraphic" in2="effect1_dropShadow_279_1029" result="shape"/></filter></defs></svg>