<svg width="438" height="293" fill="none" xmlns="http://www.w3.org/2000/svg"><path d="M378.44 71.786S314.121 5.459 230.535.338c-83.586-5.122-132.329 49.24-155.426 81.66-23.098 32.42-80.727 86.436-73.93 135.897 6.795 49.462 73.423 86.991 168.868 70.504 95.445-16.487 123.117-22.743 166.603-10.231 43.486 12.511 99.963-6.256 101.089-77.327 1.127-71.07-59.299-129.055-59.299-129.055z" fill="#BDD0FB"/><path opacity=".7" d="M378.44 71.786S314.121 5.459 230.535.338c-83.586-5.122-132.329 49.24-155.426 81.66-23.098 32.42-80.727 86.436-73.93 135.897 6.795 49.462 73.423 86.991 168.868 70.504 95.445-16.487 123.117-22.743 166.603-10.231 43.486 12.511 99.963-6.256 101.089-77.327 1.127-71.07-59.299-129.055-59.299-129.055z" fill="#fff"/><path d="M312.356 229.455h3.567v-34.6h-3.567v34.6zm17.764-33.385l6.291.74 3.991-34.365-6.29-.741-3.992 34.366z" fill="#263238" stroke="#263238" stroke-linecap="round" stroke-linejoin="round"/><path d="M309.609 230.872v-5.834h9.055v5.885l36.221 14.634v6.905h-2.472v-5.248l-38.405-8.801-37.391 8.801v5.248h-2.403v-6.905l35.395-14.685z" fill="#8C8C8C" stroke="#263238" stroke-linecap="round" stroke-linejoin="round"/><path d="M305.222 205.905h17.835v-11.05h-17.835v11.05zm49.694 46.835c0-.766.225-1.514.648-2.15a3.823 3.823 0 015.913-.583 3.885 3.885 0 01-.589 5.952 3.826 3.826 0 01-4.851-.485 3.886 3.886 0 01-1.121-2.734z" fill="#263238" stroke="#263238" stroke-linecap="round" stroke-linejoin="round"/><path d="M357.075 252.739a1.662 1.662 0 011.016-1.53 1.63 1.63 0 011.793.359 1.66 1.66 0 01-.249 2.549 1.64 1.64 0 01-2.078-.206 1.661 1.661 0 01-.482-1.172z" fill="#fff" stroke="#263238" stroke-linecap="round" stroke-linejoin="round"/><path d="M266.254 252.74c0-.766.226-1.513.648-2.15a3.847 3.847 0 011.724-1.424 3.833 3.833 0 014.188.838 3.879 3.879 0 011.051 1.981c.148.75.072 1.528-.218 2.235a3.864 3.864 0 01-1.416 1.736 3.82 3.82 0 01-4.851-.481 3.882 3.882 0 01-1.126-2.735z" fill="#263238" stroke="#263238" stroke-linecap="round" stroke-linejoin="round"/><path d="M270.097 254.396c.909 0 1.646-.741 1.646-1.657a1.65 1.65 0 00-1.646-1.656 1.65 1.65 0 00-1.646 1.656c0 .916.737 1.657 1.646 1.657z" fill="#fff" stroke="#263238" stroke-linecap="round" stroke-linejoin="round"/><path d="M312.488 252.664h3.016l1.514-20.721h-6.039l1.509 20.721z" fill="#8C8C8C" stroke="#263238" stroke-linecap="round" stroke-linejoin="round"/><path d="M312.631 256.803h3.017v-8.562h-3.017v8.562z" fill="#263238" stroke="#263238" stroke-linecap="round" stroke-linejoin="round"/><path d="M337.894 178.954c1.76.171 3.537-.009 5.228-.529a13.436 13.436 0 004.628-2.502 13.544 13.544 0 003.324-4.095 13.619 13.619 0 001.514-5.065l4.205-44.043a13.622 13.622 0 00-3.012-9.92 13.441 13.441 0 00-9.097-4.872 13.41 13.41 0 00-9.854 3.037 13.587 13.587 0 00-4.839 9.159l-4.212 44.1a13.614 13.614 0 003.037 9.884 13.434 13.434 0 009.078 4.846z" fill="#8C8C8C" stroke="#263238" stroke-linecap="round" stroke-linejoin="round"/><path d="M334.703 178.645a13.408 13.408 0 009.854-3.033 13.583 13.583 0 004.839-9.157l4.212-44.1a13.62 13.62 0 00-3.029-9.898 13.44 13.44 0 00-9.086-4.857 13.38 13.38 0 00-5.227.531 13.444 13.444 0 00-4.627 2.504 13.56 13.56 0 00-3.322 4.097 13.614 13.614 0 00-1.511 5.065l-4.212 44.062a13.613 13.613 0 003.013 9.918 13.437 13.437 0 009.096 4.868zm-58.58 19.675l62.804 1.663a2.64 2.64 0 001.9-.724 2.665 2.665 0 00.835-1.865l.319-10.118a2.677 2.677 0 00-.719-1.913 2.649 2.649 0 00-1.853-.84l-62.798-1.663a2.636 2.636 0 00-1.9.72 2.676 2.676 0 00-.834 1.863l-.313 10.124a2.685 2.685 0 00.714 1.909 2.65 2.65 0 001.845.844z" fill="#8C8C8C" stroke="#263238" stroke-linecap="round" stroke-linejoin="round"/><path d="M302.382 198.809l36.553 1.163a2.662 2.662 0 002.736-2.585l.317-10.119a2.663 2.663 0 00-2.568-2.755l-36.553-1.162a2.66 2.66 0 00-2.735 2.585l-.318 10.119a2.663 2.663 0 002.568 2.754z" fill="#8C8C8C" stroke="#263238" stroke-linecap="round" stroke-linejoin="round"/><path d="M271.937 241.614l-.307 2.331s-2.779 5.594-3.861 6.527c-1.083.932-7.873 3.88-9.105 4.347-1.233.466.926 1.89 3.861 2.022 2.935.132 8.335.157 10.188-.309 1.852-.466 5.4-3.112 6.176-3.263l.626 2.016s3.398-1.26 4.631-1.55c1.232-.29 3.241-1.89 3.241-1.89a60.566 60.566 0 00-2.465-6.376 11.204 11.204 0 00-2.166-2.797l-2.309-2.772-8.51 1.714z" fill="#263238" stroke="#263238" stroke-linecap="round" stroke-linejoin="round"/><path d="M290.616 152.834l-5.094 3.106-11.114 3.263s-35.194 6.527-37.203 8.877c-2.008 2.35-1.251 4.353.464 7.308 1.714 2.955 31.514 68.399 31.514 68.399l12.353-2.488-20.688-62.667s38.905 7.926 45.682 6.678c6.777-1.247 15.438-8.542 16.978-14.137 1.539-5.594-5.557-14.49-5.557-14.49l-27.335-3.849z" fill="#BDD0FB" stroke="#263238" stroke-linecap="round" stroke-linejoin="round"/><path d="M252.093 172.553s7.778 3.78 9.174 8.033" stroke="#263238" stroke-linecap="round" stroke-linejoin="round"/><path d="M330.904 100.928l-16.671-1.556-24.386 55.636 16.051 2.797 25.006-56.877z" fill="#fff" stroke="#263238" stroke-linecap="round" stroke-linejoin="round"/><path d="M314.54 104.57s-24.387 49.65-24.706 50.438c-.319.787-7.253 2.797-8.799 3.105-1.545.309-6.639 1.09-6.639 1.09l8.648-5.903 6.164-16.008-7.509-3.862s13.892-20.979 16.977-28.129c3.086-7.151 4.3-9.041 7.378-9.192 3.079-.151 11.89.466 11.89.466l-3.404 7.995z" fill="#BDD0FB" stroke="#263238" stroke-linecap="round" stroke-linejoin="round"/><path d="M311.148 115.066l.307 3.578s-16.208 29.213-16.358 29.837c-.15.624 1.252 4.971 1.252 4.971l5.713-4.196 10.801-29.988 2.935-1.714v-5.55l-4.65 3.062z" fill="#263238" stroke="#263238" stroke-linecap="round" stroke-linejoin="round"/><path d="M317.594 61.364s-5.732 13.974-7.003 18.207c-1.27 4.234-2.165 11.151-1.877 11.92.288.769 1.877 3.459 4.837 3.591 2.96.132 5.476.126 5.476.126l-4.456 9.362s.507 7.308 1.252 7.434c.745.126 11.971-8.587 12.228-8.978.256-.39 7.384-15.75 7.384-15.75s6.371-3.206 6.752-6.029a4.488 4.488 0 00-1.658-4.227v-3.465l2.804-8.461s-7.003-4.612-14.775-6.54c-7.773-1.927-9.425-.63-9.425-.63l-1.539 3.44z" fill="#fff" stroke="#263238" stroke-linecap="round" stroke-linejoin="round"/><path d="M330.454 53.546s-11.458-3.08-16.552 1.411c-5.094 4.492 8.148 11.693 12.478 12.323 4.33.63 9.681-.258 8.404.901-1.276 1.16-4.074 2.948-2.672 4.101a10.34 10.34 0 002.929 1.663s-5.983 13.23-7.003 14.743c-1.02 1.511-2.928 1.41-4.074 1.026-1.145-.384-6.62-3.843-8.404-4.485-1.783-.643-5.094-2.564-5.857-.51-.764 2.053-2.679 10.766.125 12.688 2.803 1.921 16.427-2.949 18.467-4.36 2.04-1.411 2.672-3.975 3.054-4.486.381-.51 5.857-9.613 6.364-10.256.507-.643 2.803-1.26 2.803-1.26s4.587-9.236 4.969-12.82c.382-3.585-11.589-10.805-15.031-10.679z" fill="#3535A2" stroke="#263238" stroke-linecap="round" stroke-linejoin="round"/><path d="M318.489 71.362l-.257 5.67s-5.982 6.792-5.982 7.56c0 .77 7.127-.125 7.127-.125m-1.783-14.383a2.03 2.03 0 00-2.416-1.027m7.766 4.227s3.693-.384 4.838 2.438" stroke="#263238" stroke-linecap="round" stroke-linejoin="round"/><path d="M312.988 87.516s3.311 2.053 5.476 2.053" stroke="#fff" stroke-linecap="round" stroke-linejoin="round"/><path d="M324.202 78.84c-.35.7-.988 1.078-1.427.858-.438-.221-.513-.97-.162-1.664.35-.693.988-1.077 1.427-.857.438.221.513.97.162 1.664zm-7.972-3.118c-.344.693-.989 1.078-1.427.85-.438-.226-.513-.963-.163-1.663.351-.699.989-1.077 1.427-.85.438.227.513.964.163 1.663z" fill="#263238"/><path d="M260.979 236.416l-1.082 6.527-2.316.63s-2.165 2.627-2.622 3.257c-.457.63-6.176 4.813-7.716 5.595-1.539.781-5.407 1.083-5.25 2.173.156 1.09 8.335 2.022 13.586 2.174 5.25.151 8.179-1.55 8.179-1.55l.463 1.083 5.4-.466s-.306-5.128-.15-7.302a30.439 30.439 0 00-.313-5.285l-.306-4.505-7.873-2.331z" fill="#263238" stroke="#263238" stroke-linecap="round" stroke-linejoin="round"/><path d="M304.359 160.136s-43.843 5.437-44.769 6.527c-.926 1.089-.157 33.257-.157 33.257l-5.094 37.649 15.745 4.851s4.944-31.746 6.64-40.32a186.112 186.112 0 002.472-19.272s24.236 5.595 32.541.933c8.304-4.662 6.633-10.414 6.633-10.414" fill="#BDD0FB"/><path d="M304.359 160.136s-43.843 5.437-44.769 6.527c-.926 1.089-.157 33.257-.157 33.257l-5.094 37.649 15.745 4.851s4.944-31.746 6.64-40.32a186.112 186.112 0 002.472-19.272s24.236 5.595 32.541.933c8.304-4.662 6.633-10.414 6.633-10.414m-58.098 25.313s1.996-9.034 2.39-13.86m13.273-7.169a7.576 7.576 0 00-1.695-1.663m4.956 6.86s-.889-1.751-2.053-3.521" stroke="#263238" stroke-linecap="round" stroke-linejoin="round"/><path d="M330.291 97.974s-17.447 32.306-21.151 40.559c-3.705 8.253-8.668 19.738-8.668 20.979 0 1.241-3.241 33.107-2.159 33.724 1.083.617 17.285-4.662 24.85-7.61 7.566-2.949 7.873-5.129 8.492-6.842.62-1.714.463-23.776.463-23.776s15.745-45.071 15.589-47.087c-.157-2.016-17.416-9.947-17.416-9.947z" fill="#BDD0FB" stroke="#263238" stroke-linecap="round" stroke-linejoin="round"/><path d="M317.031 130.658c-2.86 2.823-5.263 4.927-5.263 4.927m24.08-34.039s-7.253 14.301-10.964 20.053a52.95 52.95 0 01-6.17 7.358m-6.07-30.41s-7.509 12.638-9.675 20.097c-2.165 7.459-2.628 11.34-2.628 11.34m8.336-13.362l7.133-4.618.276 10.836m7.81 42.336l2.384-.378m-.776-2.798l-16.827 2.023v3.572l12.015-1.909" stroke="#263238" stroke-linecap="round" stroke-linejoin="round"/><path d="M302.043 103.411s2.779-5.904 4.168-6.061c1.389-.157 4.474 0 4.474 1.26s-1.696 1.399-1.696 1.399h-2.315l-1.083 2.797-3.548.605z" fill="#fff" stroke="#263238" stroke-linecap="round" stroke-linejoin="round"/><path d="M298.182 114.6l1.083-6.061s.463-5.279 1.251-5.594c.789-.315 7.873-.152 7.873-.152s.156 6.212-.464 7.768c-.619 1.556-3.398 2.174-3.398 2.174a13.784 13.784 0 01-1.076 2.797c-.463.63-2.165 1.399-2.165 1.399l-.463 1.26-4.011-2.646 1.37-.945z" fill="#fff" stroke="#263238" stroke-linecap="round" stroke-linejoin="round"/><path d="M304.509 112.741l-.77-2.955 2.935-.157" fill="#fff"/><path d="M304.509 112.741l-.77-2.955 2.935-.157" stroke="#263238" stroke-linecap="round" stroke-linejoin="round"/><path d="M296.636 114.139l6.333 4.505-2.472 2.64-5.4-4.971 1.539-2.174z" fill="#fff" stroke="#263238" stroke-linecap="round" stroke-linejoin="round"/><path d="M295.097 116.313l7.253 5.437-13.893 21.294a9.137 9.137 0 01-4.937-.315c-2.628-.933-5.094-6.212-5.094-6.836 0-.623 16.671-19.58 16.671-19.58z" fill="#BDD0FB" stroke="#263238" stroke-linecap="round" stroke-linejoin="round"/><path d="M289.54 141.022s-2.315-4.354-2.472-5.595c-.156-1.241-.307-3.729-1.083-4.662-.776-.932-1.695-1.556-2.002-2.955-.307-1.398-1.702-.774-1.877.63-.176 1.405 1.076 2.798 1.076 2.798s-3.855-1.26-4.474-.933c-.62.328-1.878.775-1.546 1.89.206.684.468 1.35.782 1.991 0 0-2.465 3.263-2.465 4.813 0 1.55 1.695 4.045 2.934 4.977 1.24.933 5.557 1.89 5.557 1.89l5.57-4.844z" fill="#fff" stroke="#263238" stroke-linecap="round" stroke-linejoin="round"/><path d="M334.077 109.043l-13.974 29.181-34.118 1.89c-.86.21-1.646.655-2.272 1.285a4.861 4.861 0 00-1.276 2.287 15.612 15.612 0 00-.463 4.354s22.691 2.797 29.794 3.263c7.103.466 15.745 1.399 16.827.309 1.083-1.09 13.893-27.815 13.893-27.815" fill="#BDD0FB"/><path d="M334.077 109.043l-13.974 29.181-34.118 1.89c-.86.21-1.646.655-2.272 1.285a4.861 4.861 0 00-1.276 2.287 15.612 15.612 0 00-.463 4.354s22.691 2.797 29.794 3.263c7.103.466 15.745 1.399 16.827.309 1.083-1.09 13.893-27.815 13.893-27.815" stroke="#263238" stroke-linecap="round" stroke-linejoin="round"/><path d="M129.864 194.861h-3.567v34.6h3.567v-34.6zm-21.734-33.15l-6.291.741 3.992 34.365 6.29-.74-3.991-34.366z" fill="#263238" stroke="#263238" stroke-linecap="round" stroke-linejoin="round"/><path d="M132.612 230.872v-5.833h-9.056v5.884l-36.22 14.635v6.904h2.472v-5.247l38.404-8.802 37.391 8.802v5.247h2.403v-6.904l-35.394-14.686z" fill="#8C8C8C" stroke="#263238" stroke-linecap="round" stroke-linejoin="round"/><path d="M136.998 194.861h-17.835v11.051h17.835v-11.051zM87.336 252.74a3.89 3.89 0 00-.648-2.15 3.849 3.849 0 00-1.724-1.424 3.832 3.832 0 00-4.187.838 3.893 3.893 0 00-.833 4.216c.29.707.783 1.311 1.415 1.736a3.824 3.824 0 004.852-.481 3.883 3.883 0 001.125-2.735z" fill="#263238" stroke="#263238" stroke-linecap="round" stroke-linejoin="round"/><path d="M85.14 252.739a1.663 1.663 0 00-1.017-1.53 1.63 1.63 0 00-1.793.359 1.662 1.662 0 00.25 2.549 1.639 1.639 0 002.077-.206c.309-.311.482-.732.482-1.172z" fill="#fff" stroke="#263238" stroke-linecap="round" stroke-linejoin="round"/><path d="M175.941 252.74c0-.766-.225-1.513-.648-2.15a3.847 3.847 0 00-1.724-1.424 3.83 3.83 0 00-4.187.838 3.894 3.894 0 00-.833 4.216 3.862 3.862 0 001.415 1.736 3.826 3.826 0 004.852-.481 3.886 3.886 0 001.125-2.735z" fill="#263238" stroke="#263238" stroke-linecap="round" stroke-linejoin="round"/><path d="M172.124 254.396a1.65 1.65 0 001.645-1.657 1.65 1.65 0 00-1.645-1.656 1.65 1.65 0 00-1.646 1.656c0 .916.737 1.657 1.646 1.657z" fill="#fff" stroke="#263238" stroke-linecap="round" stroke-linejoin="round"/><path d="M129.727 252.664h-3.017l-1.508-20.721h6.039l-1.514 20.721z" fill="#8C8C8C" stroke="#263238" stroke-linecap="round" stroke-linejoin="round"/><path d="M129.589 248.241h-3.016v8.562h3.016v-8.562z" fill="#263238" stroke="#263238" stroke-linecap="round" stroke-linejoin="round"/><path d="M104.326 178.954a13.38 13.38 0 01-9.855-3.031 13.54 13.54 0 01-3.325-4.095 13.622 13.622 0 01-1.514-5.065l-4.211-44.1a13.64 13.64 0 01.525-5.262 13.577 13.577 0 012.485-4.659 13.48 13.48 0 014.068-3.347 13.381 13.381 0 0114.885 1.513 13.59 13.59 0 014.839 9.16l4.212 44.1a13.61 13.61 0 01-3.013 9.917 13.434 13.434 0 01-9.096 4.869z" fill="#8C8C8C" stroke="#263238" stroke-linecap="round" stroke-linejoin="round"/><path d="M107.518 178.645a13.407 13.407 0 01-9.854-3.033 13.585 13.585 0 01-4.84-9.157l-4.212-44.1a13.621 13.621 0 013.027-9.896 13.438 13.438 0 019.083-4.859c3.555-.344 7.1.748 9.855 3.035a13.583 13.583 0 014.838 9.162l4.205 44.056a13.621 13.621 0 01-3.01 9.918 13.44 13.44 0 01-9.092 4.874zm60.751 19.675l-64.976 1.663a2.637 2.637 0 01-1.9-.724 2.68 2.68 0 01-.834-1.865l-.338-10.118a2.682 2.682 0 01.717-1.911 2.646 2.646 0 011.849-.842l65.019-1.663a2.636 2.636 0 012.501 1.568c.144.319.223.664.233 1.015l.32 10.124a2.7 2.7 0 01-.726 1.92 2.655 2.655 0 01-1.865.833z" fill="#8C8C8C" stroke="#263238" stroke-linecap="round" stroke-linejoin="round"/><path d="M139.369 183.357l-36.552 1.163a2.662 2.662 0 00-2.568 2.754l.317 10.119a2.661 2.661 0 002.736 2.585l36.553-1.162a2.665 2.665 0 002.568-2.755l-.318-10.119a2.66 2.66 0 00-2.736-2.585z" fill="#8C8C8C" stroke="#263238" stroke-linecap="round" stroke-linejoin="round"/><path d="M176.567 177.713s.557 10.811 2.034 20.494c1.476 9.683 3.923 39.06 3.923 39.06a48.163 48.163 0 003.129 8.568 22.216 22.216 0 003.329 5.04s4.813 4.844 4.625 5.588c-.188.743-3.204.668-6.164.107-2.96-.561-3.567-1.26-5.232-2.388-1.664-1.127-5.45-2.57-7.115-3.15-1.664-.579-2.215-2.041-1.658-3.717.557-1.676 2.409-5.588 2.409-8.007 0-2.419-1.483-13.898-5.538-21.54-4.055-7.642-6.477-20.865-6.477-20.865l12.735-19.19z" fill="#fff" stroke="#263238" stroke-linecap="round" stroke-linejoin="round"/><path d="M177.549 247.876a40.135 40.135 0 01-3.216-2.803c-.351.9-.676 1.694-.858 2.242-.557 1.676 0 3.15 1.659 3.717 1.658.567 5.45 2.016 7.115 3.15 1.664 1.134 2.271 1.827 5.231 2.388 2.96.561 5.983.63 6.164-.107.182-.737-4.624-5.588-4.624-5.588l-2.403 1.121s-5.739-1.512-9.068-4.12z" fill="#FEBAB6" stroke="#263238" stroke-linecap="round" stroke-linejoin="round"/><path d="M105.578 155.512s-1.665 6.564-.758 10.71c.908 4.145 7.128 13.734 17.892 16.027 10.763 2.293 37.816 1.543 37.816 1.543s-6.521 9.973-8.949 21.981c-1.602 7.951-6.514 19.076-7.272 20.758-.757 1.683-9.705 4.732-9.386 6.105.319 1.374 1.364 9.916 3.636 13.432 2.271 3.515 6.063 5.04 7.578 5.493 1.514.454 1.821.454 1.821-1.071 0-1.524-1.064-3.66-1.064-5.04 0-1.379-.15-10.71.457-11.907.607-1.197 20.457-32.703 23.486-37.869 3.028-5.166 7.734-15.265 9.098-16.941 1.365-1.675 3.029-3.969 1.665-6.867-1.364-2.898-32.685-12.6-32.685-12.6l-1.646-5.865-15.644-.913-26.045 3.024z" fill="#fff" stroke="#263238" stroke-linecap="round" stroke-linejoin="round"/><path d="M148.913 159.26l-1.646-5.865-15.644-.914-26.077 3.05s-1.702 6.571-.757 10.71c1.502 6.545 7.128 13.734 17.891 16.027 10.764 2.293 37.817 1.543 37.817 1.543s2.565-12.908 7.578-17.942c-6.02-2.066-19.162-6.609-19.162-6.609z" fill="#263238" stroke="#263238" stroke-linecap="round" stroke-linejoin="round"/><path d="M160.528 183.767a54.848 54.848 0 0010.457-3.969z" fill="#fff"/><path d="M160.528 183.767a54.848 54.848 0 0010.457-3.969" stroke="#263238" stroke-linecap="round" stroke-linejoin="round"/><path d="M140.058 239.938c-1.076-2.52-1.007-7.56-.869-10.256-2.291 1.14-4.437 2.242-4.281 2.929.301 1.374 1.364 9.916 3.636 13.432 2.272 3.515 6.064 5.04 7.578 5.493 1.515.454 1.821.454 1.821-1.071 0-1.524-1.057-3.654-1.064-5.04a35.612 35.612 0 01-4.699-.926s-.607-1.052-2.122-4.561z" fill="#FEBAB6" stroke="#263238" stroke-linecap="round" stroke-linejoin="round"/><path d="M137.868 95.076l-4.7 1.984s3.793 35.74 3.643 40.78c-.151 5.04-.457 15.12-.457 15.12s6.52 1.985 10.913.46l-.3-17.243s3.185-16.487 1.971-21.83c-1.214-5.342-5.006-14.805-5.006-14.805s-1.784-4.315-6.064-4.466z" fill="#fff" stroke="#263238" stroke-linecap="round" stroke-linejoin="round"/><path d="M136.516 110.492l4.556-6.987 5.601 8.19s-2.422-11.447-2.728-12.21a8.933 8.933 0 00-3.179-3.508c-1.821-1.223-3.949-1.26-5.157-1.374-1.208-.113-2.428 2.445-2.428 2.445l3.335 13.444z" fill="#fff" stroke="#263238" stroke-linecap="round" stroke-linejoin="round"/><path d="M134.389 94.515s-15.238 3.358-16.546 4.316c-1.308.957-1.877 4.076-1.552 5.273.325 1.197 3.811 27.09 3.811 27.09l-17.522 25.767s5.72 4.794 11.076 5.752c5.357.957 16.784-.479 20.833-2.155l4.049-1.676s1.877-31.286-.119-43.634c-1.996-12.348-4.03-20.733-4.03-20.733z" fill="#FEBAB6" stroke="#263238" stroke-linecap="round" stroke-linejoin="round"/><path d="M181.179 134.306l5.951-2.634s1.79-3.956 2.028-4.315c.237-.359 2.259-.958 3.21-1.802.951-.844 2.265-2.274 2.622-2.394.357-.12.951.958 0 2.394a15.477 15.477 0 01-2.503 2.76l5.838-2.155s2.259-3.837 2.854-2.161c.594 1.676-2.503 6.836-3.21 8.511-.707 1.676-1.433 2.52-2.741 2.76-1.308.239-5.357.957-6.189 1.077-.833.12-5.958 3.112-5.958 3.112l-1.902-5.153z" fill="#fff" stroke="#263238" stroke-linecap="round" stroke-linejoin="round"/><path d="M189.439 133.109c1.058-.901 2.278-1.796 2.929-1.796 1.314 0 4.168.24 4.168.24s1.67-3.837 2.503-4.41c.832-.574 1.545.239.832 1.436" fill="#fff"/><path d="M189.439 133.109c1.058-.901 2.278-1.796 2.929-1.796 1.314 0 4.168.24 4.168.24s1.67-3.837 2.503-4.41c.832-.574 1.545.239.832 1.436" stroke="#263238" stroke-linecap="round" stroke-linejoin="round"/><path d="M142.368 97.394s3.811 16.657 3.692 22.888c-.119 6.231-2.034 9.368-1.671 11.51.363 2.142 1.189 27.329 1.189 27.329l3.335.12s-.832-9.588-.713-11.39c.119-1.802 1.308-8.99 1.308-8.99s5.957 11.869 6.79 12.467c.832.599 28.454-11.264 28.454-11.264l-2.028-6.836-21.07 4.316s-4.167-13.904-4.762-16.903c-.594-2.999-1.07-13.539-2.741-16.178-1.671-2.64-11.783-7.069-11.783-7.069z" fill="#FEBAB6" stroke="#263238" stroke-linecap="round" stroke-linejoin="round"/><path d="M149.508 138.861s.713-2.993 1.908-10.906c.719-4.724.759-9.527.119-14.263m-3.329-6.968c.57 4.316.995 9.646.232 12.6a71.235 71.235 0 01-3.336 9.828m2.053-29.112s.356 1.808.751 4.41m-12.14 18.9a279.994 279.994 0 012.909 7.617" stroke="#263238" stroke-linecap="round" stroke-linejoin="round"/><path d="M128.556 96.43s2.735 16.903 4.882 21.458c.438.926.913 2.022 1.395 3.15" fill="#FEBAB6"/><path d="M128.556 96.43s2.735 16.903 4.882 21.458c.438.926.913 2.022 1.395 3.15" stroke="#263238" stroke-linecap="round" stroke-linejoin="round"/><path d="M162.368 130.715l4.643-1.323s2.979-3.837 3.692-4.795c.714-.957 2.378-.957 3.573-1.675 1.196-.719 2.735-3.358 3.33-2.879.594.478 0 2.639-.626 3.238a25.073 25.073 0 01-2.503 1.795c-.476.359 5.594-1.077 5.594-1.077s3.93-3.478 4.168-2.52c.238.958-1.79 4.315-1.79 4.315s-2.853 2.754-4.286 3.951c-1.434 1.197-4.882 1.682-5.833 1.89-.951.207-2.616.478-2.616.478l-7.146 2.634-.2-4.032z" fill="#fff" stroke="#263238" stroke-linecap="round" stroke-linejoin="round"/><path d="M181.536 126.5s-2.504 1.197-3.812 1.796z" fill="#fff"/><path d="M181.536 126.5s-2.504 1.197-3.812 1.796m-3.21-3.22l-2.146.479" stroke="#263238" stroke-linecap="round" stroke-linejoin="round"/><path d="M120.459 97.873s-7.022 2.394-8.098 4.196c-1.076 1.802 2.741 16.537 5.601 24.69 2.86 8.152 10.475 21.81 11.427 22.289.951.479 25.838-8.385 31.533-10.187 5.695-1.802 6.665-2.753 6.665-2.753l-2.503-6.477-28.568 5.154-8.761-27.682" fill="#FEBAB6"/><path d="M120.459 97.873s-7.022 2.394-8.098 4.196c-1.076 1.802 2.741 16.537 5.601 24.69 2.86 8.152 10.475 21.81 11.427 22.289.951.479 25.838-8.385 31.533-10.187 5.695-1.802 6.665-2.753 6.665-2.753l-2.503-6.477-28.568 5.154-8.761-27.682" stroke="#263238" stroke-linecap="round" stroke-linejoin="round"/><path d="M154.958 61.37s2.779 1.89 1.371 3.926c-1.408 2.035-4.381 2.173-4.381 2.173l-2.597-4.12s3.092-3.692 5.607-1.978z" fill="#3535A2" stroke="#263238" stroke-linecap="round" stroke-linejoin="round"/><path d="M152.042 63.828s4.262 10.18 4.024 11.056c-.238.876-2.222 2.243-1.32 3.572.901 1.33 3.542 3.988 3.473 4.36-.069.372-3.298 2.268-3.298 2.268s-2.259 8.19-3.179 9.387c-.92 1.197-8.686-.258-8.686-.258l-1.64 9.172-9.224-8.656-3.448-3.276s-3.091-13.973 3.467-22.371c6.558-8.398 19.831-5.254 19.831-5.254z" fill="#fff" stroke="#263238" stroke-linecap="round" stroke-linejoin="round"/><path d="M151.454 78.173c0 .857-.35 1.55-.745 1.543-.394-.006-.701-.711-.682-1.575.019-.863.344-1.55.739-1.543.394.006.7.712.688 1.575z" fill="#263238"/><path d="M151.473 87.132a5.417 5.417 0 01-3.861-1.89s-.232 3.685.907 3.9c1.139.213 2.954-2.01 2.954-2.01z" fill="#263238" stroke="#263238" stroke-linecap="round" stroke-linejoin="round"/><path d="M149.076 74.758s2.372-2.022 4.493.347" stroke="#263238" stroke-linecap="round" stroke-linejoin="round"/><path d="M143.056 94.213l-3.849-.926 2.898 5.411.951-4.485z" fill="#263238" stroke="#263238" stroke-linecap="round" stroke-linejoin="round"/><path d="M152.042 63.828s-.838 2.652-4.937 6.117-7.766 5.67-7.754 6.628c.013.957.626 1.852-.2 2.085a3.416 3.416 0 01-1.965-.334s-1.99 5.714-2.29 9.746c-.122 2.661.28 5.32 1.182 7.825 0 0-8.829.479-13.923-3.415-5.094-3.893-6.527-8.303-5.964-12.127.563-3.825 2.178-15.902 10.013-21.817 7.834-5.916 19.061-5.67 22.872-3.257 3.811 2.412 6.571 4.183 5.87 6.092-.701 1.909-2.904 2.457-2.904 2.457z" fill="#3535A2" stroke="#263238" stroke-linecap="round" stroke-linejoin="round"/><path d="M133.538 184.151a1.535 1.535 0 01-.676-.151 2.098 2.098 0 01-.963-1.127 2.115 2.115 0 01.018-1.487c2.828-7.775 6.07-21.641 2.747-25.78-.776-.63-5.45-1.89-30.632.731l-1.834.189c-1.758.151-3.26 2.709-3.648 3.591a1.679 1.679 0 01-.973.989 1.668 1.668 0 01-1.38-.088 2.141 2.141 0 01-.892-1.197 2.155 2.155 0 01.104-1.493c.244-.555 2.503-5.444 6.52-5.796l1.784-.183c26.833-2.81 31.977-1.392 33.542.548 5.907 7.358-1.252 27.72-2.096 30.019-.11.35-.325.656-.616.878-.29.221-.641.346-1.005.357z" fill="#fff" stroke="#263238" stroke-linecap="round" stroke-linejoin="round"/><path d="M244.164 124.95h-41.12l-9.512 32.439h41.12l9.512-32.439z" fill="#D9D9D9" stroke="#263238" stroke-linecap="round" stroke-linejoin="round"/><path d="M163.45 155.612l-.519 1.777h71.721l.526-1.777H163.45z" fill="#D9D9D9" stroke="#263238" stroke-linecap="round" stroke-linejoin="round"/><path d="M194.126 155.612l-.519 1.777h41.045l.526-1.777h-41.052z" fill="#263238" stroke="#263238" stroke-linecap="round" stroke-linejoin="round"/><path d="M234.064 162.259h-6.959v93.668h6.959v-93.668z" fill="#fff" stroke="#263238" stroke-linecap="round" stroke-linejoin="round"/><path d="M234.064 162.259h-6.959v15.473h6.959v-15.473z" fill="#263238" stroke="#263238" stroke-linecap="round" stroke-linejoin="round"/><path d="M318.601 157.408H141.942v5.204h176.659v-5.204zm-51.708 99.281h-73.217a54.058 54.058 0 0123.154-5.203h26.99a54 54 0 0123.154 5.203h-.081z" fill="#fff" stroke="#263238" stroke-linecap="round" stroke-linejoin="round"/></svg>