<svg width="840" height="574" viewBox="0 0 840 574" fill="none" xmlns="http://www.w3.org/2000/svg">
<path d="M852.244 213.151C837.344 253.411 806.924 296.991 764.104 309.901C699.404 329.401 691.674 382.041 575.794 377.161C558.87 376.528 542.066 374.04 525.684 369.741C517.673 367.613 509.806 364.971 502.134 361.831C434.434 334.151 399.134 273.231 396.184 209.491C392.314 125.651 450.264 85.6915 487.924 62.2915C525.584 38.8915 571.004 -51.7685 684.924 -47.8785C702.328 -47.353 719.611 -44.8025 736.424 -40.2785C774.774 -29.8085 813.754 -6.62851 836.424 27.2415C838.124 29.7948 839.748 32.3948 841.294 35.0415C871.584 86.9615 872.544 158.251 852.244 213.151Z" fill="#BDD0FB" fill-opacity="0.55"/>
<path opacity="0.7" d="M456.244 562.151C441.344 602.411 410.924 645.991 368.104 658.901C303.404 678.401 295.674 731.041 179.794 726.161C162.87 725.528 146.066 723.04 129.684 718.741C121.673 716.613 113.806 713.971 106.134 710.831C38.4343 683.151 3.1343 622.231 0.1843 558.491C-3.6857 474.651 54.2643 434.691 91.9243 411.291C129.584 387.891 175.004 297.231 288.924 301.121C306.328 301.647 323.611 304.198 340.424 308.721C378.774 319.191 417.754 342.371 440.424 376.241C442.124 378.795 443.748 381.395 445.294 384.041C475.584 435.961 476.544 507.251 456.244 562.151Z" fill="#FEBAB6"/>
<path d="M680.239 224.616L699.235 406.541" stroke="#263238" stroke-width="2" stroke-linecap="round" stroke-linejoin="round"/>
<path d="M696.735 376.995L687.823 367.574" stroke="#263238" stroke-width="2" stroke-linecap="round" stroke-linejoin="round"/>
<path d="M690.535 370.399C690.517 368.96 690.192 367.541 689.581 366.237C688.969 364.934 688.086 363.777 686.99 362.843C684.702 360.795 672.654 355.781 671.454 360.018C670.267 364.58 682.597 373.648 690.535 370.399Z" fill="#3535A2" stroke="#263238" stroke-linecap="round" stroke-linejoin="round"/>
<path d="M690.534 370.399L679.066 363.253" stroke="#263238" stroke-width="0.5" stroke-linecap="round" stroke-linejoin="round"/>
<path d="M698.981 398.42L690.069 389.014" stroke="#263238" stroke-width="2" stroke-linecap="round" stroke-linejoin="round"/>
<path d="M692.78 391.825C692.763 390.385 692.438 388.966 691.826 387.663C691.215 386.359 690.331 385.202 689.235 384.268C686.947 382.221 674.9 377.207 673.699 381.444C672.499 386.006 684.829 395.073 692.78 391.825Z" fill="#3535A2" stroke="#263238" stroke-linecap="round" stroke-linejoin="round"/>
<path d="M692.766 391.825L681.298 384.678" stroke="#263238" stroke-width="0.5" stroke-linecap="round" stroke-linejoin="round"/>
<path d="M691.283 324.696L682.371 315.275" stroke="#263238" stroke-width="2" stroke-linecap="round" stroke-linejoin="round"/>
<path d="M685.083 318.1C685.066 316.649 684.735 315.218 684.113 313.907C683.492 312.595 682.594 311.434 681.481 310.501C679.193 308.453 667.16 303.44 666.016 307.677C664.816 312.281 677.131 321.348 685.083 318.1Z" fill="#3535A2" stroke="#263238" stroke-linecap="round" stroke-linejoin="round"/>
<path d="M685.083 318.1L673.615 310.953" stroke="#263238" stroke-width="0.5" stroke-linecap="round" stroke-linejoin="round"/>
<path d="M693.515 346.135L684.603 336.715" stroke="#263238" stroke-width="2" stroke-linecap="round" stroke-linejoin="round"/>
<path d="M687.314 339.539C687.296 338.098 686.971 336.677 686.359 335.371C685.748 334.066 684.865 332.906 683.769 331.969C681.481 329.921 669.434 324.907 668.233 329.144C667.047 333.72 679.377 342.774 687.314 339.539Z" fill="#3535A2" stroke="#263238" stroke-linecap="round" stroke-linejoin="round"/>
<path d="M687.314 339.539L675.846 332.393" stroke="#263238" stroke-width="0.5" stroke-linecap="round" stroke-linejoin="round"/>
<path d="M687.653 289.881L678.727 280.475" stroke="#263238" stroke-width="2" stroke-linecap="round" stroke-linejoin="round"/>
<path d="M681.481 283.285C681.464 281.846 681.139 280.427 680.527 279.123C679.916 277.82 679.032 276.663 677.936 275.729C675.648 273.681 663.601 268.667 662.4 272.904C661.172 277.466 673.502 286.491 681.481 283.285Z" fill="#3535A2" stroke="#263238" stroke-linecap="round" stroke-linejoin="round"/>
<path d="M681.439 283.285L669.971 276.139" stroke="#263238" stroke-width="0.5" stroke-linecap="round" stroke-linejoin="round"/>
<path d="M683.995 254.925L675.083 245.505" stroke="#263238" stroke-width="2" stroke-linecap="round" stroke-linejoin="round"/>
<path d="M677.795 248.358C677.777 246.916 677.452 245.495 676.84 244.19C676.229 242.884 675.346 241.724 674.25 240.788C671.962 238.74 659.915 233.726 658.714 237.963C657.471 242.511 669.858 251.564 677.795 248.358Z" fill="#3535A2" stroke="#263238" stroke-linecap="round" stroke-linejoin="round"/>
<path d="M677.795 248.33L666.327 241.183" stroke="#263238" stroke-width="0.5" stroke-linecap="round" stroke-linejoin="round"/>
<path d="M695.238 364.312L702.017 353.253" stroke="#263238" stroke-width="2" stroke-linecap="round" stroke-linejoin="round"/>
<path d="M699.955 356.572C699.673 355.161 699.698 353.706 700.026 352.305C700.355 350.904 700.981 349.59 701.862 348.451C703.684 345.98 714.417 338.565 716.409 342.449C718.584 346.7 708.387 358.112 699.955 356.572Z" fill="#3535A2" stroke="#263238" stroke-linecap="round" stroke-linejoin="round"/>
<path d="M699.955 356.586L710.279 346.714" stroke="#263238" stroke-width="0.5" stroke-linecap="round" stroke-linejoin="round"/>
<path d="M689.362 307.917L696.142 296.858" stroke="#263238" stroke-width="2" stroke-linecap="round" stroke-linejoin="round"/>
<path d="M694.066 300.177C693.787 298.766 693.814 297.311 694.142 295.911C694.471 294.51 695.095 293.196 695.972 292.056C697.794 289.584 708.528 282.169 710.534 286.053C712.694 290.305 702.511 301.716 694.066 300.177Z" fill="#3535A2" stroke="#263238" stroke-linecap="round" stroke-linejoin="round"/>
<path d="M694.065 300.177L704.39 290.319" stroke="#263238" stroke-width="0.5" stroke-linecap="round" stroke-linejoin="round"/>
<path d="M686.763 283.13L693.543 272.085" stroke="#263238" stroke-width="2" stroke-linecap="round" stroke-linejoin="round"/>
<path d="M691.481 275.404C691.199 273.991 691.223 272.533 691.552 271.13C691.881 269.727 692.507 268.41 693.388 267.269C695.209 264.797 705.943 257.383 707.935 261.267C710.11 265.518 699.913 276.93 691.481 275.404Z" fill="#3535A2" stroke="#263238" stroke-linecap="round" stroke-linejoin="round"/>
<path d="M691.481 275.404L701.805 265.532" stroke="#263238" stroke-width="0.5" stroke-linecap="round" stroke-linejoin="round"/>
<path d="M682.979 246.804L689.758 235.746" stroke="#263238" stroke-width="2" stroke-linecap="round" stroke-linejoin="round"/>
<path d="M687.696 239.064C687.414 237.651 687.438 236.193 687.767 234.79C688.096 233.387 688.722 232.07 689.602 230.929C691.41 228.458 702.158 221.043 704.15 224.927C706.31 229.192 696.127 240.604 687.696 239.064Z" fill="#3535A2" stroke="#263238" stroke-linecap="round" stroke-linejoin="round"/>
<path d="M687.696 239.065L698.02 229.192" stroke="#263238" stroke-width="0.5" stroke-linecap="round" stroke-linejoin="round"/>
<path d="M680.069 223.571C679.787 222.158 679.811 220.7 680.14 219.297C680.469 217.893 681.095 216.577 681.976 215.436C683.798 212.964 694.531 205.549 696.523 209.433C698.712 213.699 688.543 225.11 680.069 223.571Z" fill="#3535A2" stroke="#263238" stroke-linecap="round" stroke-linejoin="round"/>
<path d="M680.083 223.571L690.407 213.699" stroke="#263238" stroke-width="0.5" stroke-linecap="round" stroke-linejoin="round"/>
<path d="M680.676 223.995C679.242 224.124 677.797 223.945 676.438 223.47C675.079 222.995 673.837 222.235 672.795 221.241C670.522 219.179 664.251 207.71 668.346 206.143C672.81 204.434 683.091 215.761 680.676 223.995Z" fill="#3535A2" stroke="#263238" stroke-linecap="round" stroke-linejoin="round"/>
<path d="M680.676 223.995L671.948 212.696" stroke="#263238" stroke-width="0.5" stroke-linecap="round" stroke-linejoin="round"/>
<path d="M732.114 250.561L715.858 407.219" stroke="#263238" stroke-width="2" stroke-linecap="round" stroke-linejoin="round"/>
<path d="M716.889 403.081L710.096 392.022" stroke="#263238" stroke-width="2" stroke-linecap="round" stroke-linejoin="round"/>
<path d="M712.172 395.342C712.45 393.929 712.422 392.474 712.091 391.073C711.759 389.672 711.132 388.359 710.251 387.221C708.429 384.749 697.695 377.334 695.704 381.218C693.529 385.483 703.726 396.881 712.172 395.342Z" fill="#3535A2" stroke="#263238" stroke-linecap="round" stroke-linejoin="round"/>
<path d="M712.172 395.341L702.413 385.992" stroke="#263238" stroke-width="0.5" stroke-linecap="round" stroke-linejoin="round"/>
<path d="M722.312 350.782L715.519 339.723" stroke="#263238" stroke-width="2" stroke-linecap="round" stroke-linejoin="round"/>
<path d="M717.595 342.985C717.873 341.573 717.846 340.118 717.514 338.717C717.183 337.316 716.556 336.002 715.674 334.864C713.853 332.393 703.119 324.978 701.127 328.862C698.952 333.184 709.149 344.581 717.595 342.985Z" fill="#3535A2" stroke="#263238" stroke-linecap="round" stroke-linejoin="round"/>
<path d="M717.595 343.042L707.85 333.692" stroke="#263238" stroke-width="0.5" stroke-linecap="round" stroke-linejoin="round"/>
<path d="M720.081 372.207L713.302 361.162" stroke="#263238" stroke-width="2" stroke-linecap="round" stroke-linejoin="round"/>
<path d="M715.378 364.482C715.66 363.068 715.636 361.611 715.307 360.207C714.978 358.804 714.352 357.487 713.471 356.346C711.649 353.875 700.901 346.46 698.91 350.358C696.735 354.609 706.904 366.021 715.378 364.482Z" fill="#3535A2" stroke="#263238" stroke-linecap="round" stroke-linejoin="round"/>
<path d="M715.364 364.482L705.619 355.132" stroke="#263238" stroke-width="0.5" stroke-linecap="round" stroke-linejoin="round"/>
<path d="M725.928 315.967L719.135 304.908" stroke="#263238" stroke-width="2" stroke-linecap="round" stroke-linejoin="round"/>
<path d="M721.211 308.228C721.489 306.815 721.461 305.36 721.13 303.959C720.799 302.558 720.171 301.245 719.29 300.106C717.468 297.635 706.734 290.22 704.743 294.104C702.568 298.369 712.765 309.767 721.211 308.228Z" fill="#3535A2" stroke="#263238" stroke-linecap="round" stroke-linejoin="round"/>
<path d="M721.211 308.228L711.452 298.878" stroke="#263238" stroke-width="0.5" stroke-linecap="round" stroke-linejoin="round"/>
<path d="M729.544 280.997L722.765 269.938" stroke="#263238" stroke-width="2" stroke-linecap="round" stroke-linejoin="round"/>
<path d="M724.841 273.258C725.118 271.845 725.09 270.39 724.758 268.989C724.427 267.589 723.8 266.275 722.92 265.137C721.098 262.665 710.364 255.25 708.373 259.134C706.198 263.399 716.395 274.797 724.841 273.258Z" fill="#3535A2" stroke="#263238" stroke-linecap="round" stroke-linejoin="round"/>
<path d="M724.841 273.257L715.081 263.908" stroke="#263238" stroke-width="0.5" stroke-linecap="round" stroke-linejoin="round"/>
<path d="M718.033 390.356L726.931 380.935" stroke="#263238" stroke-width="2" stroke-linecap="round" stroke-linejoin="round"/>
<path d="M724.233 383.76C724.247 382.318 724.57 380.895 725.182 379.589C725.793 378.283 726.679 377.124 727.778 376.19C730.066 374.156 742.099 369.128 743.314 373.365C744.486 377.927 732.171 386.994 724.233 383.76Z" fill="#3535A2" stroke="#263238" stroke-linecap="round" stroke-linejoin="round"/>
<path d="M724.233 383.76L736.365 376.232" stroke="#263238" stroke-width="0.5" stroke-linecap="round" stroke-linejoin="round"/>
<path d="M723.88 333.96L732.792 324.54" stroke="#263238" stroke-width="2" stroke-linecap="round" stroke-linejoin="round"/>
<path d="M730.08 327.365C730.098 325.923 730.424 324.502 731.035 323.197C731.647 321.891 732.53 320.731 733.625 319.795C735.913 317.747 747.947 312.733 749.161 316.97C750.348 321.532 737.975 330.599 730.08 327.365Z" fill="#3535A2" stroke="#263238" stroke-linecap="round" stroke-linejoin="round"/>
<path d="M730.08 327.365L742.212 319.837" stroke="#263238" stroke-width="0.5" stroke-linecap="round" stroke-linejoin="round"/>
<path d="M726.451 309.174L735.363 299.753" stroke="#263238" stroke-width="2" stroke-linecap="round" stroke-linejoin="round"/>
<path d="M732.651 302.578C732.669 301.137 732.995 299.716 733.606 298.41C734.217 297.104 735.1 295.945 736.196 295.008C738.484 292.96 750.531 287.946 751.732 292.183C752.918 296.745 740.589 305.812 732.651 302.578Z" fill="#3535A2" stroke="#263238" stroke-linecap="round" stroke-linejoin="round"/>
<path d="M732.651 302.578L744.783 295.05" stroke="#263238" stroke-width="0.5" stroke-linecap="round" stroke-linejoin="round"/>
<path d="M730.222 272.834L739.134 263.414" stroke="#263238" stroke-width="2" stroke-linecap="round" stroke-linejoin="round"/>
<path d="M736.422 266.238C736.439 264.799 736.765 263.379 737.376 262.076C737.987 260.773 738.871 259.615 739.967 258.682C742.255 256.634 754.302 251.62 755.503 255.857C756.689 260.405 744.359 269.543 736.422 266.238Z" fill="#3535A2" stroke="#263238" stroke-linecap="round" stroke-linejoin="round"/>
<path d="M736.422 266.238L748.554 258.71" stroke="#263238" stroke-width="0.5" stroke-linecap="round" stroke-linejoin="round"/>
<path d="M732.171 249.516C732.189 248.075 732.514 246.653 733.126 245.348C733.737 244.042 734.62 242.883 735.716 241.946C738.004 239.898 750.037 234.884 751.252 239.121C752.424 243.683 740.108 252.75 732.171 249.516Z" fill="#3535A2" stroke="#263238" stroke-linecap="round" stroke-linejoin="round"/>
<path d="M732.171 249.516L744.303 241.974" stroke="#263238" stroke-width="0.5" stroke-linecap="round" stroke-linejoin="round"/>
<path d="M732.665 250.053C731.235 249.884 729.857 249.411 728.624 248.665C727.392 247.92 726.333 246.919 725.519 245.731C723.725 243.245 719.94 230.732 724.276 230.04C728.993 229.291 736.719 242.497 732.665 250.053Z" fill="#3535A2" stroke="#263238" stroke-linecap="round" stroke-linejoin="round"/>
<path d="M732.665 250.053L726.451 237.186" stroke="#263238" stroke-width="0.5" stroke-linecap="round" stroke-linejoin="round"/>
<path d="M709.7 173.828V407.219" stroke="#263238" stroke-width="2" stroke-linecap="round" stroke-linejoin="round"/>
<path d="M709.898 376.303L702.003 366.021" stroke="#263238" stroke-width="2" stroke-linecap="round" stroke-linejoin="round"/>
<path d="M704.404 369.1C704.538 367.667 704.363 366.221 703.89 364.862C703.417 363.502 702.658 362.26 701.664 361.219C699.602 358.945 688.148 352.66 686.566 356.756C684.857 361.219 696.17 371.501 704.404 369.1Z" fill="#3535A2" stroke="#263238" stroke-linecap="round" stroke-linejoin="round"/>
<path d="M704.404 369.1L693.741 360.809" stroke="#263238" stroke-width="0.5" stroke-linecap="round" stroke-linejoin="round"/>
<path d="M709.898 331.517L702.003 321.235" stroke="#263238" stroke-width="2" stroke-linecap="round" stroke-linejoin="round"/>
<path d="M704.404 324.314C704.538 322.881 704.363 321.436 703.89 320.076C703.417 318.717 702.658 317.474 701.664 316.433C699.602 314.159 688.148 307.874 686.566 311.97C684.857 316.433 696.17 326.715 704.404 324.314Z" fill="#3535A2" stroke="#263238" stroke-linecap="round" stroke-linejoin="round"/>
<path d="M704.404 324.314L693.741 316.024" stroke="#263238" stroke-width="0.5" stroke-linecap="round" stroke-linejoin="round"/>
<path d="M709.898 278.949L702.003 268.653" stroke="#263238" stroke-width="2" stroke-linecap="round" stroke-linejoin="round"/>
<path d="M704.404 271.732C704.538 270.299 704.363 268.854 703.89 267.494C703.417 266.134 702.658 264.892 701.664 263.851C699.602 261.577 688.148 255.292 686.566 259.388C684.857 263.894 696.17 274.133 704.404 271.732Z" fill="#3535A2" stroke="#263238" stroke-linecap="round" stroke-linejoin="round"/>
<path d="M704.404 271.732L693.741 263.442" stroke="#263238" stroke-width="0.5" stroke-linecap="round" stroke-linejoin="round"/>
<path d="M709.898 243.937L702.003 233.655" stroke="#263238" stroke-width="2" stroke-linecap="round" stroke-linejoin="round"/>
<path d="M704.404 236.734C704.538 235.301 704.363 233.856 703.89 232.496C703.417 231.136 702.658 229.894 701.664 228.853C699.602 226.579 688.148 220.28 686.566 224.39C684.857 228.853 696.17 239.135 704.404 236.734Z" fill="#3535A2" stroke="#263238" stroke-linecap="round" stroke-linejoin="round"/>
<path d="M704.404 236.734L693.741 228.444" stroke="#263238" stroke-width="0.5" stroke-linecap="round" stroke-linejoin="round"/>
<path d="M709.898 208.784L702.003 198.488" stroke="#263238" stroke-width="2" stroke-linecap="round" stroke-linejoin="round"/>
<path d="M704.404 201.581C704.537 200.145 704.362 198.698 703.889 197.336C703.416 195.975 702.658 194.73 701.664 193.686C699.602 191.426 688.148 185.127 686.566 189.237C684.857 193.686 696.17 203.982 704.404 201.581Z" fill="#3535A2" stroke="#263238" stroke-linecap="round" stroke-linejoin="round"/>
<path d="M704.404 201.581L693.741 193.29" stroke="#263238" stroke-width="0.5" stroke-linecap="round" stroke-linejoin="round"/>
<path d="M709.714 389.988L717.609 379.692" stroke="#263238" stroke-width="2" stroke-linecap="round" stroke-linejoin="round"/>
<path d="M715.209 382.786C715.074 381.35 715.25 379.903 715.722 378.541C716.195 377.179 716.954 375.934 717.949 374.891C720.011 372.617 731.465 366.332 733.047 370.428C734.756 374.891 723.443 385.187 715.209 382.786Z" fill="#3535A2" stroke="#263238" stroke-linecap="round" stroke-linejoin="round"/>
<path d="M715.208 382.785L726.507 374.043" stroke="#263238" stroke-width="0.5" stroke-linecap="round" stroke-linejoin="round"/>
<path d="M709.714 318.749L717.609 308.468" stroke="#263238" stroke-width="2" stroke-linecap="round" stroke-linejoin="round"/>
<path d="M715.208 311.547C715.074 310.113 715.25 308.668 715.722 307.309C716.195 305.949 716.954 304.707 717.948 303.666C720.01 301.392 731.465 295.107 733.046 299.203C734.755 303.666 723.442 313.948 715.208 311.547Z" fill="#3535A2" stroke="#263238" stroke-linecap="round" stroke-linejoin="round"/>
<path d="M715.208 311.546L726.507 302.804" stroke="#263238" stroke-width="0.5" stroke-linecap="round" stroke-linejoin="round"/>
<path d="M709.714 283.596L717.609 273.314" stroke="#263238" stroke-width="2" stroke-linecap="round" stroke-linejoin="round"/>
<path d="M715.208 276.393C715.074 274.96 715.25 273.515 715.722 272.155C716.195 270.795 716.954 269.553 717.948 268.512C720.01 266.238 731.465 259.953 733.046 264.049C734.755 268.512 723.442 278.794 715.208 276.393Z" fill="#3535A2" stroke="#263238" stroke-linecap="round" stroke-linejoin="round"/>
<path d="M715.208 276.393L726.507 267.65" stroke="#263238" stroke-width="0.5" stroke-linecap="round" stroke-linejoin="round"/>
<path d="M709.714 237.13L717.609 226.848" stroke="#263238" stroke-width="2" stroke-linecap="round" stroke-linejoin="round"/>
<path d="M715.208 229.997C715.074 228.564 715.25 227.119 715.722 225.759C716.195 224.4 716.954 223.157 717.948 222.116C720.01 219.842 731.465 213.558 733.046 217.653C734.755 222.046 723.442 232.328 715.208 229.997Z" fill="#3535A2" stroke="#263238" stroke-linecap="round" stroke-linejoin="round"/>
<path d="M715.208 229.927L726.507 221.184" stroke="#263238" stroke-width="0.5" stroke-linecap="round" stroke-linejoin="round"/>
<path d="M709.714 200.606L717.609 190.31" stroke="#263238" stroke-width="2" stroke-linecap="round" stroke-linejoin="round"/>
<path d="M715.209 193.403C715.074 191.968 715.25 190.52 715.722 189.158C716.195 187.796 716.954 186.552 717.949 185.508C720.011 183.234 731.465 176.949 733.047 181.045C734.756 185.508 723.443 195.804 715.209 193.403Z" fill="#3535A2" stroke="#263238" stroke-linecap="round" stroke-linejoin="round"/>
<path d="M715.208 193.403L726.507 184.661" stroke="#263238" stroke-width="0.5" stroke-linecap="round" stroke-linejoin="round"/>
<path d="M709.248 177.203C709.108 175.761 709.28 174.306 709.753 172.936C710.225 171.566 710.988 170.315 711.988 169.266C714.05 166.992 725.504 160.707 727.086 164.803C728.795 169.266 717.482 179.604 709.248 177.203Z" fill="#3535A2" stroke="#263238" stroke-linecap="round" stroke-linejoin="round"/>
<path d="M709.248 177.203L720.547 168.461" stroke="#263238" stroke-width="0.5" stroke-linecap="round" stroke-linejoin="round"/>
<path d="M709.799 177.74C708.358 177.722 706.938 177.395 705.635 176.781C704.331 176.167 703.175 175.28 702.243 174.181C700.195 171.893 695.181 159.846 699.418 158.645C704.079 157.416 713.048 169.746 709.799 177.74Z" fill="#3535A2" stroke="#263238" stroke-linecap="round" stroke-linejoin="round"/>
<path d="M709.799 177.684L702.285 165.537" stroke="#263238" stroke-width="0.5" stroke-linecap="round" stroke-linejoin="round"/>
<path d="M102.417 407.276H764.034" stroke="#263238" stroke-linecap="round" stroke-linejoin="round"/>
<path d="M323.718 407.304L288.791 437.684L335.243 440.48L365.976 409.394L323.718 407.304Z" fill="white" stroke="#263238" stroke-linecap="round" stroke-linejoin="round"/>
<path d="M365.976 409.395L410.691 411.485L382.74 443.969L335.243 440.48L365.976 409.395Z" fill="white" stroke="#263238" stroke-linecap="round" stroke-linejoin="round"/>
<path d="M321.416 416.597L348.166 418.575" stroke="#263238" stroke-linecap="round" stroke-linejoin="round"/>
<path d="M310.004 423.688L343.844 425.651" stroke="#263238" stroke-linecap="round" stroke-linejoin="round"/>
<path d="M304.892 429.591L337.545 431.95" stroke="#263238" stroke-linecap="round" stroke-linejoin="round"/>
<path d="M349.352 433.518L383.192 435.89" stroke="#263238" stroke-linecap="round" stroke-linejoin="round"/>
<path d="M288.791 437.684L288.099 440.48L335.243 443.277V440.48L288.791 437.684Z" fill="#263238" stroke="#263238" stroke-linecap="round" stroke-linejoin="round"/>
<path d="M335.243 441.525V443.277L383.786 446.765L410.338 413.928L409.293 412.191L382.74 443.969L335.243 441.525Z" fill="#263238" stroke="#263238" stroke-linecap="round" stroke-linejoin="round"/>
<path d="M442.822 416.032L415.224 451.652L471.803 454.095L491.011 417.43L442.822 416.032Z" fill="#919191" stroke="#263238" stroke-linecap="round" stroke-linejoin="round"/>
<path d="M414.532 449.562L411.03 453.403L469.36 456.2L471.111 451.652L414.532 449.562Z" fill="#919191" stroke="#263238" stroke-linecap="round" stroke-linejoin="round"/>
<path d="M471.111 451.652L471.803 454.095L491.012 417.43L491.605 419.267L472.128 458.375L469.36 456.2L471.111 451.652Z" fill="#263238" stroke="#263238" stroke-linecap="round" stroke-linejoin="round"/>
<path d="M455.985 427.557L459.883 421.809L453.57 421.597L449.276 427.218L455.985 427.557Z" fill="white" stroke="#263238" stroke-linecap="round" stroke-linejoin="round"/>
<path d="M443.994 429.676L437.413 429.337L435.026 432.26L441.89 432.43L443.994 429.676Z" fill="white" stroke="#263238" stroke-linecap="round" stroke-linejoin="round"/>
<path d="M439.658 439.83L437.328 442.867L445.449 443.149L447.553 440.042L439.658 439.83Z" fill="white" stroke="#263238" stroke-linecap="round" stroke-linejoin="round"/>
<path d="M439.856 435.085L432.837 434.929L431.227 436.893L438.345 437.076L439.856 435.085Z" fill="white" stroke="#263238" stroke-linecap="round" stroke-linejoin="round"/>
<path d="M448.641 443.262L458.287 443.587L460.236 440.381L450.759 440.127L448.641 443.262Z" fill="white" stroke="#263238" stroke-linecap="round" stroke-linejoin="round"/>
<path d="M467.863 433.037L478.95 433.291L479.967 431.469L469.148 430.933L467.863 433.037Z" fill="white" stroke="#263238" stroke-linecap="round" stroke-linejoin="round"/>
<path d="M470.744 428.291L481.45 428.828L484.896 422.628L474.388 422.289L470.744 428.291Z" fill="white" stroke="#263238" stroke-linecap="round" stroke-linejoin="round"/>
<path d="M464.982 437.797L476.266 438.093L477.453 435.975L466.239 435.706L464.982 437.797Z" fill="white" stroke="#263238" stroke-linecap="round" stroke-linejoin="round"/>
<path d="M441.678 437.175L449.361 437.373L450.731 435.339L443.203 435.17L441.678 437.175Z" fill="white" stroke="#263238" stroke-linecap="round" stroke-linejoin="round"/>
<path d="M467.665 428.136L471.281 422.176L463.075 421.908L459.149 427.712L467.665 428.136Z" fill="white" stroke="#263238" stroke-linecap="round" stroke-linejoin="round"/>
<path d="M463.357 440.466L461.394 443.7L472.933 444.082L474.783 440.763L463.357 440.466Z" fill="white" stroke="#263238" stroke-linecap="round" stroke-linejoin="round"/>
<path d="M445.986 427.049L450.237 421.484L444.022 421.286L439.559 426.738L445.986 427.049Z" fill="white" stroke="#263238" stroke-linecap="round" stroke-linejoin="round"/>
<path d="M436.311 439.731L429.066 439.548L426.636 442.5L434.009 442.754L436.311 439.731Z" fill="white" stroke="#263238" stroke-linecap="round" stroke-linejoin="round"/>
<path d="M445.237 432.5L452.525 432.67L454.22 430.184L447.285 429.831L445.237 432.5Z" fill="white" stroke="#263238" stroke-linecap="round" stroke-linejoin="round"/>
<path d="M466.069 430.777L457.383 430.339L455.745 432.754L464.742 432.966L466.069 430.777Z" fill="white" stroke="#263238" stroke-linecap="round" stroke-linejoin="round"/>
<path d="M463.117 435.636L453.937 435.424L452.567 437.458L461.86 437.712L463.117 435.636Z" fill="white" stroke="#263238" stroke-linecap="round" stroke-linejoin="round"/>
<path d="M411.03 453.403L414.66 455.465L472.128 458.375L469.36 456.2L411.03 453.403Z" fill="#263238" stroke="#263238" stroke-linecap="round" stroke-linejoin="round"/>
<path d="M420.535 449.731L423.247 445.889L470.899 447.697L467.736 451.765L420.535 449.731Z" fill="white" stroke="#263238" stroke-linecap="round" stroke-linejoin="round"/>
<path d="M260.939 395.356C272.624 395.356 282.096 392.321 282.096 388.576C282.096 384.832 272.624 381.797 260.939 381.797C249.254 381.797 239.782 384.832 239.782 388.576C239.782 392.321 249.254 395.356 260.939 395.356Z" fill="white" stroke="#263238" stroke-linecap="round" stroke-linejoin="round"/>
<path d="M262.987 363.14L265.812 357.208L267.04 363.578L261.758 413.476C261.732 413.742 261.653 414 261.526 414.235C261.399 414.47 261.227 414.678 261.02 414.846C260.812 415.014 260.573 415.139 260.317 415.214C260.061 415.29 259.792 415.313 259.527 415.284C258.991 415.227 258.5 414.96 258.162 414.542C257.823 414.124 257.663 413.588 257.719 413.052L262.987 363.14Z" fill="white" stroke="#263238" stroke-linecap="round" stroke-linejoin="round"/>
<path d="M257.775 413.052C257.749 413.572 257.923 414.082 258.262 414.477C258.6 414.872 259.077 415.122 259.594 415.176C260.112 415.231 260.63 415.085 261.043 414.768C261.456 414.452 261.732 413.99 261.815 413.476L262.733 404.847L258.693 404.465L257.775 413.052Z" fill="white" stroke="#263238" stroke-linecap="round" stroke-linejoin="round"/>
<path d="M259.512 415.284C259.778 415.313 260.047 415.29 260.303 415.215C260.559 415.139 260.798 415.014 261.006 414.846C261.213 414.678 261.385 414.47 261.512 414.235C261.639 414 261.718 413.742 261.744 413.476L262.422 407.121L258.383 406.655L257.705 413.053C257.649 413.588 257.808 414.124 258.147 414.542C258.486 414.96 258.977 415.227 259.512 415.284Z" fill="white" stroke="#263238" stroke-linecap="round" stroke-linejoin="round"/>
<path d="M262.987 363.14L262.959 363.465L266.998 363.931L267.026 363.578L265.798 357.208L262.987 363.14Z" fill="white" stroke="#263238" stroke-linecap="round" stroke-linejoin="round"/>
<path d="M275.599 367.49L280.034 362.646L279.342 369.1L259.569 415.199C259.355 415.693 258.954 416.083 258.455 416.284C257.955 416.484 257.396 416.481 256.9 416.273C256.406 416.058 256.016 415.658 255.815 415.158C255.614 414.659 255.618 414.1 255.826 413.603L275.599 367.49Z" fill="#263238" stroke="#263238" stroke-linecap="round" stroke-linejoin="round"/>
<path d="M255.784 413.603C255.572 414.1 255.566 414.66 255.768 415.16C255.969 415.661 256.361 416.061 256.857 416.273C257.354 416.484 257.914 416.49 258.414 416.289C258.915 416.088 259.315 415.696 259.527 415.199L262.945 407.234L259.188 405.666L255.784 413.603Z" fill="white" stroke="#263238" stroke-linecap="round" stroke-linejoin="round"/>
<path d="M256.857 416.273C257.354 416.481 257.912 416.485 258.412 416.284C258.912 416.083 259.312 415.693 259.526 415.199L262.012 409.366L258.284 407.728L255.741 413.646C255.549 414.143 255.558 414.695 255.766 415.186C255.975 415.676 256.366 416.066 256.857 416.273Z" fill="white" stroke="#263238" stroke-linecap="round" stroke-linejoin="round"/>
<path d="M275.599 367.49L275.472 367.786L279.201 369.425L279.342 369.1L280.034 362.646L275.599 367.49Z" fill="white" stroke="#263238" stroke-linecap="round" stroke-linejoin="round"/>
<path d="M257.14 411.4L253.072 411.259L254.668 361.106C254.676 360.84 254.735 360.577 254.845 360.334C254.954 360.091 255.11 359.872 255.304 359.689C255.499 359.507 255.727 359.364 255.977 359.271C256.226 359.177 256.492 359.133 256.759 359.143C257.025 359.15 257.287 359.21 257.531 359.319C257.774 359.429 257.993 359.585 258.175 359.779C258.358 359.973 258.5 360.202 258.594 360.452C258.688 360.701 258.731 360.967 258.722 361.233L257.14 411.4Z" fill="#263238" stroke="#263238" stroke-linecap="round" stroke-linejoin="round"/>
<path d="M258.722 361.233C258.698 360.722 258.482 360.238 258.118 359.878C257.753 359.518 257.266 359.31 256.754 359.294C256.242 359.278 255.743 359.455 255.356 359.791C254.969 360.127 254.724 360.597 254.668 361.106L254.386 369.778L258.453 369.863L258.722 361.233Z" fill="white" stroke="#263238" stroke-linecap="round" stroke-linejoin="round"/>
<path d="M256.758 359.143C256.492 359.133 256.226 359.177 255.977 359.271C255.727 359.364 255.499 359.507 255.304 359.689C255.11 359.872 254.954 360.091 254.845 360.334C254.735 360.577 254.675 360.84 254.668 361.106L254.456 367.504L258.524 367.659L258.722 361.233C258.731 360.967 258.688 360.701 258.594 360.452C258.5 360.202 258.358 359.973 258.175 359.779C257.993 359.585 257.774 359.429 257.531 359.319C257.287 359.21 257.025 359.15 256.758 359.143Z" fill="white" stroke="#263238" stroke-linecap="round" stroke-linejoin="round"/>
<path d="M260.939 395.356C249.245 395.356 239.754 392.319 239.754 388.576V436.469C239.754 440.212 249.216 443.249 260.939 443.249C272.662 443.249 282.124 440.212 282.124 436.469V388.576C282.082 392.319 272.619 395.356 260.939 395.356Z" fill="white" stroke="#263238" stroke-linecap="round" stroke-linejoin="round"/>
<g opacity="0.82">
<path opacity="0.46" fill-rule="evenodd" clip-rule="evenodd" d="M742.579 -54.2612C730.981 -54.2612 721.579 -44.8592 721.579 -33.2612V43.3287C721.579 54.9266 730.981 64.3287 742.579 64.3287H819.169C830.766 64.3287 840.169 54.9266 840.169 43.3287V-33.2612C840.169 -44.8592 830.766 -54.2612 819.168 -54.2612H742.579ZM748.402 -39.4375C741.775 -39.4375 736.402 -34.0649 736.402 -27.4374V37.505C736.402 44.1324 741.775 49.505 748.402 49.505H813.345C819.972 49.505 825.345 44.1324 825.345 37.505V-27.4375C825.345 -34.0649 819.972 -39.4375 813.345 -39.4375H748.402Z" fill="#BDD0FB"/>
<g filter="url(#filter0_d_279_1029)">
<path fill-rule="evenodd" clip-rule="evenodd" d="M764.301 16.7754C752.703 16.7754 743.301 26.1774 743.301 37.7754V109.669C743.301 121.267 752.703 130.669 764.301 130.669H836.194C847.792 130.669 857.194 121.267 857.194 109.669V37.7754C857.194 26.1774 847.792 16.7754 836.194 16.7754H764.301ZM769.537 31.012C762.91 31.012 757.537 36.3846 757.537 43.012V104.432C757.537 111.059 762.91 116.432 769.537 116.432H830.957C837.585 116.432 842.957 111.059 842.957 104.432V43.012C842.957 36.3846 837.585 31.012 830.957 31.012H769.537Z" fill="#F2F5FF"/>
</g>
<g filter="url(#filter1_d_279_1029)">
<path fill-rule="evenodd" clip-rule="evenodd" d="M568.803 64.9158C557.205 64.9158 547.803 74.3178 547.803 85.9158V157.809C547.803 169.407 557.205 178.809 568.803 178.809H640.697C652.295 178.809 661.697 169.407 661.697 157.809V85.9158C661.697 74.3178 652.295 64.9158 640.697 64.9158H568.803ZM574.04 79.1524C567.413 79.1524 562.04 84.525 562.04 91.1524V152.572C562.04 159.2 567.413 164.572 574.04 164.572H635.46C642.087 164.572 647.46 159.2 647.46 152.572V91.1524C647.46 84.525 642.087 79.1524 635.46 79.1524H574.04Z" fill="#F2F5FF"/>
</g>
<path fill-rule="evenodd" clip-rule="evenodd" d="M666.258 -46.6292C654.66 -46.6292 645.258 -37.2271 645.258 -25.6291V7.51691C645.258 19.1149 654.66 28.5169 666.258 28.5169H699.404C711.002 28.5169 720.404 19.1149 720.404 7.51691V-25.6292C720.404 -37.2271 711.002 -46.6292 699.404 -46.6292H666.258ZM666.652 -37.2359C660.024 -37.2359 654.652 -31.8633 654.652 -25.2359V7.12364C654.652 13.7511 660.024 19.1236 666.652 19.1236H699.011C705.639 19.1236 711.011 13.751 711.011 7.12363V-25.2359C711.011 -31.8633 705.639 -37.2359 699.011 -37.2359H666.652Z" fill="#BDD0FB"/>
<path opacity="0.46" fill-rule="evenodd" clip-rule="evenodd" d="M650.407 42.6067C638.809 42.6067 629.407 52.0087 629.407 63.6067V96.7528C629.407 108.351 638.809 117.753 650.407 117.753H683.553C695.151 117.753 704.553 108.351 704.553 96.7528V63.6067C704.553 52.0087 695.151 42.6067 683.553 42.6067H650.407ZM650.8 51.9999C644.173 51.9999 638.8 57.3725 638.8 63.9999V96.3595C638.8 102.987 644.173 108.359 650.8 108.359H683.16C689.787 108.359 695.16 102.987 695.16 96.3595V63.9999C695.16 57.3725 689.787 51.9999 683.16 51.9999H650.8Z" fill="#BDD0FB"/>
<path opacity="0.46" fill-rule="evenodd" clip-rule="evenodd" d="M749.037 99.5532C737.439 99.5532 728.037 108.955 728.037 120.553V153.699C728.037 165.297 737.439 174.699 749.037 174.699H782.183C793.781 174.699 803.183 165.297 803.183 153.699V120.553C803.183 108.955 793.781 99.5532 782.183 99.5532H749.037ZM749.43 108.946C742.802 108.946 737.43 114.319 737.43 120.946V153.306C737.43 159.933 742.802 165.306 749.43 165.306H781.789C788.417 165.306 793.789 159.933 793.789 153.306V120.946C793.789 114.319 788.417 108.946 781.789 108.946H749.43Z" fill="#BDD0FB"/>
<path opacity="0.46" fill-rule="evenodd" clip-rule="evenodd" d="M554.713 -50.1516C543.115 -50.1516 533.713 -40.7496 533.713 -29.1516V3.99445C533.713 15.5924 543.115 24.9945 554.713 24.9945H587.859C599.457 24.9945 608.859 15.5924 608.859 3.99445V-29.1516C608.859 -40.7496 599.457 -50.1516 587.859 -50.1516H554.713ZM555.107 -40.7584C548.479 -40.7584 543.107 -35.3858 543.107 -28.7584V3.60117C543.107 10.2286 548.479 15.6012 555.107 15.6012H587.466C594.094 15.6012 599.466 10.2286 599.466 3.60116V-28.7584C599.466 -35.3858 594.094 -40.7584 587.466 -40.7584H555.107Z" fill="#BDD0FB"/>
<path fill-rule="evenodd" clip-rule="evenodd" d="M816.098 2.6853C813.18 2.6853 810.815 5.05089 810.815 7.96901V23.2331H795.551C792.632 23.2331 790.267 25.5987 790.267 28.5168C790.267 31.4349 792.632 33.8005 795.551 33.8005H810.815V49.0645C810.815 51.9826 813.18 54.3482 816.098 54.3482C819.016 54.3482 821.382 51.9826 821.382 49.0645V33.8005H836.646C839.564 33.8005 841.93 31.4349 841.93 28.5168C841.93 25.5987 839.564 23.2331 836.646 23.2331H821.382V7.96901C821.382 5.0509 819.016 2.6853 816.098 2.6853Z" fill="#3535A2"/>
<rect x="779.699" y="80.1797" width="10.5674" height="51.6629" rx="5.28371" transform="rotate(90 779.699 80.1797)" fill="#FEBAB6"/>
<path fill-rule="evenodd" clip-rule="evenodd" d="M616.492 55.5225C616.492 52.6044 614.126 50.2388 611.208 50.2388L570.112 50.2388C567.194 50.2388 564.829 52.6044 564.829 55.5225C564.829 58.4406 567.194 60.8062 570.112 60.8062L611.208 60.8062C614.126 60.8062 616.492 58.4406 616.492 55.5225ZM616.492 74.8961C616.492 71.978 614.126 69.6124 611.208 69.6124H570.112C567.194 69.6124 564.829 71.978 564.829 74.8961C564.829 77.8142 567.194 80.1798 570.112 80.1798H611.208C614.126 80.1798 616.492 77.8142 616.492 74.8961Z" fill="#FEBAB6"/>
<g filter="url(#filter2_d_279_1029)">
<path fill-rule="evenodd" clip-rule="evenodd" d="M585.829 -117.666C574.231 -117.666 564.829 -108.264 564.829 -96.6658V-24.7725C564.829 -13.1745 574.231 -3.77251 585.829 -3.77251H657.722C669.32 -3.77251 678.722 -13.1745 678.722 -24.7725V-96.6658C678.722 -108.264 669.32 -117.666 657.722 -117.666H585.829ZM591.065 -103.429C584.438 -103.429 579.065 -98.0566 579.065 -91.4291V-30.0092C579.065 -23.3818 584.438 -18.0092 591.065 -18.0092H652.485C659.113 -18.0092 664.485 -23.3818 664.485 -30.0092V-91.4291C664.485 -98.0566 659.113 -103.429 652.485 -103.429H591.065Z" fill="#3535A2"/>
</g>
<g filter="url(#filter3_d_279_1029)">
<path fill-rule="evenodd" clip-rule="evenodd" d="M557.062 40.8455C545.464 40.8455 536.062 50.2475 536.062 61.8455V78.5533C536.062 90.1513 545.464 99.5533 557.062 99.5533H573.77C585.368 99.5533 594.77 90.1513 594.77 78.5533V61.8455C594.77 50.2475 585.368 40.8455 573.77 40.8455H557.062ZM555.4 48.1839C548.773 48.1839 543.4 53.5565 543.4 60.1839V80.2148C543.4 86.8422 548.773 92.2148 555.4 92.2148H575.431C582.059 92.2148 587.431 86.8422 587.431 80.2148V60.1839C587.431 53.5565 582.059 48.1839 575.431 48.1839H555.4Z" fill="#3535A2"/>
</g>
<g filter="url(#filter4_d_279_1029)">
<path fill-rule="evenodd" clip-rule="evenodd" d="M469 -19.6235C457.402 -19.6235 448 -10.2215 448 1.37646V32.1742C448 43.7722 457.402 53.1742 469 53.1742H499.798C511.396 53.1742 520.798 43.7722 520.798 32.1742V1.37646C520.798 -10.2215 511.396 -19.6235 499.798 -19.6235H469ZM469.1 -10.5238C462.472 -10.5238 457.1 -5.15124 457.1 1.47618V32.0745C457.1 38.7019 462.472 44.0745 469.1 44.0745H499.698C506.325 44.0745 511.698 38.7019 511.698 32.0745V1.47617C511.698 -5.15125 506.325 -10.5238 499.698 -10.5238H469.1Z" fill="#FEBAB6"/>
</g>
<g filter="url(#filter5_d_279_1029)">
<path fill-rule="evenodd" clip-rule="evenodd" d="M835.337 85.4634C823.739 85.4634 814.337 94.8654 814.337 106.463V116.126C814.337 127.724 823.739 137.126 835.337 137.126H845C856.598 137.126 866 127.724 866 116.126V106.463C866 94.8654 856.598 85.4634 845 85.4634H835.337ZM832.795 91.9213C826.168 91.9213 820.795 97.2939 820.795 103.921V118.668C820.795 125.296 826.168 130.668 832.795 130.668H847.542C854.17 130.668 859.542 125.296 859.542 118.668V103.921C859.542 97.2939 854.17 91.9213 847.542 91.9213H832.795Z" fill="#3535A2"/>
</g>
<path fill-rule="evenodd" clip-rule="evenodd" d="M533.714 -9.05613C530.795 -9.05613 528.43 -6.69054 528.43 -3.77243V11.4916H513.166C510.248 11.4916 507.882 13.8572 507.882 16.7753C507.882 19.6934 510.248 22.059 513.166 22.059H528.43V37.3231C528.43 40.2412 530.795 42.6068 533.714 42.6068C536.632 42.6068 538.997 40.2412 538.997 37.3231V22.059H554.261C557.179 22.059 559.545 19.6934 559.545 16.7753C559.545 13.8572 557.179 11.4916 554.261 11.4916H538.997V-3.77243C538.997 -6.69054 536.632 -9.05613 533.714 -9.05613Z" fill="#BDD0FB"/>
</g>
<path d="M474.035 330.924C471.493 353.832 469.925 386.005 469.798 407.332H609.282C609.141 385.949 607.573 353.832 605.045 330.924C602.39 306.984 609.833 298.44 614.621 270.277C619.409 242.115 616.753 181.949 612.502 176.087C610.567 173.432 606.005 172.641 601.585 172.571C598.399 183.359 592.271 193.048 583.888 200.549C561.728 220.421 520.727 226.141 492.085 199.024C484.538 191.895 479.261 182.698 476.916 172.585C472.679 172.712 468.442 173.545 466.55 176.087C462.312 181.949 459.629 242.072 464.417 270.277C469.205 298.482 476.69 306.984 474.035 330.924Z" fill="#636262" stroke="#263238" stroke-linecap="round" stroke-linejoin="round"/>
<path d="M598.152 138.307C602.969 163.263 596.02 184.604 580.583 198.445C560.104 216.806 522.182 222.088 495.771 197.033C469.36 171.978 482.636 131.415 492.791 131.415C502.946 131.415 596.401 129.395 598.152 138.307Z" fill="#636262" stroke="#263238" stroke-linecap="round" stroke-linejoin="round"/>
<path d="M457.454 406.033C457.454 406.033 442.892 407.728 440.858 407.728C438.825 407.728 437.808 410.1 440.519 412.473C443.231 414.846 452.383 413.49 452.383 413.49L457.454 406.033Z" fill="white" stroke="#263238" stroke-linecap="round" stroke-linejoin="round"/>
<path d="M455.985 218.698V233.994C455.985 233.994 430.252 247.087 419.405 251.154C408.558 255.222 400.889 258.837 399.533 265.151C398.177 271.464 385.085 330.204 384.181 337.421C383.277 344.638 376.498 351.431 376.498 355.485C376.385 357.485 376.693 359.486 377.402 361.36C377.402 361.36 380.565 376.26 391.398 382.136C402.231 388.011 411.27 380.723 416.241 376.712C421.213 372.701 426.128 362.264 426.128 362.264C426.128 362.264 422.512 397.05 422.06 400.2C421.773 402.448 421.622 404.712 421.608 406.979H551.234C550.975 379.974 552.333 352.978 555.302 326.136C557.081 309.513 553.889 257.481 548.974 249.869C544.059 242.256 530.91 238.132 519.626 234.969C508.341 231.805 493.878 229.093 493.878 229.093L493.427 223.218L455.985 218.698Z" fill="#BDD0FB" stroke="#263238" stroke-linecap="round" stroke-linejoin="round"/>
<path d="M417.046 307.027L415.337 296.618" stroke="#263238" stroke-linecap="round" stroke-linejoin="round"/>
<path d="M426.184 362.561L418.12 313.524" stroke="#263238" stroke-linecap="round" stroke-linejoin="round"/>
<path d="M473.611 270.87C504.683 274.754 536.913 245.731 540.952 243.075C534.851 239.615 526.899 237.214 519.682 235.194C508.383 232.031 493.935 229.319 493.935 229.319L493.483 223.444L455.985 218.938V234.234C455.985 234.234 439.037 242.849 426.876 248.273C439.453 260.871 455.927 268.836 473.611 270.87Z" fill="white" stroke="#263238" stroke-linecap="round" stroke-linejoin="round"/>
<path d="M455.985 234.234C455.566 240.442 454.816 246.622 453.739 252.75" stroke="#263238" stroke-linecap="round" stroke-linejoin="round"/>
<path d="M493.935 229.319C493.935 229.319 494.839 242.412 496.195 246.931" stroke="#263238" stroke-linecap="round" stroke-linejoin="round"/>
<path d="M506.844 120.78C498.539 116.034 481.238 112.616 471.874 114.551C461.889 116.599 448.796 120.921 438.486 129.946C419.179 146.894 426.297 172.641 427.992 175L429.687 177.373C428.881 183.89 427.635 190.345 425.958 196.694C422.908 208.882 437.808 220.704 456.098 224.122C474.388 227.539 503.864 224.799 523.171 219.051C542.478 213.303 545.895 198.035 539.102 175.339C532.309 152.642 524.979 132.093 513.807 124.988C511.307 123.392 508.977 121.994 506.844 120.78Z" fill="#3535A2" stroke="#263238" stroke-linecap="round" stroke-linejoin="round"/>
<path d="M470.49 141.781C471.878 141.429 473.297 141.211 474.727 141.132" stroke="#263238" stroke-linecap="round" stroke-linejoin="round"/>
<path d="M434.079 176.017C434.079 176.017 429.348 174.336 431.368 167.543C433.02 162.034 451.437 148.49 465.73 143.236" stroke="#263238" stroke-linecap="round" stroke-linejoin="round"/>
<path d="M466.507 129.96C468.06 129.791 469.67 129.678 471.351 129.621" stroke="#263238" stroke-linecap="round" stroke-linejoin="round"/>
<path d="M427.258 162.204C427.258 162.204 432.611 136.273 462.101 130.695" stroke="#263238" stroke-linecap="round" stroke-linejoin="round"/>
<path d="M484.698 124.466C482.043 129.381 478.879 136.047 478.117 141.132" stroke="#263238" stroke-linecap="round" stroke-linejoin="round"/>
<path d="M488.624 117.757C488.624 117.757 488.215 118.393 487.551 119.495" stroke="#263238" stroke-linecap="round" stroke-linejoin="round"/>
<path d="M507.281 136.146C517.878 145.927 525.996 158.088 530.967 171.625" stroke="#263238" stroke-linecap="round" stroke-linejoin="round"/>
<path d="M496.082 127.926C499.026 129.557 501.803 131.473 504.372 133.646" stroke="#263238" stroke-linecap="round" stroke-linejoin="round"/>
<path d="M535.811 206.283C533.13 210.999 528.717 214.484 523.51 216" stroke="#263238" stroke-linecap="round" stroke-linejoin="round"/>
<path d="M508.27 150.623C508.27 150.623 539.102 180.084 538.424 196.355C538.354 198.216 538.075 200.064 537.591 201.863" stroke="#263238" stroke-linecap="round" stroke-linejoin="round"/>
<path d="M514.033 193.276C514.033 193.276 523.51 198.685 519.456 208.515C515.403 218.345 508.948 215.577 508.948 215.577" stroke="#263238" stroke-linecap="round" stroke-linejoin="round"/>
<path d="M477.17 147.544C469.565 155.213 460.933 161.792 451.522 167.091L435.237 176.455C435.237 176.455 445.011 212.681 449.488 219.602C453.965 226.523 461.691 236.691 472.693 236.691C483.695 236.691 499.965 220.817 500.771 217.978C501.576 215.139 505.248 200.465 505.248 200.465C507.084 199.305 508.508 197.595 509.315 195.578C509.852 193.31 510.126 190.988 510.134 188.657C510.134 188.657 491.774 171.158 485.305 163.419C481.413 158.82 478.629 153.389 477.17 147.544Z" fill="white" stroke="#263238" stroke-linecap="round" stroke-linejoin="round"/>
<path d="M463.979 184.9L436.848 183.093C436.609 183.075 436.37 183.113 436.148 183.203C435.927 183.293 435.729 183.433 435.57 183.612C435.412 183.791 435.297 184.004 435.234 184.235C435.172 184.466 435.163 184.708 435.209 184.943C436.028 189.053 438.119 198.275 440.943 200.479C444.616 203.303 455.448 202.866 457.652 202.866C462.327 202.866 465.052 190.225 465.349 188.813C465.355 188.723 465.355 188.634 465.349 188.544V186.51C465.363 186.12 465.23 185.738 464.976 185.44C464.723 185.142 464.367 184.95 463.979 184.9Z" stroke="#263238" stroke-width="2" stroke-linecap="round" stroke-linejoin="round"/>
<path d="M472.453 185.677L499.641 186.412C499.877 186.421 500.107 186.484 500.315 186.596C500.522 186.708 500.701 186.867 500.838 187.059C500.974 187.252 501.065 187.473 501.102 187.706C501.139 187.939 501.123 188.178 501.053 188.403C499.867 192.414 496.915 201.397 493.893 203.318C489.98 205.817 479.232 204.334 477.043 204.137C472.383 203.699 470.843 190.861 470.688 189.42C470.673 189.331 470.673 189.241 470.688 189.152L470.829 187.132C470.84 186.93 470.89 186.732 470.978 186.549C471.065 186.366 471.188 186.203 471.339 186.068C471.49 185.932 471.666 185.828 471.857 185.761C472.048 185.694 472.251 185.666 472.453 185.677Z" stroke="#263238" stroke-width="2" stroke-linecap="round" stroke-linejoin="round"/>
<path d="M463.965 184.9L472.439 185.677" stroke="#263238" stroke-width="2" stroke-linecap="round" stroke-linejoin="round"/>
<path d="M465.9 188.106L470.716 188.262" stroke="#263238" stroke-width="2" stroke-linecap="round" stroke-linejoin="round"/>
<path d="M501.392 187.358L505.756 184.505" stroke="#263238" stroke-width="2" stroke-linecap="round" stroke-linejoin="round"/>
<path d="M485.164 191.722C485.164 193.629 484.288 195.182 483.215 195.182C482.142 195.182 481.252 193.629 481.252 191.722C481.252 189.815 482.128 188.262 483.215 188.262C484.303 188.262 485.164 189.801 485.164 191.722Z" fill="#263238"/>
<path d="M455.378 190.96C455.378 192.88 454.502 194.42 453.428 194.42C452.355 194.42 451.465 192.88 451.465 190.96C451.465 189.039 452.341 187.513 453.428 187.513C454.516 187.513 455.378 189.039 455.378 190.96Z" fill="#263238"/>
<path d="M465.25 193.191C465.25 193.191 461.86 206.736 461.408 208.317C460.956 209.899 463.442 211.481 467.962 209.899" stroke="#263238" stroke-linecap="round" stroke-linejoin="round"/>
<path d="M461.408 217.356C461.408 217.356 469.544 219.376 475.871 216.904" stroke="#263238" stroke-linecap="round" stroke-linejoin="round"/>
<path d="M475.871 183.248C475.871 183.248 480.376 178.051 494.613 183.022" stroke="#263238" stroke-linecap="round" stroke-linejoin="round"/>
<path d="M462.086 182.118C462.086 182.118 453.739 175.565 444.248 180.706" stroke="#263238" stroke-linecap="round" stroke-linejoin="round"/>
<path d="M531.574 284.274C531.574 284.274 531.094 338.31 530.162 349.016C529.23 359.721 531.574 369.043 542.082 374.636C552.59 380.229 565.937 379.763 570.23 378.365C574.524 376.966 589.791 369.043 587.885 356.939C585.978 344.835 573.097 304.301 567.363 285.206C561.629 266.111 560.683 257.255 553.042 251.182C545.401 245.109 543.071 243.471 536.39 248.131" fill="#BDD0FB"/>
<path d="M531.574 284.274C531.574 284.274 531.094 338.31 530.162 349.016C529.23 359.721 531.574 369.043 542.082 374.636C552.59 380.229 565.937 379.763 570.23 378.365C574.524 376.966 589.791 369.043 587.885 356.939C585.978 344.835 573.097 304.301 567.363 285.206C561.629 266.111 560.683 257.255 553.042 251.182C545.401 245.109 543.071 243.471 536.39 248.131" stroke="#263238" stroke-linecap="round" stroke-linejoin="round"/>
<path d="M364.295 400.044L370.17 391.471C370.17 391.471 386.441 386.5 392.768 382.884C399.095 379.269 403.163 368.888 396.836 362.109C390.508 355.329 380.127 353.084 372.896 358.493C365.665 363.902 363.01 373.859 358.9 376.557C354.79 379.254 338.124 383.336 333.604 384.24C329.085 385.144 327.277 388.76 328.181 391.923C329.085 395.087 332.249 407.728 334.508 409.535C336.768 411.343 344.395 416.767 349.861 416.767C355.326 416.767 360.708 410.439 362.572 409.987C364.436 409.535 369.266 405.016 364.295 400.044Z" fill="white" stroke="#263238" stroke-linecap="round" stroke-linejoin="round"/>
<path d="M353.575 385.582C353.575 385.582 351.442 405.482 352.163 406.245C352.962 406.839 353.883 407.251 354.859 407.451C355.835 407.651 356.843 407.635 357.812 407.403C360.128 406.824 363.207 391.768 363.207 388.675C362.97 386.178 362.25 383.751 361.089 381.528" stroke="#263238" stroke-linecap="round" stroke-linejoin="round"/>
<path d="M340.045 387.121C340.045 387.121 346.612 398.914 349.126 400.652L351.64 402.389" stroke="#263238" stroke-linecap="round" stroke-linejoin="round"/>
<path d="M332.898 393.505C332.898 393.505 339.466 405.666 342.785 407.219C346.104 408.773 353.604 411.654 361.146 411.075" stroke="#263238" stroke-linecap="round" stroke-linejoin="round"/>
<path d="M341.104 368.111L349.14 400.595L351.457 401.358L351.852 397.883L344.974 367.136C344.907 366.875 344.788 366.63 344.624 366.416C344.46 366.202 344.255 366.024 344.019 365.892C343.784 365.76 343.525 365.677 343.257 365.648C342.989 365.619 342.718 365.645 342.46 365.724C341.971 365.872 341.557 366.202 341.305 366.647C341.053 367.091 340.981 367.615 341.104 368.111Z" fill="#263238" stroke="#263238" stroke-linecap="round" stroke-linejoin="round"/>
<path d="M338.124 411.852C338.124 411.852 346.598 414.747 348.745 415.128C351.467 415.599 354.265 415.336 356.852 414.366" stroke="#263238" stroke-linecap="round" stroke-linejoin="round"/>
<path d="M364.295 400.044C363.899 400.688 363.356 401.229 362.71 401.622C362.064 402.015 361.334 402.249 360.58 402.304" stroke="#263238" stroke-linecap="round" stroke-linejoin="round"/>
<path d="M538.833 361.346C538.833 361.346 489.401 393.83 486.661 395.242C483.921 396.655 456.846 404.041 452.765 406.414C448.683 408.787 445.985 418.956 444.291 422.331C442.596 425.707 440.901 435.212 440.901 435.212C441.507 435.842 442.251 436.324 443.074 436.618C443.898 436.912 444.778 437.011 445.646 436.907C448.697 436.568 452.087 423.687 452.087 423.687L458.852 413.871C458.852 413.871 454.445 423.687 454.445 426.06C454.445 428.433 452.765 434.873 452.765 435.946C452.765 437.02 454.784 438.319 457.496 436.963C460.208 435.607 462.242 425.438 462.242 425.438L468.004 415.962C468.004 415.962 463.597 429.167 462.242 431.879C460.886 434.591 460.547 435.607 464.275 435.268C468.004 434.929 468.343 430.862 469.36 428.207C470.377 425.551 472.749 420.425 472.749 420.425L479.515 415.679C479.515 415.679 475.122 425.156 473.766 427.529C472.41 429.901 471.055 430.579 475.8 430.579C480.546 430.579 483.582 420.086 483.582 420.086C485.345 418.818 487.042 417.46 488.667 416.018C490.079 414.606 495.107 406.866 495.107 406.866C495.107 406.866 555.4 386.542 562.519 383.153C569.637 379.763 570.301 374.678 567.589 370.286C564.877 365.894 552.957 355.555 538.833 361.346Z" fill="white" stroke="#263238" stroke-linecap="round" stroke-linejoin="round"/>
<path d="M543.834 463.318L500.164 426.879H578.041L543.834 463.318Z" fill="white" stroke="#263238" stroke-linecap="round" stroke-linejoin="round"/>
<path d="M545.67 458.912L527.945 442.924H556.093L545.67 458.912Z" fill="#263238" stroke="#263238" stroke-linecap="round" stroke-linejoin="round"/>
<path d="M675.903 463.318H543.833L563.974 379.523H696.043L675.903 463.318Z" fill="white" stroke="#263238" stroke-linecap="round" stroke-linejoin="round"/>
<path d="M685.493 423.49C661.016 427.374 637.473 441.85 608.562 450.324C587.55 456.443 565.963 460.377 544.144 462.061L543.833 463.361H675.903L685.493 423.49Z" fill="#263238" stroke="#263238" stroke-linecap="round" stroke-linejoin="round"/>
<path d="M623.264 429.591C628.373 429.591 632.515 426.423 632.515 422.515C632.515 418.607 628.373 415.439 623.264 415.439C618.155 415.439 614.013 418.607 614.013 422.515C614.013 426.423 618.155 429.591 623.264 429.591Z" fill="white" stroke="#263238" stroke-linecap="round" stroke-linejoin="round"/>
<defs>
<filter id="filter0_d_279_1029" x="733.301" y="8.77539" width="143.893" height="143.893" filterUnits="userSpaceOnUse" color-interpolation-filters="sRGB">
<feFlood flood-opacity="0" result="BackgroundImageFix"/>
<feColorMatrix in="SourceAlpha" type="matrix" values="0 0 0 0 0 0 0 0 0 0 0 0 0 0 0 0 0 0 127 0" result="hardAlpha"/>
<feOffset dx="5" dy="7"/>
<feGaussianBlur stdDeviation="7.5"/>
<feComposite in2="hardAlpha" operator="out"/>
<feColorMatrix type="matrix" values="0 0 0 0 0.741176 0 0 0 0 0.815686 0 0 0 0 0.984314 0 0 0 0.55 0"/>
<feBlend mode="normal" in2="BackgroundImageFix" result="effect1_dropShadow_279_1029"/>
<feBlend mode="normal" in="SourceGraphic" in2="effect1_dropShadow_279_1029" result="shape"/>
</filter>
<filter id="filter1_d_279_1029" x="537.803" y="56.9158" width="143.893" height="143.893" filterUnits="userSpaceOnUse" color-interpolation-filters="sRGB">
<feFlood flood-opacity="0" result="BackgroundImageFix"/>
<feColorMatrix in="SourceAlpha" type="matrix" values="0 0 0 0 0 0 0 0 0 0 0 0 0 0 0 0 0 0 127 0" result="hardAlpha"/>
<feOffset dx="5" dy="7"/>
<feGaussianBlur stdDeviation="7.5"/>
<feComposite in2="hardAlpha" operator="out"/>
<feColorMatrix type="matrix" values="0 0 0 0 0.741176 0 0 0 0 0.815686 0 0 0 0 0.984314 0 0 0 0.55 0"/>
<feBlend mode="normal" in2="BackgroundImageFix" result="effect1_dropShadow_279_1029"/>
<feBlend mode="normal" in="SourceGraphic" in2="effect1_dropShadow_279_1029" result="shape"/>
</filter>
<filter id="filter2_d_279_1029" x="554.829" y="-125.666" width="143.893" height="143.893" filterUnits="userSpaceOnUse" color-interpolation-filters="sRGB">
<feFlood flood-opacity="0" result="BackgroundImageFix"/>
<feColorMatrix in="SourceAlpha" type="matrix" values="0 0 0 0 0 0 0 0 0 0 0 0 0 0 0 0 0 0 127 0" result="hardAlpha"/>
<feOffset dx="5" dy="7"/>
<feGaussianBlur stdDeviation="7.5"/>
<feComposite in2="hardAlpha" operator="out"/>
<feColorMatrix type="matrix" values="0 0 0 0 0.741176 0 0 0 0 0.815686 0 0 0 0 0.984314 0 0 0 0.55 0"/>
<feBlend mode="normal" in2="BackgroundImageFix" result="effect1_dropShadow_279_1029"/>
<feBlend mode="normal" in="SourceGraphic" in2="effect1_dropShadow_279_1029" result="shape"/>
</filter>
<filter id="filter3_d_279_1029" x="526.062" y="32.8455" width="88.7078" height="88.7078" filterUnits="userSpaceOnUse" color-interpolation-filters="sRGB">
<feFlood flood-opacity="0" result="BackgroundImageFix"/>
<feColorMatrix in="SourceAlpha" type="matrix" values="0 0 0 0 0 0 0 0 0 0 0 0 0 0 0 0 0 0 127 0" result="hardAlpha"/>
<feOffset dx="5" dy="7"/>
<feGaussianBlur stdDeviation="7.5"/>
<feComposite in2="hardAlpha" operator="out"/>
<feColorMatrix type="matrix" values="0 0 0 0 0.741176 0 0 0 0 0.815686 0 0 0 0 0.984314 0 0 0 0.55 0"/>
<feBlend mode="normal" in2="BackgroundImageFix" result="effect1_dropShadow_279_1029"/>
<feBlend mode="normal" in="SourceGraphic" in2="effect1_dropShadow_279_1029" result="shape"/>
</filter>
<filter id="filter4_d_279_1029" x="438" y="-27.6235" width="102.798" height="102.798" filterUnits="userSpaceOnUse" color-interpolation-filters="sRGB">
<feFlood flood-opacity="0" result="BackgroundImageFix"/>
<feColorMatrix in="SourceAlpha" type="matrix" values="0 0 0 0 0 0 0 0 0 0 0 0 0 0 0 0 0 0 127 0" result="hardAlpha"/>
<feOffset dx="5" dy="7"/>
<feGaussianBlur stdDeviation="7.5"/>
<feComposite in2="hardAlpha" operator="out"/>
<feColorMatrix type="matrix" values="0 0 0 0 0.741176 0 0 0 0 0.815686 0 0 0 0 0.984314 0 0 0 0.55 0"/>
<feBlend mode="normal" in2="BackgroundImageFix" result="effect1_dropShadow_279_1029"/>
<feBlend mode="normal" in="SourceGraphic" in2="effect1_dropShadow_279_1029" result="shape"/>
</filter>
<filter id="filter5_d_279_1029" x="804.337" y="77.4634" width="81.6628" height="81.6628" filterUnits="userSpaceOnUse" color-interpolation-filters="sRGB">
<feFlood flood-opacity="0" result="BackgroundImageFix"/>
<feColorMatrix in="SourceAlpha" type="matrix" values="0 0 0 0 0 0 0 0 0 0 0 0 0 0 0 0 0 0 127 0" result="hardAlpha"/>
<feOffset dx="5" dy="7"/>
<feGaussianBlur stdDeviation="7.5"/>
<feComposite in2="hardAlpha" operator="out"/>
<feColorMatrix type="matrix" values="0 0 0 0 0.741176 0 0 0 0 0.815686 0 0 0 0 0.984314 0 0 0 0.55 0"/>
<feBlend mode="normal" in2="BackgroundImageFix" result="effect1_dropShadow_279_1029"/>
<feBlend mode="normal" in="SourceGraphic" in2="effect1_dropShadow_279_1029" result="shape"/>
</filter>
</defs>
</svg>
