<svg width="183" height="332" viewBox="0 0 183 332" fill="none" xmlns="http://www.w3.org/2000/svg">
<path d="M144.916 8.42137L15.2475 77.4891C13.2398 78.5557 11.4844 80.0256 10.0938 81.8046C8.70329 83.5835 7.70838 85.6321 7.17297 87.8189C6.42739 90.0432 6.18305 92.4044 6.45688 94.7391C6.73071 97.0738 7.51615 99.3263 8.75886 101.341L44.2852 158.901L132.166 317.077C134.077 320.517 137.292 323.08 141.103 324.203C144.914 325.325 149.01 324.914 152.488 323.062L279.367 255.48C282.918 253.39 285.531 250.059 286.691 246.144C287.85 242.229 287.471 238.016 285.628 234.338L197.757 76.1791L167.705 15.7035C166.72 13.7216 165.339 11.9534 163.645 10.5056C161.952 9.05787 159.981 7.96058 157.851 7.28C155.721 6.59942 153.477 6.34967 151.253 6.54584C149.03 6.74201 146.874 7.38003 144.916 8.42137Z" stroke="#3535A2" stroke-linecap="round" stroke-linejoin="round"/>
<path d="M27.8723 99.8589L51.8365 143.015L180.81 74.2814L156.846 31.1254L27.8723 99.8589ZM170.944 71.3745L54.7056 133.321L37.7335 102.757L153.972 40.8104L170.944 71.3745Z" fill="#3535A2" stroke="#3535A2" stroke-linecap="round" stroke-linejoin="round"/>
<path d="M126.089 134.738L69.7184 164.784C67.3105 166.067 66.431 169.039 67.7539 171.422L73.4556 181.691C74.7786 184.074 77.803 184.965 80.2109 183.682L136.582 153.636C138.99 152.353 139.869 149.381 138.546 146.998L132.844 136.728C131.521 134.345 128.497 133.454 126.089 134.738Z" stroke="#3535A2" stroke-linecap="round" stroke-linejoin="round"/>
<path d="M79.1912 160.142L89.4699 178.695" stroke="#3535A2" stroke-linecap="round" stroke-linejoin="round"/>
<path d="M92.3325 153.123L102.611 171.676" stroke="#3535A2" stroke-linecap="round" stroke-linejoin="round"/>
<path d="M105.474 146.103L115.753 164.656" stroke="#3535A2" stroke-linecap="round" stroke-linejoin="round"/>
<path d="M118.624 139.079L128.903 157.632" stroke="#3535A2" stroke-linecap="round" stroke-linejoin="round"/>
<path d="M172.504 123.341L156.278 131.984C154.371 132.999 153.675 135.351 154.722 137.236L159.156 145.216C160.203 147.101 162.598 147.806 164.505 146.791L180.731 138.148C182.638 137.133 183.334 134.781 182.286 132.896L177.853 124.916C176.805 123.031 174.411 122.325 172.504 123.341Z" fill="#3535A2" stroke="#3535A2" stroke-linecap="round" stroke-linejoin="round"/>
<path d="M102.418 187.14L86.1973 195.779C84.2914 196.794 83.5952 199.145 84.6424 201.03L90.5326 211.63C91.5797 213.515 93.9736 214.22 95.8795 213.205L112.101 204.565C114.007 203.55 114.703 201.2 113.656 199.315L107.765 188.714C106.718 186.83 104.324 186.125 102.418 187.14Z" fill="#3535A2" stroke="#3535A2" stroke-linecap="round" stroke-linejoin="round"/>
<path d="M129.597 172.623L113.376 181.262C111.47 182.277 110.774 184.628 111.821 186.512L117.712 197.113C118.759 198.998 121.153 199.703 123.058 198.688L139.28 190.048C141.185 189.033 141.882 186.683 140.835 184.798L134.944 174.197C133.897 172.313 131.503 171.608 129.597 172.623Z" fill="#3535A2" stroke="#3535A2" stroke-linecap="round" stroke-linejoin="round"/>
<path d="M156.776 158.106L140.555 166.745C138.649 167.76 137.953 170.111 139 171.995L144.89 182.596C145.938 184.481 148.331 185.186 150.237 184.171L166.458 175.531C168.364 174.516 169.06 172.165 168.013 170.281L162.123 159.68C161.076 157.795 158.682 157.091 156.776 158.106Z" fill="#3535A2" stroke="#3535A2" stroke-linecap="round" stroke-linejoin="round"/>
<path d="M183.955 143.589L167.734 152.228C165.828 153.243 165.132 155.594 166.179 157.478L172.069 168.079C173.116 169.964 175.51 170.669 177.416 169.654L193.637 161.014C195.543 159.999 196.239 157.649 195.192 155.764L189.302 145.163C188.255 143.278 185.861 142.574 183.955 143.589Z" fill="#3535A2" stroke="#3535A2" stroke-linecap="round" stroke-linejoin="round"/>
<path d="M115.34 210.463L99.1185 219.102C97.2126 220.117 96.5165 222.468 97.5636 224.352L103.454 234.953C104.501 236.838 106.895 237.543 108.801 236.528L125.022 227.888C126.928 226.873 127.624 224.522 126.577 222.638L120.687 212.037C119.639 210.152 117.246 209.448 115.34 210.463Z" fill="#3535A2" stroke="#3535A2" stroke-linecap="round" stroke-linejoin="round"/>
<path d="M142.519 195.945L126.297 204.585C124.392 205.6 123.695 207.951 124.743 209.835L130.633 220.436C131.68 222.321 134.074 223.026 135.98 222.01L152.201 213.371C154.107 212.356 154.803 210.005 153.756 208.121L147.866 197.52C146.818 195.635 144.425 194.93 142.519 195.945Z" fill="#3535A2" stroke="#3535A2" stroke-linecap="round" stroke-linejoin="round"/>
<path d="M169.697 181.428L153.476 190.068C151.57 191.083 150.874 193.433 151.921 195.318L157.812 205.919C158.859 207.803 161.253 208.508 163.159 207.493L179.38 198.854C181.286 197.839 181.982 195.488 180.935 193.604L175.044 183.003C173.997 181.118 171.603 180.413 169.697 181.428Z" fill="#3535A2" stroke="#3535A2" stroke-linecap="round" stroke-linejoin="round"/>
<path d="M196.876 166.911L180.655 175.551C178.749 176.566 178.053 178.916 179.1 180.801L184.99 191.402C186.038 193.287 188.432 193.991 190.337 192.976L206.559 184.337C208.464 183.322 209.161 180.971 208.113 179.087L202.223 168.486C201.176 166.601 198.782 165.896 196.876 166.911Z" fill="#3535A2" stroke="#3535A2" stroke-linecap="round" stroke-linejoin="round"/>
<path d="M128.266 233.794L112.045 242.433C110.139 243.448 109.443 245.799 110.49 247.683L116.38 258.284C117.427 260.169 119.821 260.874 121.727 259.859L137.948 251.219C139.854 250.204 140.55 247.854 139.503 245.969L133.613 235.368C132.566 233.484 130.172 232.779 128.266 233.794Z" fill="#3535A2" stroke="#3535A2" stroke-linecap="round" stroke-linejoin="round"/>
<path d="M155.445 219.277L139.224 227.916C137.318 228.931 136.621 231.282 137.669 233.167L143.559 243.767C144.606 245.652 147 246.357 148.906 245.342L165.127 236.702C167.033 235.687 167.729 233.337 166.682 231.452L160.792 220.851C159.744 218.967 157.351 218.262 155.445 219.277Z" fill="#3535A2" stroke="#3535A2" stroke-linecap="round" stroke-linejoin="round"/>
<path d="M182.623 204.76L166.402 213.399C164.496 214.414 163.8 216.765 164.847 218.649L170.738 229.25C171.785 231.135 174.179 231.84 176.085 230.825L192.306 222.185C194.212 221.17 194.908 218.82 193.861 216.935L187.97 206.334C186.923 204.45 184.529 203.745 182.623 204.76Z" fill="#3535A2" stroke="#3535A2" stroke-linecap="round" stroke-linejoin="round"/>
<path d="M141.192 257.125L124.971 265.764C123.065 266.78 122.369 269.13 123.416 271.015L129.306 281.616C130.353 283.5 132.747 284.205 134.653 283.19L150.874 274.551C152.78 273.536 153.476 271.185 152.429 269.3L146.539 258.699C145.492 256.815 143.098 256.11 141.192 257.125Z" fill="#3535A2" stroke="#3535A2" stroke-linecap="round" stroke-linejoin="round"/>
<path d="M168.371 242.608L152.15 251.247C150.244 252.262 149.547 254.613 150.595 256.498L156.485 267.099C157.532 268.983 159.926 269.688 161.832 268.673L178.053 260.034C179.959 259.018 180.655 256.668 179.608 254.783L173.718 244.182C172.67 242.298 170.277 241.593 168.371 242.608Z" fill="#3535A2" stroke="#3535A2" stroke-linecap="round" stroke-linejoin="round"/>
<path d="M195.549 228.091L179.328 236.73C177.422 237.745 176.726 240.096 177.773 241.981L183.664 252.581C184.711 254.466 187.105 255.171 189.011 254.156L205.232 245.516C207.138 244.501 207.834 242.151 206.787 240.266L200.896 229.665C199.849 227.781 197.455 227.076 195.549 228.091Z" fill="#3535A2" stroke="#3535A2" stroke-linecap="round" stroke-linejoin="round"/>
<path d="M154.118 280.456L137.897 289.096C135.991 290.111 135.295 292.461 136.342 294.346L142.232 304.947C143.279 306.832 145.673 307.536 147.579 306.521L163.8 297.882C165.706 296.867 166.402 294.516 165.355 292.632L159.465 282.031C158.418 280.146 156.024 279.441 154.118 280.456Z" fill="#3535A2" stroke="#3535A2" stroke-linecap="round" stroke-linejoin="round"/>
<path d="M181.297 265.939L165.076 274.579C163.17 275.594 162.474 277.944 163.521 279.829L169.411 290.43C170.458 292.314 172.852 293.019 174.758 292.004L190.979 283.365C192.885 282.35 193.581 279.999 192.534 278.115L186.644 267.514C185.596 265.629 183.203 264.924 181.297 265.939Z" fill="#3535A2" stroke="#3535A2" stroke-linecap="round" stroke-linejoin="round"/>
<path d="M199.876 108.721L183.65 117.363C181.743 118.379 181.047 120.731 182.095 122.616L186.528 130.596C187.576 132.481 189.97 133.186 191.877 132.171L208.103 123.528C210.01 122.512 210.706 120.161 209.659 118.275L205.225 110.296C204.178 108.41 201.783 107.705 199.876 108.721Z" fill="#3535A2" stroke="#3535A2" stroke-linecap="round" stroke-linejoin="round"/>
<path d="M106.292 85.4461C106.292 84.9629 106.43 84.4906 106.69 84.0829C106.95 83.6751 107.321 83.3484 107.762 83.1398C109.614 82.153 111.127 83.0828 112.25 85.105L113.791 87.8791C114.996 90.0482 114.748 92.028 112.555 93.1963C110.362 94.3646 108.548 93.4833 107.343 91.3142L106.815 90.3636L108.309 89.5677L108.895 90.622C109.605 91.901 110.565 92.3861 111.71 91.7764C112.854 91.1666 112.96 90.1136 112.25 88.8346L110.718 86.0778C110.008 84.7988 109.048 84.3136 107.904 84.9234C107.69 85.025 107.5 85.1681 107.345 85.3443C107.19 85.5204 107.073 85.7259 107.001 85.9483C106.929 86.1708 106.903 86.4057 106.926 86.6389C106.948 86.8721 107.019 87.0989 107.132 87.3055L107.315 87.6339L105.821 88.4298L101.823 80.335L107.536 77.2908L108.328 78.7167L104.109 80.965L106.292 85.4461Z" fill="#3535A2"/>
<path d="M118 90.0747L117.406 90.3912L116.317 88.4298L117.837 87.62L118.859 89.4605L119.125 91.8154L118.47 92.1645L118 90.0747Z" fill="#3535A2"/>
<path d="M121.195 74.3661L121.439 74.8069C122.241 76.2502 122.311 77.5792 121.419 78.6031C122.867 78.4368 123.94 79.3096 124.728 80.7269L125.313 81.7813C126.528 83.9678 126.133 85.9478 123.905 87.1348C121.677 88.3218 119.765 87.5708 118.551 85.3842L117.975 84.3471C117.178 82.9125 117.023 81.5948 117.969 80.4638C116.553 80.6468 115.488 79.8704 114.686 78.4271L114.442 77.9863C113.227 75.7998 113.663 73.8538 115.874 72.6761C118.084 71.4984 119.98 72.1796 121.195 74.3661ZM116.005 77.1312L116.389 77.8226C117.157 79.2053 118.174 79.4472 119.301 78.8467C120.429 78.2462 120.765 77.2828 119.997 75.9001L119.613 75.2087C118.807 73.7567 117.76 73.4411 116.632 74.0416C115.505 74.6421 115.227 75.7311 116.024 77.1657L116.005 77.1312ZM119.418 83.2759L120.08 84.4686C120.892 85.9291 121.94 86.2667 123.084 85.6569C124.229 85.0471 124.448 84.0345 123.689 82.5461L123.026 81.3534C122.263 79.9793 121.277 79.631 120.089 80.2641C118.9 80.8972 118.674 81.9363 119.437 83.3105L119.418 83.2759Z" fill="#3535A2"/>
<path d="M129.152 70.1944L133.17 77.4277C134.418 79.6746 134.188 81.6452 131.899 82.8647C129.61 84.0843 127.88 83.1916 126.675 81.0225L126.526 80.7546L128.02 79.9586L128.227 80.3302C128.932 81.6006 129.9 82.0592 131.053 81.4448C132.207 80.8304 132.373 79.7447 131.538 78.241L129.772 75.0607C129.865 75.6145 129.772 76.1816 129.506 76.6752C129.241 77.1688 128.817 77.5616 128.301 77.7933C126.448 78.7801 124.916 77.9167 123.778 75.8685L122.573 73.6994C121.369 71.5303 121.657 69.5624 123.867 68.3847C126.078 67.2071 127.947 68.0252 129.152 70.1944ZM124.107 72.7705L125.292 74.905C125.998 76.1754 126.989 76.6553 128.134 76.0455C129.278 75.4357 129.397 74.3647 128.691 73.0943L127.505 70.9598C126.785 69.6635 125.848 69.1995 124.678 69.8233C123.507 70.447 123.387 71.4742 124.107 72.7705Z" fill="#3535A2"/>
<path d="M137.2 65.9184C139.576 70.1962 135.573 74.3224 137.37 77.5984L137.495 77.823L142.204 75.3142L143 76.7487L136.71 80.1001L136.033 78.8816C133.489 74.3014 137.852 70.8233 135.635 66.8307C134.824 65.3702 133.907 64.8618 132.719 65.4948C131.531 66.1279 131.513 67.2574 132.195 68.4845L132.891 69.7376L131.397 70.5335L130.758 69.3842C129.553 67.2151 129.757 65.2366 131.967 64.0589C134.177 62.8813 135.995 63.7493 137.2 65.9184Z" fill="#3535A2"/>
<path d="M145.071 73.0747L146.162 75.0384L144.622 75.8585L143.531 73.8948L145.071 73.0747Z" fill="#3535A2"/>
<path d="M144.803 64.8763C144.803 64.3914 144.941 63.9174 145.203 63.5087C145.464 63.1 145.838 62.773 146.281 62.5653C148.125 61.5832 149.646 62.5084 150.77 64.5306L152.31 67.3046C153.515 69.4737 153.268 71.4535 151.075 72.6218C148.882 73.7902 147.068 72.9088 145.863 70.7397L145.335 69.7891L146.829 68.9932L147.414 70.0475C148.125 71.3265 149.085 71.8117 150.229 71.2019C151.374 70.5922 151.488 69.5345 150.778 68.2555L149.247 65.4987C148.536 64.2197 147.576 63.7345 146.423 64.3489C146.21 64.4505 146.02 64.5937 145.865 64.7698C145.71 64.9459 145.593 65.1514 145.521 65.3739C145.448 65.5964 145.423 65.8313 145.445 66.0645C145.468 66.2977 145.538 66.5244 145.652 66.731L145.834 67.0594L144.34 67.8554L140.342 59.7605L146.003 56.7443L146.795 58.1702L142.611 60.3998L144.803 64.8763Z" fill="#3535A2"/>
<path d="M156.29 55.6653L156.453 55.9592L154.951 56.7598L154.749 56.3968C154.039 55.1178 153.088 54.6499 151.926 55.269C150.764 55.888 150.606 56.9691 151.451 58.49L153.217 61.6703C153.128 61.1146 153.223 60.5468 153.489 60.0519C153.755 59.5569 154.177 59.1614 154.692 58.9244C156.536 57.9423 158.043 58.8416 159.181 60.8898L160.371 63.033C161.576 65.2021 161.285 67.2052 159.092 68.3736C156.899 69.5419 154.997 68.7072 153.792 66.538L149.775 59.3046C148.527 57.0577 148.78 55.1085 151.052 53.8982C153.323 52.688 155.09 53.5048 156.29 55.6653ZM154.297 63.6148L155.478 65.7407C156.189 67.0197 157.149 67.5049 158.319 66.8812C159.49 66.2574 159.64 65.1811 158.929 63.9021L157.748 61.7761C157.038 60.4971 156.052 60.0259 154.863 60.6589C153.675 61.292 153.587 62.3357 154.297 63.6148Z" fill="#3535A2"/>
</svg>
