<svg width="554" height="370" viewBox="0 0 554 370" fill="none" xmlns="http://www.w3.org/2000/svg">
<g clip-path="url(#clip0_101_994)">
<path d="M364.545 34.2016C312.687 48.2911 296.445 87.301 231.7 117.799C163.913 140.023 126.883 122.264 79.2132 147.786C27.927 175.251 16.3311 262.442 57.9482 327.434C99.5653 392.425 189.284 401.016 226.526 385.185C256.291 372.532 277.453 349.342 310.241 332.218C345.631 322.2 376.231 324.781 406.511 313.53C444.395 299.46 505.786 230.71 495.257 153.344C484.728 75.9786 420.332 19.0415 364.545 34.2016Z" fill="#FEBAB6"/>
<path opacity="0.7" d="M364.545 34.2016C312.687 48.2911 296.445 87.301 231.7 117.799C163.913 140.023 126.883 122.264 79.2132 147.786C27.927 175.251 16.3311 262.442 57.9482 327.434C99.5653 392.425 189.284 401.016 226.526 385.185C256.291 372.532 277.453 349.342 310.241 332.218C345.631 322.2 376.231 324.781 406.511 313.53C444.395 299.46 505.786 230.71 495.257 153.344C484.728 75.9786 420.332 19.0415 364.545 34.2016Z" fill="white"/>
<path d="M484.181 338.839L509.614 338.905" stroke="#3535A2" stroke-linecap="round" stroke-linejoin="round"/>
<path d="M31.8144 337.662L475.147 338.817" stroke="#3535A2" stroke-linecap="round" stroke-linejoin="round"/>
<path d="M374.504 204.98C374.504 204.98 382.74 218.175 386.19 230.932C388.635 240.005 388.746 304.755 388.746 304.755C388.746 304.755 388.915 204.596 401.185 183.913" stroke="#3535A2" stroke-linecap="round" stroke-linejoin="round"/>
<path d="M407.744 137.64C407.744 137.64 395.925 156.784 392.587 176.683C389.248 196.581 386.249 302.579 386.249 302.579C386.057 292.219 386.744 197.758 383.435 181.367C381.475 171.591 378.335 162.091 374.083 153.077" stroke="#3535A2" stroke-linecap="round" stroke-linejoin="round"/>
<path d="M376.661 158.878C376.661 158.878 386.603 159.345 391.242 151.863C395.881 144.382 392.838 137.241 388.472 136.715C384.107 136.19 382.208 141.599 380.591 139.009C378.973 136.419 385.237 131.528 378.22 127.036C371.202 122.544 367.937 128.99 365.714 126.688C363.491 124.387 365.093 118.4 360.469 115.729C355.845 113.058 353.674 116.373 351.11 116.469C348.547 116.565 340.474 112.221 337.253 115.64C334.032 119.059 341.737 127.347 338.117 127.591C334.498 127.835 333.02 134.91 335.968 139.49C338.915 144.071 348.377 145.877 346.531 148.267C344.684 150.657 335.643 150.487 339.321 155.852C343 161.217 355.513 161.55 357.315 162.179C359.118 162.808 351.554 164.206 352.832 169.209C354.109 174.211 364.502 174.833 371.187 171.614C377.872 168.395 376.661 158.878 376.661 158.878Z" fill="#FEBAB6"/>
<path d="M347.971 125.156C347.971 125.156 369.09 138.987 376.661 158.878" stroke="#3535A2" stroke-linecap="round" stroke-linejoin="round"/>
<path d="M346.937 134.843L361.09 136.227L357.64 124.461" stroke="#3535A2" stroke-linecap="round" stroke-linejoin="round"/>
<path d="M358.327 151.101H372.487L373.522 138.299" stroke="#3535A2" stroke-linecap="round" stroke-linejoin="round"/>
<path d="M405.787 141.932C405.787 141.932 397.713 142.31 393.968 136.242C390.223 130.174 392.675 124.365 396.184 123.943C399.693 123.521 401.259 127.909 402.573 125.8C403.888 123.691 398.806 119.732 404.501 116.084C410.196 112.436 412.848 117.668 414.658 115.803C416.468 113.938 415.16 109.047 418.92 106.923C422.68 104.799 424.438 107.448 426.514 107.537C428.589 107.626 435.149 104.089 437.764 106.871C440.378 109.653 434.122 116.373 437.062 116.565C440.002 116.757 441.198 122.485 438.805 126.185C436.412 129.885 428.73 131.365 430.229 133.311C431.729 135.257 439.093 135.132 436.079 139.475C433.066 143.819 422.938 144.1 421.476 144.611C420.013 145.122 426.152 146.254 425.118 150.316C424.083 154.379 415.64 154.882 410.219 152.27C404.797 149.658 405.787 141.932 405.787 141.932Z" fill="#FEBAB6"/>
<path d="M429.069 114.56C429.069 114.56 411.932 125.785 405.786 141.94" stroke="#3535A2" stroke-linecap="round" stroke-linejoin="round"/>
<path d="M429.911 122.418L418.418 123.543L421.225 113.997" stroke="#3535A2" stroke-linecap="round" stroke-linejoin="round"/>
<path d="M420.663 135.62H409.17L408.328 125.23" stroke="#3535A2" stroke-linecap="round" stroke-linejoin="round"/>
<path d="M379.379 214.341C379.379 214.341 385.924 214.645 388.982 209.724C392.04 204.803 390.031 200.104 387.157 199.749C384.284 199.393 383.036 202.968 381.987 201.229C380.938 199.49 385.045 196.3 380.421 193.34C375.797 190.38 373.647 194.628 372.185 193.111C370.722 191.594 371.778 187.635 368.728 185.896C365.677 184.157 364.251 186.318 362.56 186.392C360.868 186.466 355.557 183.594 353.437 185.851C351.317 188.108 356.392 193.555 354.006 193.718C351.62 193.88 350.653 198.535 352.588 201.554C354.523 204.573 360.765 205.765 359.546 207.334C358.327 208.902 352.374 208.814 354.804 212.329C357.234 215.844 365.463 216.08 366.622 216.495C367.782 216.909 362.826 217.827 363.668 221.127C364.51 224.428 371.35 224.827 375.752 222.711C380.155 220.594 379.379 214.341 379.379 214.341Z" fill="#FEBAB6"/>
<path d="M360.469 192.134C360.469 192.134 374.378 201.243 379.364 214.334" stroke="#3535A2" stroke-linecap="round" stroke-linejoin="round"/>
<path d="M359.805 198.512L369.127 199.423L366.851 191.675" stroke="#3535A2" stroke-linecap="round" stroke-linejoin="round"/>
<path d="M367.309 209.221H376.631L377.311 200.792" stroke="#3535A2" stroke-linecap="round" stroke-linejoin="round"/>
<path d="M386.936 260.391C386.936 260.391 378.81 260.769 374.992 254.642C371.173 248.514 373.691 242.668 377.267 242.239C380.842 241.81 382.393 246.243 383.715 244.119C385.037 241.995 379.911 237.992 385.658 234.314C391.405 230.636 394.079 235.912 395.896 234.025C397.713 232.138 396.405 227.217 400.202 225.056C403.999 222.896 405.764 225.589 407.862 225.678C409.96 225.767 416.571 222.2 419.208 224.997C421.845 227.794 415.515 234.58 418.469 234.78C421.424 234.98 422.636 240.774 420.228 244.518C417.819 248.263 410.063 249.758 411.578 251.711C413.092 253.665 420.493 253.546 417.487 257.92C414.481 262.293 404.191 262.582 402.758 263.1C401.325 263.618 407.471 264.75 406.451 268.85C405.432 272.949 396.893 273.452 391.42 270.818C385.946 268.184 386.936 260.391 386.936 260.391Z" fill="#FEBAB6"/>
<path d="M410.425 232.774C410.425 232.774 393.133 244.096 386.936 260.391" stroke="#3535A2" stroke-linecap="round" stroke-linejoin="round"/>
<path d="M411.275 240.708L399.685 241.84L402.507 232.212" stroke="#3535A2" stroke-linecap="round" stroke-linejoin="round"/>
<path d="M401.945 254.02H390.348L389.499 243.542" stroke="#3535A2" stroke-linecap="round" stroke-linejoin="round"/>
<path d="M398.799 188.656C398.799 188.656 388.93 187.324 385.702 179.139C382.474 170.955 386.751 164.465 391.131 164.732C395.512 164.998 396.42 170.652 398.474 168.395C400.527 166.138 395.246 160.21 402.95 157.043C410.654 153.876 412.715 160.81 415.315 158.937C417.916 157.065 417.413 150.871 422.444 149.103C427.474 147.334 429.01 150.953 431.514 151.523C434.018 152.092 442.742 149.251 445.298 153.195C447.854 157.139 438.79 163.903 442.343 164.791C445.896 165.679 446.037 172.931 442.343 176.882C438.65 180.834 428.996 180.945 430.384 183.624C431.773 186.303 440.726 187.783 436.124 192.385C431.522 196.988 419.134 195.086 417.288 195.345C415.441 195.604 422.599 198.372 420.449 203.064C418.3 207.755 407.958 206.505 401.982 202.146C396.007 197.787 398.799 188.656 398.799 188.656Z" fill="#FEBAB6"/>
<path d="M433.043 160.617C433.043 160.617 409.798 170.437 398.799 188.656" stroke="#3535A2" stroke-linecap="round" stroke-linejoin="round"/>
<path d="M432.334 170.333L418.159 169.157L423.655 158.197" stroke="#3535A2" stroke-linecap="round" stroke-linejoin="round"/>
<path d="M418.218 184.282L404.294 181.751L405.558 168.972" stroke="#3535A2" stroke-linecap="round" stroke-linejoin="round"/>
<path d="M372.561 300.514C371.823 302.416 371.446 318.6 371.446 320.746C371.446 334.983 379.283 338.284 388.952 338.284C398.621 338.284 406.459 335.746 406.459 320.746C406.459 318.6 406.052 302.416 405.351 300.514H372.561Z" fill="#3535A2" stroke="#3535A2" stroke-linecap="round" stroke-linejoin="round"/>
<path d="M154.322 259.607L165.461 336.656C165.499 336.919 165.63 337.16 165.831 337.334C166.032 337.508 166.289 337.604 166.555 337.603C166.71 337.603 166.864 337.57 167.007 337.506C167.149 337.442 167.276 337.348 167.379 337.232C167.482 337.115 167.56 336.977 167.606 336.828C167.652 336.679 167.667 336.522 167.648 336.367L158.481 260.34L154.322 259.607Z" fill="#3535A2" stroke="#3535A2" stroke-linecap="round" stroke-linejoin="round"/>
<path d="M126.792 250.513C126.792 250.513 138.766 249.181 149.587 250.342C154.138 250.831 170.189 252.089 169.672 255.87C169.155 259.652 165.735 261.191 165.048 261.191C164.361 261.191 100.259 265.631 99.2324 264.624C98.2057 263.618 97.179 261.191 97.8585 259.814C98.5381 258.438 126.792 250.513 126.792 250.513Z" fill="#3535A2" stroke="#3535A2" stroke-linecap="round" stroke-linejoin="round"/>
<path d="M80.7732 196.626C80.4928 196.583 80.2063 196.61 79.9391 196.705C79.6719 196.8 79.4322 196.96 79.2414 197.17C79.0506 197.38 78.9147 197.634 78.8455 197.91C78.7764 198.185 78.7763 198.474 78.8453 198.749C81.4232 209.598 93.1311 258.541 94.3573 259.792C95.7681 261.198 101.677 264.017 104.211 263.736C106.745 263.455 119.125 259.511 128.137 251.896C137.148 244.282 143.05 236.105 142.489 231.028C141.927 225.952 138.795 221.445 136.018 220.883C133.241 220.32 121.939 221.164 112.093 218.063C102.246 214.963 94.0766 209.886 89.5781 203.685C86.2172 199.06 83.3216 197.077 80.7732 196.626Z" fill="#3535A2" stroke="#3535A2" stroke-linecap="round" stroke-linejoin="round"/>
<path d="M92.1339 235.32L94.8595 264.232L78.3356 336.545C78.2997 336.685 78.2962 336.832 78.3253 336.974C78.3544 337.116 78.4155 337.249 78.5037 337.364C78.592 337.479 78.7052 337.572 78.8348 337.636C78.9643 337.701 79.1069 337.735 79.2515 337.736C79.4602 337.737 79.6633 337.668 79.829 337.541C79.9946 337.414 80.1137 337.235 80.1675 337.033L99.2325 264.594L108.835 264.232V262.271L99.0552 261.531L93.5817 235.046C93.5516 234.893 93.474 234.753 93.3599 234.647C93.2458 234.541 93.1011 234.473 92.9464 234.454C92.8319 234.441 92.7158 234.455 92.6075 234.494C92.4992 234.534 92.4017 234.598 92.3227 234.682C92.2438 234.766 92.1856 234.868 92.1528 234.979C92.12 235.089 92.1135 235.206 92.1339 235.32Z" fill="#3535A2" stroke="#3535A2" stroke-linecap="round" stroke-linejoin="round"/>
<path d="M351.82 259.607L340.703 336.656C340.665 336.918 340.535 337.158 340.336 337.332C340.136 337.506 339.881 337.602 339.617 337.603C339.46 337.604 339.305 337.572 339.162 337.508C339.019 337.445 338.892 337.351 338.787 337.234C338.683 337.117 338.605 336.98 338.558 336.83C338.512 336.681 338.497 336.523 338.516 336.367L347.661 260.34L351.82 259.607Z" fill="#3535A2" stroke="#3535A2" stroke-linecap="round" stroke-linejoin="round"/>
<path d="M379.35 250.513C379.35 250.513 367.376 249.181 356.554 250.342C352.004 250.831 335.953 252.089 336.47 255.87C336.987 259.652 340.414 261.191 341.094 261.191C341.774 261.191 405.882 265.631 406.909 264.624C407.936 263.618 408.97 261.191 408.283 259.814C407.596 258.438 379.35 250.513 379.35 250.513Z" fill="#3535A2" stroke="#3535A2" stroke-linecap="round" stroke-linejoin="round"/>
<path d="M425.368 196.626C425.649 196.583 425.936 196.611 426.203 196.706C426.47 196.801 426.71 196.961 426.901 197.171C427.093 197.38 427.229 197.634 427.3 197.91C427.37 198.185 427.371 198.473 427.304 198.749C424.718 209.598 413.011 258.541 411.792 259.792C410.381 261.198 404.472 264.017 401.938 263.736C399.404 263.455 387.024 259.511 378.02 251.896C369.016 244.282 363.099 236.105 363.66 231.028C364.222 225.952 367.354 221.445 370.138 220.883C372.923 220.32 384.21 221.164 394.056 218.063C403.903 214.963 412.073 209.886 416.578 203.685C419.925 199.06 422.827 197.077 425.368 196.626Z" fill="#3535A2" stroke="#3535A2" stroke-linecap="round" stroke-linejoin="round"/>
<path d="M414.015 235.32L411.282 264.232L427.806 336.545C427.842 336.685 427.846 336.832 427.816 336.974C427.787 337.116 427.726 337.249 427.638 337.364C427.55 337.479 427.437 337.572 427.307 337.636C427.177 337.701 427.035 337.735 426.89 337.736C426.682 337.737 426.479 337.668 426.313 337.541C426.147 337.414 426.028 337.235 425.974 337.033L406.909 264.624L397.307 264.261V262.3L407.087 261.56L412.56 235.076C412.59 234.923 412.668 234.783 412.782 234.677C412.896 234.57 413.041 234.503 413.195 234.484C413.308 234.47 413.421 234.483 413.528 234.52C413.635 234.558 413.731 234.619 413.811 234.7C413.89 234.781 413.949 234.879 413.985 234.986C414.02 235.094 414.031 235.208 414.015 235.32Z" fill="#3535A2" stroke="#3535A2" stroke-linecap="round" stroke-linejoin="round"/>
<path d="M147.652 338.506H142.533L139.97 218.892H150.215L147.652 338.506Z" fill="white" stroke="#3535A2" stroke-linecap="round" stroke-linejoin="round"/>
<path d="M140.132 226.396H150.053L150.215 218.892H139.97L140.132 226.396Z" fill="#3535A2" stroke="#3535A2" stroke-linecap="round" stroke-linejoin="round"/>
<path d="M364.384 338.506H359.265L356.702 218.892H366.947L364.384 338.506Z" fill="white" stroke="#3535A2" stroke-linecap="round" stroke-linejoin="round"/>
<path d="M356.865 226.396H366.785L366.947 218.892H356.702L356.865 226.396Z" fill="#3535A2" stroke="#3535A2" stroke-linecap="round" stroke-linejoin="round"/>
<path d="M370.109 209.76H136.476V222.214H370.109V209.76Z" fill="white" stroke="#3535A2" stroke-linecap="round" stroke-linejoin="round"/>
<path d="M370.109 209.76H136.476V215.991H370.109V209.76Z" fill="#3535A2" stroke="#3535A2" stroke-linecap="round" stroke-linejoin="round"/>
<path d="M375.198 209.76H131.387V214.496H375.198V209.76Z" fill="#FEBAB6" stroke="#3535A2" stroke-linecap="round" stroke-linejoin="round"/>
<path d="M266.865 158.36C266.865 158.36 269.776 161.009 270.559 161.276C271.342 161.542 272.849 161.89 272.849 161.89L274.525 162.245L270.832 156.865L266.865 158.36Z" fill="white" stroke="#3535A2" stroke-linecap="round" stroke-linejoin="round"/>
<path d="M251.169 138.491L285.465 174.485L296.316 169.697L273.454 137.322L251.169 138.491Z" fill="#B8B8B8" stroke="#3535A2" stroke-linecap="round" stroke-linejoin="round"/>
<path d="M254.722 139.764L276.793 163.94L290.215 162.208L272.679 138.461L254.722 139.764Z" fill="white" stroke="#3535A2" stroke-linecap="round" stroke-linejoin="round"/>
<path d="M262.899 153.431C262.583 152.993 262.306 152.528 262.072 152.04C262.141 151.103 262.282 150.173 262.493 149.258C262.618 148.88 263.002 148.747 263.335 149.509C263.578 150.068 263.679 150.678 263.63 151.285C263.71 151.728 263.824 152.163 263.97 152.588L263.128 153.772L262.899 153.431Z" fill="white" stroke="#3535A2" stroke-linecap="round" stroke-linejoin="round"/>
<path d="M264.539 155.681C264.539 155.681 262.899 153.772 262.899 153.461C263.171 152.672 263.505 151.905 263.896 151.167C263.94 151.034 266.112 150.908 266.444 150.775C266.777 150.642 267.523 150.56 267.346 151.123C267.275 151.389 267.145 151.637 266.966 151.847C266.787 152.057 266.563 152.224 266.311 152.336C265.931 152.497 265.57 152.698 265.233 152.936L265.1 153.542L265.706 154.408" fill="white"/>
<path d="M264.539 155.681C264.539 155.681 262.899 153.772 262.899 153.461C263.171 152.672 263.505 151.905 263.896 151.167C263.94 151.034 266.112 150.908 266.444 150.775C266.777 150.642 267.523 150.56 267.346 151.123C267.275 151.389 267.145 151.637 266.966 151.847C266.787 152.057 266.563 152.224 266.311 152.336C265.931 152.497 265.57 152.698 265.233 152.936L265.1 153.542L265.706 154.408" stroke="#3535A2" stroke-linecap="round" stroke-linejoin="round"/>
<path d="M265.78 157.146C265.78 157.146 263.94 155.015 263.94 154.623C264.247 153.741 264.618 152.883 265.048 152.055C265.1 151.907 267.515 151.766 267.907 151.618C268.298 151.47 269.118 151.374 268.926 152.003C268.846 152.303 268.699 152.581 268.497 152.817C268.295 153.052 268.043 153.24 267.759 153.365C267.332 153.547 266.925 153.775 266.548 154.046L266.407 154.719L267.08 155.688" fill="white"/>
<path d="M265.78 157.146C265.78 157.146 263.94 155.015 263.94 154.623C264.247 153.741 264.618 152.883 265.048 152.055C265.1 151.907 267.515 151.766 267.907 151.618C268.298 151.47 269.118 151.374 268.926 152.003C268.846 152.303 268.699 152.581 268.497 152.817C268.295 153.052 268.043 153.24 267.759 153.365C267.332 153.547 266.925 153.775 266.548 154.046L266.407 154.719L267.08 155.688" stroke="#3535A2" stroke-linecap="round" stroke-linejoin="round"/>
<path d="M267.619 159.04C266.821 158.235 266.08 157.375 265.403 156.465C265.741 155.636 266.129 154.828 266.563 154.045C266.563 154.045 271.068 153.305 271.312 153.365C271.556 153.424 271.696 153.705 270.972 154.378C270.316 154.866 269.559 155.2 268.756 155.355C268.468 155.452 268.417 156.71 268.417 156.71L269.776 158.404" fill="white"/>
<path d="M267.619 159.04C266.821 158.235 266.08 157.375 265.403 156.465C265.741 155.636 266.129 154.828 266.563 154.045C266.563 154.045 271.068 153.305 271.312 153.365C271.556 153.424 271.696 153.705 270.972 154.378C270.316 154.866 269.559 155.2 268.756 155.355C268.468 155.452 268.417 156.71 268.417 156.71L269.776 158.404" stroke="#3535A2" stroke-linecap="round" stroke-linejoin="round"/>
<path d="M251.671 158.589C250.398 159.052 249.173 159.639 248.015 160.343C246.582 161.305 244.196 162.563 244.196 162.563L241.743 170.962C243.649 171.061 245.489 171.686 247.062 172.768C249.448 174.522 254.537 174.041 255.815 173.249C257.093 172.457 258.836 166.234 257.241 164.798C255.645 163.362 251.671 158.589 251.671 158.589Z" fill="white" stroke="#3535A2" stroke-linecap="round" stroke-linejoin="round"/>
<path d="M267.272 165.286L262.84 163.851C262.84 163.851 259.494 161.631 258.696 161.305C257.491 161.072 256.266 160.966 255.039 160.987C255.039 160.987 247.402 171.983 247.084 172.783C246.766 173.582 246.604 175.336 247.719 175.654C248.835 175.972 251.538 175.017 251.538 175.017C251.538 175.017 254.087 176.29 255.675 175.972C257.263 175.654 262.042 172.272 262.042 172.272L267.612 172.117L267.272 165.286Z" fill="white" stroke="#3535A2" stroke-linecap="round" stroke-linejoin="round"/>
<path d="M250.881 161.624C250.881 161.624 254.382 167.04 255.652 167.203C256.923 167.366 258.201 166.567 257.241 164.813C256.28 163.059 255.172 160.373 254.537 158.893C253.902 157.413 251.353 157.465 250.238 159.855" fill="white"/>
<path d="M250.881 161.624C250.881 161.624 254.382 167.04 255.652 167.203C256.923 167.366 258.201 166.567 257.241 164.813C256.28 163.059 255.172 160.373 254.537 158.893C253.902 157.413 251.353 157.465 250.238 159.855" stroke="#3535A2" stroke-linecap="round" stroke-linejoin="round"/>
<path d="M260.469 169.845C260.15 170.231 259.96 170.708 259.924 171.208C259.888 171.708 260.009 172.206 260.269 172.635C260.661 173.293 261.096 173.981 261.259 173.981C261.47 173.976 261.677 173.928 261.87 173.842C262.062 173.755 262.236 173.631 262.38 173.477C262.524 173.323 262.636 173.141 262.71 172.943C262.784 172.746 262.818 172.535 262.81 172.324C262.729 171.229 261.732 168.424 260.469 169.845Z" fill="white" stroke="#3535A2" stroke-linecap="round" stroke-linejoin="round"/>
<path d="M258.6 171.88C258.284 172.268 258.097 172.745 258.062 173.244C258.028 173.744 258.149 174.242 258.408 174.67C258.792 175.328 259.235 176.009 259.398 176.009C259.608 176.003 259.816 175.956 260.008 175.869C260.201 175.783 260.374 175.659 260.518 175.505C260.663 175.35 260.775 175.169 260.849 174.971C260.923 174.773 260.957 174.563 260.949 174.352C260.86 173.264 259.87 170.452 258.6 171.88Z" fill="white" stroke="#3535A2" stroke-linecap="round" stroke-linejoin="round"/>
<path d="M256.45 173.9C256.204 174.211 256.057 174.59 256.029 174.986C256.002 175.382 256.094 175.777 256.295 176.12C256.613 176.653 256.967 177.208 257.093 177.208C257.263 177.203 257.431 177.165 257.587 177.095C257.742 177.024 257.882 176.924 257.999 176.8C258.116 176.675 258.207 176.529 258.267 176.369C258.327 176.209 258.355 176.039 258.349 175.868C258.282 175.04 257.477 172.775 256.45 173.9Z" fill="white" stroke="#3535A2" stroke-linecap="round" stroke-linejoin="round"/>
<path d="M254.559 174.803C254.362 175.042 254.244 175.337 254.223 175.646C254.202 175.955 254.278 176.263 254.441 176.527C254.677 176.934 254.951 177.356 255.054 177.356C255.184 177.352 255.311 177.323 255.43 177.269C255.548 177.216 255.654 177.139 255.743 177.044C255.832 176.949 255.901 176.838 255.946 176.716C255.991 176.594 256.012 176.465 256.007 176.335C255.955 175.661 255.342 173.9 254.559 174.803Z" fill="white" stroke="#3535A2" stroke-linecap="round" stroke-linejoin="round"/>
<path d="M244.942 161.601L242.918 172.494L239.055 172.331L241.411 160.587L244.942 161.601Z" fill="#FEBAB6" stroke="#3535A2" stroke-linecap="round" stroke-linejoin="round"/>
<path d="M242.283 159.1C242.283 159.1 240.429 172.694 239.417 173.9C238.405 175.106 224.791 171.377 224.119 171.206C223.447 171.036 224.961 151.678 224.961 151.678C224.961 151.678 240.739 158.397 242.283 159.1Z" fill="#FEBAB6" stroke="#3535A2" stroke-linecap="round" stroke-linejoin="round"/>
<path d="M288.442 66.3187C288.442 66.3187 285.967 72.0685 285.967 74.3477C285.967 76.6269 286.167 80.0013 285.576 81.7477C284.985 83.4941 282.112 84.5227 282.806 86.0101C283.5 87.4975 285.472 88.3929 285.472 88.3929C285.472 88.3929 286.861 95.5339 287.652 97.7169C288.442 99.8999 289.735 100.196 290.916 99.9961C292.098 99.7963 295.179 99.0045 295.179 99.0045L297.454 110.8L312.397 102.475L309.922 94.7421C309.922 94.7421 314.177 87.3051 309.627 76.8933C305.077 66.4815 295.275 60.2729 288.442 66.3187Z" fill="white" stroke="#3535A2" stroke-linecap="round" stroke-linejoin="round"/>
<path d="M287.459 77.7443C287.559 77.5349 287.699 77.3476 287.872 77.1936C288.045 77.0397 288.247 76.9222 288.466 76.8483C288.685 76.7744 288.917 76.7455 289.148 76.7635C289.378 76.7814 289.603 76.8457 289.808 76.9525" stroke="#3535A2" stroke-linecap="round" stroke-linejoin="round"/>
<path d="M289.033 82.3842C289.412 82.3842 289.72 81.7183 289.72 80.8968C289.72 80.0754 289.412 79.4094 289.033 79.4094C288.653 79.4094 288.346 80.0754 288.346 80.8968C288.346 81.7183 288.653 82.3842 289.033 82.3842Z" fill="#3535A2"/>
<path d="M287.947 90.0137C287.947 90.0137 291.81 89.9175 293.59 87.5347" stroke="#3535A2" stroke-linecap="round" stroke-linejoin="round"/>
<path d="M312.633 99.4189C312.633 99.4189 295.6 109.779 294.964 110.586C294.329 111.392 293.849 116.646 293.849 116.646L315.174 102.586L312.633 99.4189Z" fill="white" stroke="#3535A2" stroke-linecap="round" stroke-linejoin="round"/>
<path d="M286.603 240.959C286.603 240.959 285.214 251.045 285.738 253.82C286.263 256.595 303.082 307.84 303.26 309.601C303.437 311.363 304.995 319.34 304.995 319.34C304.995 319.34 301.524 325.423 300.829 327.857C300.135 330.292 297.01 332.897 295.799 333.777C294.588 334.658 290.591 336.212 290.074 336.907C289.557 337.603 291.301 337.462 292.423 337.707C294.18 337.847 295.945 337.869 297.705 337.773C297.705 337.773 302.565 337.951 303.954 337.425C305.343 336.9 307.248 331.69 308.12 330.647C308.725 329.98 309.506 329.498 310.373 329.256L308.814 338.136H311.237C311.237 338.136 312.973 331.01 313.667 328.575C314.362 326.14 315.233 324.757 314.192 322.322C313.306 320.44 312.261 318.638 311.067 316.935C311.067 316.935 310.373 297.465 310.543 296.6C310.713 295.734 309.331 278.692 308.814 274.178C308.297 269.664 304.471 257.676 304.301 256.632C304.131 255.589 305.343 243.771 305.343 243.771L286.603 240.959Z" fill="#B8B8B8" stroke="#3535A2" stroke-linecap="round" stroke-linejoin="round"/>
<path d="M299.396 243.527C299.396 243.527 301.369 258.179 302.491 264.336C303.614 270.492 308.12 311.178 307.832 314.863C307.723 316.618 307.511 318.365 307.197 320.095C307.197 320.095 302.255 330.455 301.125 331.661C299.995 332.867 298.059 335.398 296.907 335.62C295.755 335.842 291.411 336.56 292.408 337.692C293.406 338.824 304.02 338.935 306.318 338.299C308.615 337.662 311.577 332.741 312.53 332.142L313.475 331.535L314.214 338.091L316.718 338.025C316.718 338.025 318.683 331.979 318.579 328.109C318.476 324.239 316.053 320.058 316.053 320.058C316.053 320.058 318.609 306.841 320.108 297.909C321.608 288.978 324.334 282.332 322.421 275.421C321.233 271.391 320.351 267.277 319.784 263.115C319.784 262.537 320.921 242.395 320.921 242.395C320.921 242.395 304.478 246.102 299.396 243.527Z" fill="white" stroke="#3535A2" stroke-linecap="round" stroke-linejoin="round"/>
<path d="M318.594 328.109C318.473 326.19 318.021 324.307 317.257 322.544C317.006 322.633 316.748 322.722 316.467 322.833C313.475 324.024 308.932 329.885 305.195 333.015C304.153 333.923 302.937 334.608 301.62 335.027C300.304 335.446 298.916 335.59 297.542 335.45L297.446 335.39C297.282 335.5 297.099 335.578 296.907 335.62C295.755 335.849 291.411 336.56 292.408 337.692C293.406 338.824 304.02 338.935 306.318 338.299C308.615 337.662 311.577 332.741 312.53 332.142L313.475 331.535L314.214 338.091L316.718 338.025C316.718 338.025 318.698 331.979 318.594 328.109Z" fill="#3535A2" stroke="#3535A2" stroke-linecap="round" stroke-linejoin="round"/>
<path d="M282.954 184.844L284.497 200.54L280.25 246.56C280.25 246.56 295.688 253.08 308.423 252.34C321.157 251.6 328.101 247.9 328.101 247.9C328.101 247.9 326.365 214.052 326.557 212.121C326.749 210.189 329.069 202.649 327.141 194.146C325.213 185.644 323.277 182.351 323.277 182.351C323.277 182.351 296.464 189.292 282.954 184.844Z" fill="#3535A2" stroke="#3535A2" stroke-linecap="round" stroke-linejoin="round"/>
<path d="M314.672 100.854C314.672 100.854 293.989 114.411 291.434 117.601C288.878 120.79 282.998 136.256 282.998 138.964C282.998 141.673 286.499 169.734 286.499 169.734L281.565 187.279C281.565 187.279 284.749 191.897 301.302 190.624C317.856 189.351 326.129 185.363 326.129 185.363C326.129 185.363 318.52 167.662 318.365 165.271C318.21 162.881 323.617 140.111 323.935 135.139C324.252 130.166 321.586 116.639 319.961 112.495C318.394 108.528 316.628 104.643 314.672 100.854Z" fill="#FEBAB6" stroke="#3535A2" stroke-linecap="round" stroke-linejoin="round"/>
<path d="M290.614 56.0401C290.614 56.0401 284.313 58.4673 284.475 60.7391C284.638 63.0109 288.028 69.3231 290.776 71.9131C293.524 74.5031 301.117 80.4897 301.767 85.8399C302.417 91.1901 300.962 96.3627 298.857 96.5255L296.759 96.6883C296.759 96.6883 297.564 100.573 304.84 101.705C312.116 102.838 320.352 102.675 324.4 95.7115C328.448 88.7481 327.466 73.3709 323.425 66.2447C319.385 59.1185 309.39 54.7451 303.865 53.9385C298.34 53.1319 290.614 56.0401 290.614 56.0401Z" fill="#3535A2" stroke="#3535A2" stroke-linecap="round" stroke-linejoin="round"/>
<path d="M289.35 126.273C290.34 124.857 291.418 123.505 292.578 122.226C294.599 120.245 296.905 118.579 299.418 117.282L301.169 114.411L302.765 115.048C302.765 115.048 307.197 112.176 310.565 109.623C312.367 108.32 313.974 106.765 315.337 105.006" stroke="#3535A2" stroke-linecap="round" stroke-linejoin="round"/>
<path d="M286.049 131.15C286.049 131.15 286.935 129.752 288.154 127.976" stroke="#3535A2" stroke-linecap="round" stroke-linejoin="round"/>
<path d="M304.67 118.948C304.67 118.948 299.736 125.001 299.263 127.088C298.791 129.175 295.467 153.646 295.467 153.646C295.467 153.646 293.073 153.646 292.756 154.29C292.438 154.934 291.965 159.233 291.965 159.233C291.965 159.233 290.687 160.662 290.052 160.824L265.861 164.65L266.976 174.218C266.976 174.218 282.414 174.218 286.713 173.737C291.012 173.256 296.575 173.737 299.271 172.62C303.245 171.828 306.591 168.18 306.591 168.18L308.74 163C308.74 163 317.095 141.54 317.412 137.27C317.621 135.398 317.511 133.504 317.087 131.668" fill="#FEBAB6"/>
<path d="M304.67 118.948C304.67 118.948 299.736 125.001 299.263 127.088C298.791 129.175 295.467 153.646 295.467 153.646C295.467 153.646 293.073 153.646 292.756 154.29C292.438 154.934 291.965 159.233 291.965 159.233C291.965 159.233 290.687 160.662 290.052 160.824L265.861 164.65L266.976 174.218C266.976 174.218 282.414 174.218 286.713 173.737C291.012 173.256 296.575 173.737 299.271 172.62C303.245 171.828 306.591 168.18 306.591 168.18L308.74 163C308.74 163 317.095 141.54 317.412 137.27C317.621 135.398 317.511 133.504 317.087 131.668" stroke="#3535A2" stroke-linecap="round" stroke-linejoin="round"/>
<path d="M226.32 58.2601C226.32 58.2601 229.193 63.7583 229.326 66.6369C229.459 69.5155 228.278 72.7863 228.669 75.1395C229.06 77.4927 231.542 78.4103 231.018 79.9791C230.493 81.5479 228.145 82.0733 228.145 82.0733C228.145 82.0733 226.97 87.4383 226.062 90.5759C225.153 93.7135 222.139 94.1057 220.706 94.1057C219.106 93.9187 217.53 93.5691 216.001 93.0623L214.435 102.12L196.81 89.3031L198.243 81.5849L201.117 76.2199C201.117 76.2199 197.335 67.7173 200.725 61.7011C204.116 55.6849 209.996 53.7239 216.525 52.9395C223.055 52.1551 226.32 58.2601 226.32 58.2601Z" fill="white" stroke="#3535A2" stroke-linecap="round" stroke-linejoin="round"/>
<path d="M203.732 77.3596C203.814 77.8096 204.015 78.2293 204.314 78.5754C204.612 78.9214 204.998 79.1813 205.43 79.328C206.504 79.499 207.603 79.3145 208.562 78.8026C208.562 78.8026 207.255 84.1676 209.604 87.172" stroke="#3535A2" stroke-linecap="round" stroke-linejoin="round"/>
<path d="M219.384 80.3713C219.384 80.3713 220.425 84.2933 223.816 84.2933" stroke="#3535A2" stroke-linecap="round" stroke-linejoin="round"/>
<path d="M222.797 66.3706C222.797 66.3706 224.488 64.935 226.845 67.0292" stroke="#3535A2" stroke-linecap="round" stroke-linejoin="round"/>
<path d="M225.773 77.7518C227.732 77.7518 229.319 75.5288 229.319 72.7864C229.319 70.0441 227.732 67.821 225.773 67.821C223.815 67.821 222.228 70.0441 222.228 72.7864C222.228 75.5288 223.815 77.7518 225.773 77.7518Z" stroke="#3535A2" stroke-linecap="round" stroke-linejoin="round"/>
<path d="M226.453 73.9999C226.453 74.9027 226.098 75.6353 225.67 75.6353C225.242 75.6353 224.887 74.8953 224.887 73.9999C224.887 73.1045 225.234 72.3645 225.67 72.3645C226.106 72.3645 226.453 73.0601 226.453 73.9999Z" fill="#3535A2"/>
<path d="M222.014 73.371L208.171 73.0454" stroke="#3535A2" stroke-linecap="round" stroke-linejoin="round"/>
<path d="M216.001 93.0623C215.207 92.8439 214.457 92.4883 213.785 92.0115C213.002 91.3603 211.827 90.5759 211.827 90.5759L215.092 98.4199L216.001 93.0623Z" fill="#3535A2" stroke="#3535A2" stroke-miterlimit="10"/>
<path d="M226.32 58.2602C226.32 58.2602 222.531 54.76 219.384 55.7812C216.237 56.8024 215.336 58.3934 216.769 61.531C218.202 64.6686 217.685 67.6804 216.252 68.598C214.819 69.5156 210.247 70.3 209.722 71.2176C209.285 71.8945 208.758 72.5093 208.156 73.0454C208.156 73.0454 206.982 69.5156 205.017 70.559C203.052 71.6024 202.542 75.665 203.717 77.3596L198.229 81.548C198.229 81.548 198.494 75.2728 196.404 70.3C194.314 65.3272 193.279 54.3382 197.224 51.06C201.168 47.7818 206.088 48.4478 207.565 47.138C209.043 45.8282 208.873 42.8164 213.475 42.4242C218.076 42.032 220.004 45.436 221.962 46.2204C223.919 47.0048 224.702 44.2594 227.967 46.4794C231.232 48.6994 233.877 51.8444 232.798 55.1152C231.72 58.386 226.32 58.2602 226.32 58.2602Z" fill="#3535A2" stroke="#3535A2" stroke-linecap="round" stroke-linejoin="round"/>
<path d="M189.889 280.46C189.889 280.46 187.252 298.708 187.252 302.564C187.252 306.419 186.853 318.459 186.853 318.459C186.853 318.459 185.435 322.714 185.435 323.728C185.435 324.742 185.634 327.176 185.634 327.176L186.447 337.928H196.16C196.16 337.928 200.009 322.514 199.602 309.734C199.196 296.955 192.112 273.156 192.112 273.156L189.889 280.46Z" fill="#3535A2" stroke="#3535A2" stroke-linecap="round" stroke-linejoin="round"/>
<path d="M181.402 181.766C181.402 181.766 181.897 205.483 183.396 210.981C184.896 216.479 188.36 223.214 188.36 224.96C188.36 226.706 190.576 247.16 192.098 252.68C193.619 258.201 187.858 275.154 189.357 284.893C190.857 294.631 195.089 319.11 195.089 319.11C195.089 319.11 194.092 318.866 194.092 322.359V329.603L194.343 338.091H205.061C205.061 338.091 204.323 336.345 206.804 336.345C209.286 336.345 210.793 337.825 212.042 338.091C213.29 338.358 229.489 338.091 229.489 338.091C229.489 338.091 230.737 336.093 230.228 334.842C229.718 333.592 228.012 333.599 224.747 331.846C221.482 330.092 217.515 327.354 216.267 326.103C215.018 324.853 214.524 321.611 213.777 320.109C213.031 318.607 211.783 316.868 211.783 315.869C211.783 314.87 213.26 291.886 213.26 278.395C213.26 264.905 215.255 256.669 217.5 244.185C219.746 231.701 219.495 208.473 219.716 201.731C219.938 194.99 220.455 183.231 220.455 183.231L181.402 181.766Z" fill="#3535A2" stroke="#3535A2" stroke-linecap="round" stroke-linejoin="round"/>
<path d="M216.732 105.213C216.732 105.213 220.972 109.831 220.241 112.969C219.797 114.844 219.61 116.771 219.687 118.696C219.687 118.696 224.119 126.096 224.481 139.572C224.843 153.047 227.243 171.902 227.243 171.902L223.003 181.137L217.833 170.977C217.833 170.977 219.31 146.409 219.495 140.312C219.679 134.214 219.864 129.041 219.125 125.349C218.677 123.091 218.368 120.807 218.202 118.511L215.247 107.796L216.732 105.213Z" fill="#3535A2" stroke="#3535A2" stroke-linecap="round" stroke-linejoin="round"/>
<path d="M195.577 86.4319L217.944 102.579L215.262 112.783L193.56 91.6785L195.577 86.4319Z" fill="#F2F5FF" stroke="#3535A2" stroke-linecap="round" stroke-linejoin="round"/>
<path d="M193.531 91.6785C193.531 91.6785 180.375 110.178 178.536 117.778C176.696 125.378 177.982 139.571 178.166 141.458C178.351 143.345 179.09 182.654 180.013 184.319C180.936 185.984 186.277 186.539 186.277 186.539H220.581C220.581 186.539 223.158 185.244 222.974 181.181C222.789 177.119 222.235 172.686 222.235 172.686C222.235 172.686 222.42 132.785 222.05 127.428C221.681 122.07 215.233 110.408 215.233 110.408L193.531 91.6785Z" fill="#F2F5FF" stroke="#3535A2" stroke-linecap="round" stroke-linejoin="round"/>
<path d="M189.453 231.546C189.061 231.546 188.686 231.39 188.409 231.112C188.131 230.835 187.976 230.458 187.976 230.066V224.064C187.977 223.626 188.064 223.193 188.232 222.789C188.401 222.385 188.647 222.018 188.957 221.709C189.267 221.401 189.635 221.156 190.04 220.99C190.444 220.824 190.877 220.74 191.315 220.742H195.976C196.367 220.742 196.743 220.898 197.02 221.175C197.297 221.453 197.453 221.829 197.453 222.222C197.453 222.614 197.297 222.991 197.02 223.268C196.743 223.546 196.367 223.702 195.976 223.702H191.315C191.219 223.702 191.127 223.74 191.059 223.808C190.991 223.876 190.953 223.968 190.953 224.064V230.066C190.953 230.262 190.914 230.456 190.838 230.637C190.763 230.818 190.652 230.982 190.512 231.12C190.373 231.258 190.207 231.366 190.025 231.44C189.844 231.513 189.649 231.549 189.453 231.546Z" fill="white" stroke="#3535A2" stroke-linecap="round" stroke-linejoin="round"/>
<path d="M201.553 209.183C201.553 209.183 203.48 212.143 204.382 212.809C205.283 213.475 205.63 214.741 206.649 217.249C207.22 218.547 207.601 219.92 207.78 221.327C208.194 222.275 208.496 223.268 208.681 224.287C208.681 225.078 205.061 226.669 205.061 226.669C205.061 226.669 205.172 228.149 204.492 228.482C203.578 228.939 202.532 229.059 201.538 228.823C200.562 228.198 199.652 227.476 198.819 226.669C197.702 226.584 196.6 226.355 195.54 225.989C194.062 225.419 192.371 225.078 191.462 223.828C190.554 222.577 190.221 221.674 190.561 218.729C190.901 215.784 192.593 208.976 192.593 208.976L201.553 209.183Z" fill="white" stroke="#3535A2" stroke-linecap="round" stroke-linejoin="round"/>
<path d="M191.706 204.077C191.706 204.077 191.935 209.524 192.496 209.864C194.35 210.702 196.374 211.09 198.406 210.996C200.051 210.784 201.654 210.325 203.163 209.635L203.045 204.307C203.045 204.307 193.627 205.098 191.706 204.077Z" fill="#FEBAB6" stroke="#3535A2" stroke-linecap="round" stroke-linejoin="round"/>
<path d="M189.438 108.077C189.438 108.077 183.884 119.414 183.677 124.572C183.47 129.73 185.945 159.204 185.945 171.362C185.945 183.52 188.619 202.079 189.638 203.922C190.657 205.765 193.139 206.186 194.986 206.186C196.832 206.186 202.808 207.215 204.042 204.536C205.275 201.857 204.042 174.44 204.042 169.904C204.042 165.368 211.037 139.187 208.363 123.728" fill="#F2F5FF"/>
<path d="M189.438 108.077C189.438 108.077 183.884 119.414 183.677 124.572C183.47 129.73 185.945 159.204 185.945 171.362C185.945 183.52 188.619 202.079 189.638 203.922C190.657 205.765 193.139 206.186 194.986 206.186C196.832 206.186 202.808 207.215 204.042 204.536C205.275 201.857 204.042 174.44 204.042 169.904C204.042 165.368 211.037 139.187 208.363 123.728" stroke="#3535A2" stroke-linecap="round" stroke-linejoin="round"/>
<path d="M210.269 220.742H205.615C205.341 220.743 205.073 220.82 204.84 220.964V223.48C205.072 223.627 205.34 223.707 205.615 223.71H210.269C210.365 223.71 210.457 223.748 210.525 223.816C210.593 223.884 210.631 223.976 210.631 224.072V230.074C210.631 230.466 210.786 230.843 211.063 231.12C211.34 231.398 211.716 231.554 212.108 231.554C212.5 231.554 212.876 231.398 213.153 231.12C213.43 230.843 213.585 230.466 213.585 230.074V224.072C213.586 223.635 213.501 223.202 213.335 222.798C213.169 222.394 212.925 222.027 212.617 221.718C212.309 221.409 211.943 221.163 211.54 220.996C211.137 220.828 210.705 220.742 210.269 220.742Z" fill="white" stroke="#3535A2" stroke-linecap="round" stroke-linejoin="round"/>
<path d="M227.376 229.97H173.86C171.894 229.97 170.3 231.567 170.3 233.537V270.389C170.3 272.358 171.894 273.955 173.86 273.955H227.376C229.343 273.955 230.937 272.358 230.937 270.389V233.537C230.937 231.567 229.343 229.97 227.376 229.97Z" fill="#FEBAB6" stroke="#3535A2" stroke-linecap="round" stroke-linejoin="round"/>
<path d="M204.596 220.061L204.721 224.568" stroke="#3535A2" stroke-linecap="round" stroke-linejoin="round"/>
</g>
<defs>
<clipPath id="clip0_101_994">
<rect width="554" height="370" fill="white"/>
</clipPath>
</defs>
</svg>
