<svg width="438" height="293" viewBox="0 0 438 293" fill="none" xmlns="http://www.w3.org/2000/svg">
<path d="M378.44 71.7859C378.44 71.7859 314.121 5.45947 230.535 0.337568C146.949 -4.78433 98.2064 49.5784 75.1087 81.9982C52.0109 114.418 -5.61776 168.434 1.17828 217.895C7.97432 267.357 74.6018 304.886 170.047 288.399C265.492 271.912 293.164 265.656 336.65 278.168C380.136 290.679 436.613 271.912 437.739 200.841C438.866 129.771 378.44 71.7859 378.44 71.7859Z" fill="#BDD0FB"/>
<path opacity="0.7" d="M378.44 71.7859C378.44 71.7859 314.121 5.45947 230.535 0.337568C146.949 -4.78433 98.2064 49.5784 75.1087 81.9982C52.0109 114.418 -5.61776 168.434 1.17828 217.895C7.97432 267.357 74.6018 304.886 170.047 288.399C265.492 271.912 293.164 265.656 336.65 278.168C380.136 290.679 436.613 271.912 437.739 200.841C438.866 129.771 378.44 71.7859 378.44 71.7859Z" fill="white"/>
<path d="M312.356 229.455H315.923V194.855H312.356V229.455Z" fill="#263238" stroke="#263238" stroke-linecap="round" stroke-linejoin="round"/>
<path d="M330.12 196.07L336.411 196.81L340.402 162.445L334.112 161.704L330.12 196.07Z" fill="#263238" stroke="#263238" stroke-linecap="round" stroke-linejoin="round"/>
<path d="M309.609 230.872V225.038H318.664V230.923L354.885 245.557V252.462H352.413V247.214L314.008 238.413L276.617 247.214V252.462H274.214V245.557L309.609 230.872Z" fill="#8C8C8C" stroke="#263238" stroke-linecap="round" stroke-linejoin="round"/>
<path d="M305.222 205.905H323.057V194.855H305.222V205.905Z" fill="#263238" stroke="#263238" stroke-linecap="round" stroke-linejoin="round"/>
<path d="M354.916 252.74C354.916 251.974 355.141 251.226 355.564 250.59C355.986 249.954 356.587 249.458 357.289 249.165C357.992 248.873 358.765 248.796 359.51 248.946C360.256 249.096 360.94 249.465 361.477 250.007C362.014 250.548 362.38 251.238 362.527 251.989C362.675 252.74 362.598 253.517 362.306 254.224C362.014 254.931 361.521 255.535 360.888 255.959C360.256 256.383 359.512 256.609 358.752 256.608C358.248 256.608 357.748 256.508 357.282 256.313C356.817 256.119 356.393 255.834 356.037 255.474C355.681 255.115 355.398 254.689 355.206 254.219C355.014 253.75 354.915 253.247 354.916 252.74Z" fill="#263238" stroke="#263238" stroke-linecap="round" stroke-linejoin="round"/>
<path d="M357.075 252.739C357.075 252.412 357.171 252.091 357.352 251.819C357.533 251.546 357.79 251.334 358.091 251.209C358.392 251.083 358.722 251.05 359.042 251.114C359.361 251.178 359.654 251.336 359.884 251.568C360.115 251.8 360.271 252.095 360.335 252.416C360.398 252.738 360.366 253.071 360.241 253.373C360.117 253.676 359.906 253.935 359.635 254.117C359.364 254.299 359.046 254.396 358.721 254.396C358.284 254.396 357.866 254.222 357.557 253.911C357.248 253.6 357.075 253.179 357.075 252.739Z" fill="white" stroke="#263238" stroke-linecap="round" stroke-linejoin="round"/>
<path d="M266.254 252.74C266.254 251.974 266.48 251.227 266.902 250.59C267.324 249.954 267.924 249.459 268.626 249.166C269.328 248.873 270.101 248.796 270.846 248.946C271.592 249.095 272.276 249.463 272.814 250.004C273.351 250.545 273.717 251.235 273.865 251.985C274.013 252.735 273.937 253.513 273.647 254.22C273.356 254.927 272.863 255.531 272.231 255.956C271.6 256.381 270.857 256.608 270.097 256.608C269.078 256.608 268.1 256.2 267.38 255.475C266.659 254.749 266.254 253.765 266.254 252.74Z" fill="#263238" stroke="#263238" stroke-linecap="round" stroke-linejoin="round"/>
<path d="M270.097 254.396C271.006 254.396 271.743 253.655 271.743 252.739C271.743 251.824 271.006 251.083 270.097 251.083C269.188 251.083 268.451 251.824 268.451 252.739C268.451 253.655 269.188 254.396 270.097 254.396Z" fill="white" stroke="#263238" stroke-linecap="round" stroke-linejoin="round"/>
<path d="M312.488 252.664H315.504L317.018 231.943H310.979L312.488 252.664Z" fill="#8C8C8C" stroke="#263238" stroke-linecap="round" stroke-linejoin="round"/>
<path d="M312.631 256.803H315.648V248.241H312.631V256.803Z" fill="#263238" stroke="#263238" stroke-linecap="round" stroke-linejoin="round"/>
<path d="M337.894 178.954C339.654 179.125 341.431 178.945 343.122 178.425C344.813 177.905 346.385 177.055 347.75 175.923C349.114 174.791 350.244 173.399 351.074 171.828C351.904 170.256 352.419 168.535 352.588 166.763L356.793 122.72C357.135 119.142 356.051 115.574 353.781 112.8C351.51 110.026 348.238 108.274 344.684 107.928C341.13 107.585 337.585 108.678 334.83 110.965C332.075 113.252 330.334 116.546 329.991 120.124L325.779 164.224C325.453 167.793 326.545 171.347 328.816 174.108C331.086 176.868 334.351 178.611 337.894 178.954Z" fill="#8C8C8C" stroke="#263238" stroke-linecap="round" stroke-linejoin="round"/>
<path d="M334.703 178.645C338.257 178.989 341.801 177.898 344.557 175.612C347.312 173.326 349.053 170.032 349.396 166.455L353.608 122.355C353.939 118.782 352.85 115.223 350.579 112.457C348.308 109.691 345.041 107.945 341.493 107.6C339.733 107.43 337.957 107.61 336.266 108.131C334.575 108.652 333.003 109.503 331.639 110.635C330.276 111.768 329.147 113.16 328.317 114.732C327.488 116.304 326.974 118.025 326.806 119.797L322.594 163.859C322.252 167.436 323.336 171.004 325.607 173.777C327.878 176.549 331.15 178.301 334.703 178.645Z" fill="#8C8C8C" stroke="#263238" stroke-linecap="round" stroke-linejoin="round"/>
<path d="M276.123 198.32L338.927 199.983C339.276 199.994 339.623 199.936 339.949 199.812C340.275 199.687 340.573 199.5 340.827 199.259C341.081 199.019 341.286 198.73 341.429 198.41C341.572 198.09 341.651 197.745 341.662 197.394L341.981 187.276C341.992 186.925 341.934 186.576 341.81 186.248C341.687 185.919 341.5 185.619 341.262 185.363C341.023 185.107 340.736 184.902 340.418 184.757C340.1 184.613 339.757 184.534 339.409 184.523L276.611 182.86C276.263 182.848 275.916 182.906 275.59 183.029C275.264 183.153 274.965 183.34 274.711 183.58C274.457 183.82 274.253 184.108 274.109 184.428C273.966 184.747 273.887 185.092 273.877 185.443L273.564 195.567C273.542 196.273 273.799 196.96 274.278 197.476C274.758 197.992 275.422 198.295 276.123 198.32Z" fill="#8C8C8C" stroke="#263238" stroke-linecap="round" stroke-linejoin="round"/>
<path d="M302.382 198.809L338.935 199.972C340.399 200.019 341.624 198.861 341.671 197.387L341.988 187.268C342.035 185.793 340.885 184.56 339.42 184.513L302.867 183.351C301.403 183.304 300.178 184.462 300.132 185.936L299.814 196.055C299.768 197.53 300.917 198.763 302.382 198.809Z" fill="#8C8C8C" stroke="#263238" stroke-linecap="round" stroke-linejoin="round"/>
<path d="M271.937 241.614L271.63 243.945C271.63 243.945 268.851 249.539 267.769 250.472C266.686 251.404 259.896 254.352 258.664 254.819C257.431 255.285 259.59 256.709 262.525 256.841C265.46 256.973 270.86 256.998 272.713 256.532C274.565 256.066 278.113 253.42 278.889 253.269L279.515 255.285C279.515 255.285 282.913 254.025 284.146 253.735C285.378 253.445 287.387 251.845 287.387 251.845C286.686 249.675 285.863 247.546 284.922 245.469C284.352 244.427 283.621 243.483 282.756 242.672L280.447 239.9L271.937 241.614Z" fill="#263238" stroke="#263238" stroke-linecap="round" stroke-linejoin="round"/>
<path d="M290.616 152.834L285.522 155.94L274.408 159.203C274.408 159.203 239.214 165.73 237.205 168.08C235.197 170.43 235.954 172.433 237.669 175.388C239.383 178.343 269.183 243.787 269.183 243.787L281.536 241.299L260.848 178.632C260.848 178.632 299.753 186.558 306.53 185.31C313.307 184.063 321.968 176.768 323.508 171.173C325.047 165.579 317.951 156.683 317.951 156.683L290.616 152.834Z" fill="#BDD0FB" stroke="#263238" stroke-linecap="round" stroke-linejoin="round"/>
<path d="M252.093 172.553C252.093 172.553 259.871 176.333 261.267 180.586" stroke="#263238" stroke-linecap="round" stroke-linejoin="round"/>
<path d="M330.904 100.928L314.233 99.3723L289.847 155.008L305.898 157.805L330.904 100.928Z" fill="white" stroke="#263238" stroke-linecap="round" stroke-linejoin="round"/>
<path d="M314.54 104.57C314.54 104.57 290.153 154.22 289.834 155.008C289.515 155.795 282.581 157.805 281.035 158.113C279.49 158.422 274.396 159.203 274.396 159.203L283.044 153.3L289.208 137.292L281.699 133.43C281.699 133.43 295.591 112.451 298.676 105.301C301.762 98.15 302.976 96.26 306.054 96.1088C309.133 95.9576 317.944 96.575 317.944 96.575L314.54 104.57Z" fill="#BDD0FB" stroke="#263238" stroke-linecap="round" stroke-linejoin="round"/>
<path d="M311.148 115.066L311.455 118.644C311.455 118.644 295.247 147.857 295.097 148.481C294.947 149.105 296.349 153.452 296.349 153.452L302.062 149.256L312.863 119.268L315.798 117.554V112.004L311.148 115.066Z" fill="#263238" stroke="#263238" stroke-linecap="round" stroke-linejoin="round"/>
<path d="M317.594 61.3644C317.594 61.3644 311.862 75.3378 310.591 79.5714C309.321 83.805 308.426 90.7224 308.714 91.491C309.002 92.2596 310.591 94.9497 313.551 95.082C316.511 95.2143 319.027 95.208 319.027 95.208L314.571 104.57C314.571 104.57 315.078 111.878 315.823 112.004C316.568 112.13 327.794 103.417 328.051 103.026C328.307 102.636 335.435 87.2763 335.435 87.2763C335.435 87.2763 341.806 84.0696 342.187 81.2472C342.312 80.4577 342.224 79.6489 341.932 78.9054C341.64 78.1618 341.156 77.5107 340.529 77.0199V73.5549L343.333 65.094C343.333 65.094 336.33 60.4824 328.558 58.5546C320.785 56.6268 319.133 57.9246 319.133 57.9246L317.594 61.3644Z" fill="white" stroke="#263238" stroke-linecap="round" stroke-linejoin="round"/>
<path d="M330.454 53.5461C330.454 53.5461 318.996 50.4654 313.902 54.9573C308.808 59.4492 322.05 66.6501 326.38 67.2801C330.71 67.9101 336.061 67.0218 334.784 68.181C333.508 69.3402 330.71 71.1294 332.112 72.2823C332.992 72.9936 333.981 73.5554 335.041 73.9455C335.041 73.9455 329.058 87.1755 328.038 88.6875C327.018 90.1995 325.11 90.0987 323.964 89.7144C322.819 89.3301 317.344 85.8714 315.56 85.2288C313.777 84.5862 310.466 82.6647 309.703 84.7185C308.939 86.7723 307.024 95.4852 309.828 97.4067C312.631 99.3282 326.255 94.4583 328.295 93.0471C330.335 91.6359 330.967 89.0718 331.349 88.5615C331.73 88.0512 337.206 78.9477 337.713 78.3051C338.22 77.6625 340.516 77.0451 340.516 77.0451C340.516 77.0451 345.103 67.8093 345.485 64.2246C345.867 60.6399 333.896 53.4201 330.454 53.5461Z" fill="#3535A2" stroke="#263238" stroke-linecap="round" stroke-linejoin="round"/>
<path d="M318.489 71.3625L318.232 77.0325C318.232 77.0325 312.25 83.8239 312.25 84.5925C312.25 85.3611 319.377 84.4666 319.377 84.4666" stroke="#263238" stroke-linecap="round" stroke-linejoin="round"/>
<path d="M317.594 70.0837C317.375 69.6541 317.014 69.3156 316.572 69.1278C316.13 68.9401 315.637 68.9149 315.178 69.0568" stroke="#263238" stroke-linecap="round" stroke-linejoin="round"/>
<path d="M322.944 73.284C322.944 73.284 326.637 72.8997 327.782 75.7221" stroke="#263238" stroke-linecap="round" stroke-linejoin="round"/>
<path d="M312.988 87.5156C312.988 87.5156 316.299 89.5694 318.464 89.5694" stroke="white" stroke-linecap="round" stroke-linejoin="round"/>
<path d="M324.202 78.8407C323.852 79.54 323.214 79.918 322.775 79.6975C322.337 79.477 322.262 78.7273 322.613 78.0343C322.963 77.3413 323.601 76.957 324.04 77.1775C324.478 77.398 324.553 78.1477 324.202 78.8407Z" fill="#263238"/>
<path d="M316.23 75.7222C315.886 76.4152 315.241 76.7995 314.803 76.5727C314.365 76.3459 314.29 75.6088 314.64 74.9095C314.991 74.2102 315.629 73.8322 316.067 74.059C316.505 74.2858 316.58 75.0229 316.23 75.7222Z" fill="#263238"/>
<path d="M260.979 236.416L259.897 242.943L257.581 243.573C257.581 243.573 255.416 246.2 254.959 246.83C254.502 247.46 248.783 251.643 247.243 252.425C245.704 253.206 241.836 253.508 241.993 254.598C242.149 255.688 250.328 256.62 255.579 256.772C260.829 256.923 263.758 255.222 263.758 255.222L264.221 256.305L269.621 255.839C269.621 255.839 269.315 250.711 269.471 248.537C269.52 246.77 269.416 245.001 269.158 243.252L268.852 238.747L260.979 236.416Z" fill="#263238" stroke="#263238" stroke-linecap="round" stroke-linejoin="round"/>
<path d="M304.359 160.136C304.359 160.136 260.516 165.573 259.59 166.663C258.664 167.752 259.433 199.92 259.433 199.92L254.339 237.569L270.084 242.42C270.084 242.42 275.028 210.674 276.724 202.1C277.883 195.724 278.708 189.291 279.196 182.828C279.196 182.828 303.432 188.423 311.737 183.761C320.041 179.099 318.37 173.347 318.37 173.347" fill="#BDD0FB"/>
<path d="M304.359 160.136C304.359 160.136 260.516 165.573 259.59 166.663C258.664 167.752 259.433 199.92 259.433 199.92L254.339 237.569L270.084 242.42C270.084 242.42 275.028 210.674 276.724 202.1C277.883 195.724 278.708 189.291 279.196 182.828C279.196 182.828 303.432 188.423 311.737 183.761C320.041 179.099 318.37 173.347 318.37 173.347" stroke="#263238" stroke-linecap="round" stroke-linejoin="round"/>
<path d="M260.272 198.66C260.272 198.66 262.268 189.626 262.662 184.8" stroke="#263238" stroke-linecap="round" stroke-linejoin="round"/>
<path d="M275.935 177.631C275.46 176.99 274.888 176.429 274.24 175.968" stroke="#263238" stroke-linecap="round" stroke-linejoin="round"/>
<path d="M279.196 182.828C279.196 182.828 278.307 181.077 277.143 179.307" stroke="#263238" stroke-linecap="round" stroke-linejoin="round"/>
<path d="M330.291 97.9736C330.291 97.9736 312.844 130.28 309.14 138.533C305.435 146.786 300.472 158.271 300.472 159.512C300.472 160.753 297.231 192.619 298.313 193.236C299.396 193.853 315.598 188.574 323.163 185.626C330.729 182.677 331.036 180.497 331.655 178.784C332.275 177.07 332.118 155.008 332.118 155.008C332.118 155.008 347.863 109.937 347.707 107.921C347.55 105.905 330.291 97.9736 330.291 97.9736Z" fill="#BDD0FB" stroke="#263238" stroke-linecap="round" stroke-linejoin="round"/>
<path d="M317.031 130.658C314.171 133.481 311.768 135.585 311.768 135.585" stroke="#263238" stroke-linecap="round" stroke-linejoin="round"/>
<path d="M335.848 101.546C335.848 101.546 328.595 115.847 324.884 121.599C323.053 124.235 320.988 126.698 318.714 128.957" stroke="#263238" stroke-linecap="round" stroke-linejoin="round"/>
<path d="M312.644 98.5471C312.644 98.5471 305.135 111.185 302.969 118.644C300.804 126.103 300.341 129.984 300.341 129.984" stroke="#263238" stroke-linecap="round" stroke-linejoin="round"/>
<path d="M308.677 116.622L315.81 112.004L316.086 122.84" stroke="#263238" stroke-linecap="round" stroke-linejoin="round"/>
<path d="M323.896 165.176L326.28 164.798" stroke="#263238" stroke-linecap="round" stroke-linejoin="round"/>
<path d="M325.504 162L308.677 164.023V167.595L320.692 165.686" stroke="#263238" stroke-linecap="round" stroke-linejoin="round"/>
<path d="M302.043 103.411C302.043 103.411 304.822 97.5075 306.211 97.35C307.6 97.1925 310.685 97.35 310.685 98.61C310.685 99.87 308.989 100.009 308.989 100.009H306.674L305.591 102.806L302.043 103.411Z" fill="white" stroke="#263238" stroke-linecap="round" stroke-linejoin="round"/>
<path d="M298.182 114.6L299.265 108.539C299.265 108.539 299.728 103.26 300.516 102.945C301.305 102.63 308.389 102.793 308.389 102.793C308.389 102.793 308.545 109.005 307.925 110.561C307.306 112.117 304.527 112.735 304.527 112.735C304.271 113.704 303.91 114.642 303.451 115.532C302.988 116.162 301.286 116.931 301.286 116.931L300.823 118.191L296.812 115.545L298.182 114.6Z" fill="white" stroke="#263238" stroke-linecap="round" stroke-linejoin="round"/>
<path d="M304.509 112.741L303.739 109.786L306.674 109.629" fill="white"/>
<path d="M304.509 112.741L303.739 109.786L306.674 109.629" stroke="#263238" stroke-linecap="round" stroke-linejoin="round"/>
<path d="M296.636 114.139L302.969 118.644L300.497 121.284L295.097 116.313L296.636 114.139Z" fill="white" stroke="#263238" stroke-linecap="round" stroke-linejoin="round"/>
<path d="M295.097 116.313L302.35 121.75L288.457 143.044C286.814 143.395 285.106 143.286 283.52 142.729C280.892 141.796 278.426 136.517 278.426 135.893C278.426 135.27 295.097 116.313 295.097 116.313Z" fill="#BDD0FB" stroke="#263238" stroke-linecap="round" stroke-linejoin="round"/>
<path d="M289.54 141.022C289.54 141.022 287.225 136.668 287.068 135.427C286.912 134.186 286.761 131.698 285.985 130.765C285.209 129.833 284.29 129.209 283.983 127.81C283.676 126.412 282.281 127.036 282.106 128.44C281.93 129.845 283.182 131.238 283.182 131.238C283.182 131.238 279.327 129.978 278.708 130.305C278.088 130.633 276.83 131.08 277.162 132.195C277.368 132.879 277.63 133.545 277.944 134.186C277.944 134.186 275.479 137.449 275.479 138.999C275.479 140.549 277.174 143.044 278.413 143.976C279.653 144.909 283.97 145.866 283.97 145.866L289.54 141.022Z" fill="white" stroke="#263238" stroke-linecap="round" stroke-linejoin="round"/>
<path d="M334.077 109.043L320.103 138.224L285.985 140.114C285.125 140.324 284.339 140.769 283.713 141.399C283.087 142.029 282.646 142.82 282.437 143.686C282.079 145.108 281.923 146.574 281.974 148.04C281.974 148.04 304.665 150.837 311.768 151.303C318.871 151.769 327.513 152.702 328.595 151.612C329.678 150.522 342.488 123.797 342.488 123.797" fill="#BDD0FB"/>
<path d="M334.077 109.043L320.103 138.224L285.985 140.114C285.125 140.324 284.339 140.769 283.713 141.399C283.087 142.029 282.646 142.82 282.437 143.686C282.079 145.108 281.923 146.574 281.974 148.04C281.974 148.04 304.665 150.837 311.768 151.303C318.871 151.769 327.513 152.702 328.595 151.612C329.678 150.522 342.488 123.797 342.488 123.797" stroke="#263238" stroke-linecap="round" stroke-linejoin="round"/>
<path d="M129.864 194.861H126.297V229.461H129.864V194.861Z" fill="#263238" stroke="#263238" stroke-linecap="round" stroke-linejoin="round"/>
<path d="M108.13 161.711L101.839 162.452L105.831 196.817L112.121 196.077L108.13 161.711Z" fill="#263238" stroke="#263238" stroke-linecap="round" stroke-linejoin="round"/>
<path d="M132.612 230.872V225.039H123.556V230.923L87.3359 245.558V252.462H89.8078V247.215L128.212 238.413L165.603 247.215V252.462H168.006V245.558L132.612 230.872Z" fill="#8C8C8C" stroke="#263238" stroke-linecap="round" stroke-linejoin="round"/>
<path d="M136.998 194.861H119.163V205.912H136.998V194.861Z" fill="#263238" stroke="#263238" stroke-linecap="round" stroke-linejoin="round"/>
<path d="M87.3359 252.74C87.3359 251.974 87.1106 251.227 86.6884 250.59C86.2662 249.954 85.6661 249.459 84.964 249.166C84.2619 248.873 83.4893 248.796 82.744 248.946C81.9986 249.095 81.314 249.463 80.7766 250.004C80.2393 250.545 79.8733 251.235 79.7251 251.985C79.5768 252.735 79.6529 253.513 79.9437 254.22C80.2345 254.927 80.727 255.531 81.3589 255.956C81.9908 256.381 82.7336 256.608 83.4936 256.608C84.5126 256.608 85.4899 256.2 86.2105 255.475C86.9311 254.749 87.3359 253.765 87.3359 252.74Z" fill="#263238" stroke="#263238" stroke-linecap="round" stroke-linejoin="round"/>
<path d="M85.1394 252.739C85.1394 252.412 85.0429 252.091 84.862 251.819C84.6812 251.546 84.4242 251.334 84.1234 251.209C83.8227 251.083 83.4918 251.05 83.1725 251.114C82.8533 251.178 82.56 251.336 82.3298 251.568C82.0997 251.8 81.9429 252.095 81.8794 252.416C81.8159 252.738 81.8485 253.071 81.9731 253.373C82.0976 253.676 82.3086 253.935 82.5792 254.117C82.8499 254.299 83.1681 254.396 83.4936 254.396C83.9301 254.396 84.3487 254.222 84.6574 253.911C84.966 253.6 85.1394 253.179 85.1394 252.739Z" fill="white" stroke="#263238" stroke-linecap="round" stroke-linejoin="round"/>
<path d="M175.941 252.74C175.941 251.974 175.716 251.227 175.293 250.59C174.871 249.954 174.271 249.459 173.569 249.166C172.867 248.873 172.094 248.796 171.349 248.946C170.604 249.095 169.919 249.463 169.382 250.004C168.844 250.545 168.478 251.235 168.33 251.985C168.182 252.735 168.258 253.513 168.549 254.22C168.84 254.927 169.332 255.531 169.964 255.956C170.596 256.381 171.339 256.608 172.099 256.608C173.118 256.608 174.095 256.2 174.816 255.475C175.536 254.749 175.941 253.765 175.941 252.74Z" fill="#263238" stroke="#263238" stroke-linecap="round" stroke-linejoin="round"/>
<path d="M172.124 254.396C173.033 254.396 173.769 253.655 173.769 252.739C173.769 251.824 173.033 251.083 172.124 251.083C171.215 251.083 170.478 251.824 170.478 252.739C170.478 253.655 171.215 254.396 172.124 254.396Z" fill="white" stroke="#263238" stroke-linecap="round" stroke-linejoin="round"/>
<path d="M129.727 252.664H126.71L125.202 231.943H131.241L129.727 252.664Z" fill="#8C8C8C" stroke="#263238" stroke-linecap="round" stroke-linejoin="round"/>
<path d="M129.589 248.241H126.573V256.803H129.589V248.241Z" fill="#263238" stroke="#263238" stroke-linecap="round" stroke-linejoin="round"/>
<path d="M104.326 178.954C102.566 179.125 100.79 178.946 99.0988 178.426C97.4078 177.906 95.8351 177.055 94.4706 175.923C93.1061 174.791 91.9766 173.399 91.1464 171.828C90.3163 170.256 89.8018 168.535 89.6325 166.763L85.4209 122.663C85.2509 120.892 85.4292 119.103 85.9457 117.401C86.4623 115.699 87.3069 114.115 88.4314 112.742C89.5559 111.368 90.9382 110.231 92.4993 109.395C94.0605 108.559 95.7699 108.041 97.5299 107.871C101.085 107.529 104.629 108.621 107.384 110.908C110.139 113.195 111.88 116.49 112.223 120.068L116.435 164.168C116.777 167.745 115.693 171.313 113.422 174.085C111.151 176.858 107.879 178.61 104.326 178.954Z" fill="#8C8C8C" stroke="#263238" stroke-linecap="round" stroke-linejoin="round"/>
<path d="M107.518 178.645C103.964 178.989 100.419 177.898 97.6639 175.612C94.9086 173.326 93.1677 170.032 92.8241 166.455L88.6125 122.355C88.2813 118.783 89.3697 115.225 91.6393 112.459C93.909 109.693 97.1748 107.946 100.722 107.6C104.277 107.256 107.822 108.348 110.577 110.635C113.333 112.922 115.073 116.218 115.415 119.797L119.62 163.853C119.962 167.43 118.879 170.997 116.61 173.771C114.341 176.544 111.07 178.298 107.518 178.645Z" fill="#8C8C8C" stroke="#263238" stroke-linecap="round" stroke-linejoin="round"/>
<path d="M168.269 198.32L103.293 199.983C102.945 199.994 102.598 199.936 102.272 199.812C101.946 199.687 101.647 199.5 101.393 199.259C101.139 199.019 100.935 198.73 100.791 198.41C100.648 198.09 100.569 197.745 100.559 197.394L100.221 187.276C100.199 186.569 100.457 185.881 100.938 185.365C101.419 184.849 102.084 184.546 102.787 184.523L167.806 182.86C168.154 182.848 168.501 182.906 168.827 183.029C169.153 183.153 169.452 183.34 169.706 183.58C169.96 183.82 170.164 184.108 170.307 184.428C170.451 184.747 170.53 185.092 170.54 185.443L170.86 195.567C170.87 195.919 170.812 196.27 170.687 196.6C170.563 196.929 170.374 197.231 170.134 197.487C169.893 197.743 169.604 197.948 169.284 198.091C168.964 198.234 168.619 198.312 168.269 198.32Z" fill="#8C8C8C" stroke="#263238" stroke-linecap="round" stroke-linejoin="round"/>
<path d="M139.369 183.357L102.817 184.52C101.352 184.566 100.202 185.799 100.249 187.274L100.566 197.393C100.613 198.867 101.837 200.025 103.302 199.978L139.855 198.816C141.319 198.769 142.469 197.536 142.423 196.061L142.105 185.942C142.059 184.468 140.834 183.31 139.369 183.357Z" fill="#8C8C8C" stroke="#263238" stroke-linecap="round" stroke-linejoin="round"/>
<path d="M176.567 177.713C176.567 177.713 177.124 188.524 178.601 198.207C180.077 207.89 182.524 237.267 182.524 237.267C183.294 240.217 184.342 243.086 185.653 245.835C186.529 247.66 187.649 249.356 188.982 250.875C188.982 250.875 193.795 255.719 193.607 256.463C193.419 257.206 190.403 257.131 187.443 256.57C184.483 256.009 183.876 255.31 182.211 254.182C180.547 253.055 176.761 251.612 175.096 251.032C173.432 250.453 172.881 248.991 173.438 247.315C173.995 245.639 175.847 241.727 175.847 239.308C175.847 236.889 174.364 225.41 170.309 217.768C166.254 210.126 163.832 196.903 163.832 196.903L176.567 177.713Z" fill="white" stroke="#263238" stroke-linecap="round" stroke-linejoin="round"/>
<path d="M177.549 247.876C176.373 246.956 175.271 245.986 174.333 245.073C173.982 245.973 173.657 246.767 173.475 247.315C172.918 248.991 173.475 250.465 175.134 251.032C176.792 251.599 180.584 253.048 182.249 254.182C183.913 255.316 184.52 256.009 187.48 256.57C190.44 257.131 193.463 257.2 193.644 256.463C193.826 255.726 189.02 250.875 189.02 250.875L186.617 251.996C186.617 251.996 180.878 250.484 177.549 247.876Z" fill="#FEBAB6" stroke="#263238" stroke-linecap="round" stroke-linejoin="round"/>
<path d="M105.578 155.512C105.578 155.512 103.913 162.076 104.82 166.222C105.728 170.367 111.948 179.956 122.712 182.249C133.475 184.542 160.528 183.792 160.528 183.792C160.528 183.792 154.007 193.765 151.579 205.773C149.977 213.724 145.065 224.849 144.307 226.531C143.55 228.214 134.602 231.263 134.921 232.636C135.24 234.01 136.285 242.552 138.557 246.068C140.828 249.583 144.62 251.108 146.135 251.561C147.649 252.015 147.956 252.015 147.956 250.49C147.956 248.966 146.892 246.83 146.892 245.45C146.892 244.071 146.742 234.74 147.349 233.543C147.956 232.346 167.806 200.84 170.835 195.674C173.863 190.508 178.569 180.409 179.933 178.733C181.298 177.058 182.962 174.764 181.598 171.866C180.234 168.968 148.913 159.266 148.913 159.266L147.267 153.401L131.623 152.488L105.578 155.512Z" fill="white" stroke="#263238" stroke-linecap="round" stroke-linejoin="round"/>
<path d="M148.913 159.26L147.267 153.395L131.623 152.481L105.546 155.531C105.546 155.531 103.844 162.102 104.789 166.241C106.291 172.786 111.917 179.975 122.68 182.268C133.444 184.561 160.497 183.811 160.497 183.811C160.497 183.811 163.062 170.903 168.075 165.869C162.055 163.803 148.913 159.26 148.913 159.26Z" fill="#263238" stroke="#263238" stroke-linecap="round" stroke-linejoin="round"/>
<path d="M160.528 183.767C164.138 182.804 167.642 181.475 170.985 179.798Z" fill="white"/>
<path d="M160.528 183.767C164.138 182.804 167.642 181.475 170.985 179.798" stroke="#263238" stroke-linecap="round" stroke-linejoin="round"/>
<path d="M140.058 239.938C138.982 237.418 139.051 232.378 139.189 229.682C136.898 230.822 134.752 231.924 134.908 232.611C135.209 233.985 136.272 242.527 138.544 246.043C140.816 249.558 144.608 251.083 146.122 251.536C147.637 251.99 147.943 251.99 147.943 250.465C147.943 248.941 146.886 246.811 146.879 245.425C145.294 245.222 143.724 244.913 142.18 244.499C142.18 244.499 141.573 243.447 140.058 239.938Z" fill="#FEBAB6" stroke="#263238" stroke-linecap="round" stroke-linejoin="round"/>
<path d="M137.868 95.0757L133.168 97.0602C133.168 97.0602 136.961 132.8 136.811 137.84C136.66 142.88 136.354 152.96 136.354 152.96C136.354 152.96 142.874 154.945 147.267 153.42L146.967 136.177C146.967 136.177 150.152 119.69 148.938 114.347C147.724 109.005 143.932 99.5424 143.932 99.5424C143.932 99.5424 142.148 95.2269 137.868 95.0757Z" fill="white" stroke="#263238" stroke-linecap="round" stroke-linejoin="round"/>
<path d="M136.516 110.492L141.072 103.505L146.673 111.695C146.673 111.695 144.251 100.248 143.945 99.4858C143.218 98.0491 142.12 96.8367 140.766 95.9767C138.945 94.7545 136.817 94.7167 135.609 94.6033C134.401 94.4899 133.181 97.0477 133.181 97.0477L136.516 110.492Z" fill="white" stroke="#263238" stroke-linecap="round" stroke-linejoin="round"/>
<path d="M134.389 94.5151C134.389 94.5151 119.151 97.873 117.843 98.8306C116.535 99.7882 115.966 102.907 116.291 104.104C116.616 105.301 120.102 131.194 120.102 131.194L102.58 156.961C102.58 156.961 108.3 161.755 113.656 162.713C119.013 163.67 130.44 162.234 134.489 160.558L138.538 158.882C138.538 158.882 140.415 127.596 138.419 115.248C136.423 102.9 134.389 94.5151 134.389 94.5151Z" fill="#FEBAB6" stroke="#263238" stroke-linecap="round" stroke-linejoin="round"/>
<path d="M181.179 134.306L187.13 131.672C187.13 131.672 188.92 127.716 189.158 127.357C189.395 126.998 191.417 126.399 192.368 125.555C193.319 124.711 194.633 123.281 194.99 123.161C195.347 123.041 195.941 124.119 194.99 125.555C194.269 126.573 193.429 127.5 192.487 128.315L198.325 126.16C198.325 126.16 200.584 122.323 201.179 123.999C201.773 125.675 198.676 130.835 197.969 132.51C197.262 134.186 196.536 135.03 195.228 135.27C193.92 135.509 189.871 136.227 189.039 136.347C188.206 136.467 183.081 139.459 183.081 139.459L181.179 134.306Z" fill="white" stroke="#263238" stroke-linecap="round" stroke-linejoin="round"/>
<path d="M189.439 133.109C190.497 132.208 191.717 131.313 192.368 131.313C193.682 131.313 196.536 131.553 196.536 131.553C196.536 131.553 198.206 127.716 199.039 127.143C199.871 126.569 200.584 127.382 199.871 128.579" fill="white"/>
<path d="M189.439 133.109C190.497 132.208 191.717 131.313 192.368 131.313C193.682 131.313 196.536 131.553 196.536 131.553C196.536 131.553 198.206 127.716 199.039 127.143C199.871 126.569 200.584 127.382 199.871 128.579" stroke="#263238" stroke-linecap="round" stroke-linejoin="round"/>
<path d="M142.368 97.394C142.368 97.394 146.179 114.051 146.06 120.282C145.941 126.513 144.026 129.65 144.389 131.792C144.752 133.934 145.578 159.121 145.578 159.121L148.913 159.241C148.913 159.241 148.081 149.653 148.2 147.851C148.319 146.049 149.508 138.861 149.508 138.861C149.508 138.861 155.465 150.73 156.298 151.328C157.13 151.927 184.752 140.064 184.752 140.064L182.724 133.228L161.654 137.544C161.654 137.544 157.487 123.64 156.892 120.641C156.298 117.642 155.822 107.102 154.151 104.463C152.48 101.823 142.368 97.394 142.368 97.394Z" fill="#FEBAB6" stroke="#263238" stroke-linecap="round" stroke-linejoin="round"/>
<path d="M149.508 138.861C149.508 138.861 150.221 135.868 151.416 127.955C152.135 123.231 152.175 118.428 151.535 113.692" stroke="#263238" stroke-linecap="round" stroke-linejoin="round"/>
<path d="M148.206 106.724C148.776 111.04 149.201 116.37 148.438 119.324C147.566 122.678 146.451 125.963 145.102 129.152" stroke="#263238" stroke-linecap="round" stroke-linejoin="round"/>
<path d="M147.155 100.04C147.155 100.04 147.511 101.848 147.906 104.45" stroke="#263238" stroke-linecap="round" stroke-linejoin="round"/>
<path d="M135.766 123.35C137.311 127.206 138.675 130.967 138.675 130.967" stroke="#263238" stroke-linecap="round" stroke-linejoin="round"/>
<path d="M128.556 96.4302C128.556 96.4302 131.291 113.333 133.438 117.888C133.876 118.814 134.351 119.91 134.833 121.038" fill="#FEBAB6"/>
<path d="M128.556 96.4302C128.556 96.4302 131.291 113.333 133.438 117.888C133.876 118.814 134.351 119.91 134.833 121.038" stroke="#263238" stroke-linecap="round" stroke-linejoin="round"/>
<path d="M162.368 130.715L167.011 129.392C167.011 129.392 169.99 125.555 170.703 124.597C171.417 123.64 173.081 123.64 174.276 122.922C175.472 122.203 177.011 119.564 177.606 120.043C178.2 120.521 177.606 122.682 176.98 123.281C176.183 123.93 175.347 124.53 174.477 125.076C174.001 125.435 180.071 123.999 180.071 123.999C180.071 123.999 184.001 120.521 184.239 121.479C184.477 122.437 182.449 125.794 182.449 125.794C182.449 125.794 179.596 128.548 178.163 129.745C176.729 130.942 173.281 131.427 172.33 131.635C171.379 131.842 169.714 132.113 169.714 132.113L162.568 134.747L162.368 130.715Z" fill="white" stroke="#263238" stroke-linecap="round" stroke-linejoin="round"/>
<path d="M181.536 126.5C181.536 126.5 179.032 127.697 177.724 128.296Z" fill="white"/>
<path d="M181.536 126.5C181.536 126.5 179.032 127.697 177.724 128.296" stroke="#263238" stroke-linecap="round" stroke-linejoin="round"/>
<path d="M174.514 125.076L172.368 125.555" stroke="#263238" stroke-linecap="round" stroke-linejoin="round"/>
<path d="M120.459 97.873C120.459 97.873 113.437 100.267 112.361 102.069C111.285 103.871 115.102 118.606 117.962 126.759C120.822 134.911 128.437 148.569 129.389 149.048C130.34 149.527 155.227 140.663 160.922 138.861C166.617 137.059 167.587 136.108 167.587 136.108L165.084 129.631L136.516 134.785L127.755 107.103" fill="#FEBAB6"/>
<path d="M120.459 97.873C120.459 97.873 113.437 100.267 112.361 102.069C111.285 103.871 115.102 118.606 117.962 126.759C120.822 134.911 128.437 148.569 129.389 149.048C130.34 149.527 155.227 140.663 160.922 138.861C166.617 137.059 167.587 136.108 167.587 136.108L165.084 129.631L136.516 134.785L127.755 107.103" stroke="#263238" stroke-linecap="round" stroke-linejoin="round"/>
<path d="M154.958 61.3708C154.958 61.3708 157.737 63.2608 156.329 65.2957C154.921 67.3306 151.948 67.4692 151.948 67.4692L149.351 63.349C149.351 63.349 152.443 59.6572 154.958 61.3708Z" fill="#3535A2" stroke="#263238" stroke-linecap="round" stroke-linejoin="round"/>
<path d="M152.042 63.8277C152.042 63.8277 156.304 74.0085 156.066 74.8842C155.828 75.7599 153.844 77.127 154.746 78.4563C155.647 79.7856 158.288 82.4442 158.219 82.8159C158.15 83.1876 154.921 85.0839 154.921 85.0839C154.921 85.0839 152.662 93.2739 151.742 94.4709C150.822 95.6679 143.056 94.2126 143.056 94.2126L141.416 103.385L132.192 94.7292L128.744 91.4532C128.744 91.4532 125.653 77.4798 132.211 69.0819C138.769 60.684 152.042 63.8277 152.042 63.8277Z" fill="white" stroke="#263238" stroke-linecap="round" stroke-linejoin="round"/>
<path d="M151.454 78.1729C151.454 79.0297 151.104 79.7228 150.709 79.7165C150.315 79.7102 150.008 79.0046 150.027 78.1415C150.046 77.2784 150.371 76.5916 150.766 76.5979C151.16 76.6042 151.466 77.3098 151.454 78.1729Z" fill="#263238"/>
<path d="M151.473 87.1315C150.735 87.0963 150.013 86.9107 149.349 86.5858C148.686 86.2609 148.094 85.8035 147.612 85.2415C147.612 85.2415 147.38 88.927 148.519 89.1412C149.658 89.3554 151.473 87.1315 151.473 87.1315Z" fill="#263238" stroke="#263238" stroke-linecap="round" stroke-linejoin="round"/>
<path d="M149.076 74.7582C149.076 74.7582 151.448 72.7359 153.569 75.1047" stroke="#263238" stroke-linecap="round" stroke-linejoin="round"/>
<path d="M143.056 94.2127L139.207 93.2866L142.105 98.6983L143.056 94.2127Z" fill="#263238" stroke="#263238" stroke-linecap="round" stroke-linejoin="round"/>
<path d="M152.042 63.8277C152.042 63.8277 151.204 66.48 147.105 69.945C143.006 73.41 139.339 75.615 139.351 76.5726C139.364 77.5302 139.977 78.4248 139.151 78.6579C138.478 78.7445 137.794 78.6283 137.186 78.324C137.186 78.324 135.196 84.0381 134.896 88.0701C134.774 90.7313 135.176 93.3905 136.078 95.8947C136.078 95.8947 127.249 96.3735 122.155 92.4801C117.061 88.5867 115.628 84.1767 116.191 80.3526C116.754 76.5285 118.369 64.4514 126.204 58.5357C134.038 52.62 145.265 52.8657 149.076 55.2786C152.887 57.6915 155.647 59.4618 154.946 61.3707C154.245 63.2796 152.042 63.8277 152.042 63.8277Z" fill="#3535A2" stroke="#263238" stroke-linecap="round" stroke-linejoin="round"/>
<path d="M133.538 184.151C133.304 184.153 133.073 184.101 132.862 184C132.415 183.755 132.073 183.354 131.899 182.873C131.725 182.391 131.731 181.863 131.917 181.386C134.745 173.611 137.987 159.745 134.664 155.606C133.888 154.976 129.214 153.716 104.032 156.337L102.198 156.526C100.44 156.677 98.938 159.235 98.55 160.117C98.4673 160.342 98.3376 160.547 98.1698 160.717C98.0019 160.888 97.7998 161.02 97.5769 161.106C97.354 161.191 97.1155 161.227 96.8775 161.212C96.6395 161.197 96.4075 161.131 96.1971 161.018C95.7663 160.74 95.4495 160.315 95.3046 159.821C95.1598 159.327 95.1967 158.797 95.4086 158.328C95.6526 157.773 97.9117 152.884 101.929 152.532L103.713 152.349C130.546 149.539 135.69 150.957 137.255 152.897C143.162 160.255 136.003 180.617 135.159 182.916C135.049 183.266 134.834 183.572 134.543 183.794C134.253 184.015 133.902 184.14 133.538 184.151Z" fill="white" stroke="#263238" stroke-linecap="round" stroke-linejoin="round"/>
<path d="M244.164 124.95H203.044L193.532 157.389H234.652L244.164 124.95Z" fill="#D9D9D9" stroke="#263238" stroke-linecap="round" stroke-linejoin="round"/>
<path d="M163.45 155.612L162.931 157.389H234.652L235.178 155.612H163.45Z" fill="#D9D9D9" stroke="#263238" stroke-linecap="round" stroke-linejoin="round"/>
<path d="M194.126 155.612L193.607 157.389H234.652L235.178 155.612H194.126Z" fill="#263238" stroke="#263238" stroke-linecap="round" stroke-linejoin="round"/>
<path d="M234.064 162.259H227.105V255.927H234.064V162.259Z" fill="white" stroke="#263238" stroke-linecap="round" stroke-linejoin="round"/>
<path d="M234.064 162.259H227.105V177.732H234.064V162.259Z" fill="#263238" stroke="#263238" stroke-linecap="round" stroke-linejoin="round"/>
<path d="M318.601 157.408H141.942V162.612H318.601V157.408Z" fill="white" stroke="#263238" stroke-linecap="round" stroke-linejoin="round"/>
<path d="M266.893 256.689H193.676C200.919 253.26 208.825 251.483 216.83 251.486H243.82C251.825 251.481 259.731 253.258 266.974 256.689H266.893Z" fill="white" stroke="#263238" stroke-linecap="round" stroke-linejoin="round"/>
</svg>
