<svg width="76" height="70" viewBox="0 0 76 70" fill="none" xmlns="http://www.w3.org/2000/svg">
<path opacity="0.7" d="M73.7749 42.9647C71.3655 49.5883 66.4466 56.7581 59.5226 58.8821C49.0606 62.0902 47.8106 70.7506 29.0728 69.9477C26.3361 69.8435 23.6189 69.4341 20.97 68.727C19.6745 68.3768 18.4025 67.9422 17.162 67.4256C6.21484 62.8717 0.506817 52.8491 0.0298013 42.3626C-0.595979 28.5692 8.77456 21.995 14.8642 18.1452C20.9538 14.2954 28.2983 -0.619998 46.7192 0.0199859C49.5333 0.106446 52.328 0.526058 55.0467 1.27034C61.248 2.99287 67.551 6.80645 71.2168 12.3788C71.4917 12.7988 71.7542 13.2266 72.0043 13.662C76.9022 22.2039 77.0574 33.9326 73.7749 42.9647Z" fill="#FEBAB6"/>
<path d="M46.625 15.25C46.625 15.25 46.625 6.125 37.5 6.125C28.375 6.125 28.375 15.25 28.375 15.25M19.25 56.3125V15.25M55.75 56.3125V15.25M68.4375 56.3125H6.5625C6.01022 56.3125 5.5625 55.8648 5.5625 55.3125V16.25C5.5625 15.6977 6.01022 15.25 6.5625 15.25H68.4375C68.9898 15.25 69.4375 15.6977 69.4375 16.25V55.3125C69.4375 55.8648 68.9898 56.3125 68.4375 56.3125Z" stroke="#636262" stroke-width="3" stroke-linecap="round" stroke-linejoin="round"/>
</svg>
