<svg width="17" height="35" viewBox="0 0 17 35" fill="none" xmlns="http://www.w3.org/2000/svg">
<path d="M13.6313 33.8272L0.430876 18.7559C0.274194 18.5765 0.163472 18.3821 0.0987097 18.1728C0.0329032 17.9635 0 17.7392 0 17.5C0 17.2608 0.0329032 17.0365 0.0987097 16.8272C0.163472 16.6179 0.274194 16.4235 0.430876 16.2441L13.6313 1.12797C13.9969 0.709323 14.4539 0.5 15.0023 0.5C15.5507 0.5 16.0207 0.724274 16.4124 1.17282C16.8041 1.62137 17 2.14468 17 2.74274C17 3.34081 16.8041 3.86412 16.4124 4.31266L4.89631 17.5L16.4124 30.6873C16.778 31.106 16.9608 31.6215 16.9608 32.2339C16.9608 32.8475 16.765 33.3786 16.3733 33.8272C15.9816 34.2757 15.5246 34.5 15.0023 34.5C14.48 34.5 14.023 34.2757 13.6313 33.8272Z" fill="#3535A2"/>
</svg>
