<svg width="97" height="96" viewBox="0 0 97 96" fill="none" xmlns="http://www.w3.org/2000/svg">
<path opacity="0.7" d="M76.018 69.5544C71.092 74.7989 63.7391 79.5574 56.7805 78.7942C46.2667 77.6399 41.4877 85.2524 25.4444 77.053C23.0957 75.8676 20.894 74.4043 18.8787 72.6893C17.8949 71.8465 16.9676 70.9339 16.1027 69.9571C8.46845 61.3418 7.74305 49.6881 11.7893 39.6792C17.1129 26.5147 28.1049 24.0832 35.0685 22.8988C42.032 21.7144 54.8026 10.6671 70.638 18.5881C73.062 19.7876 75.3271 21.2913 77.3877 23.0689C82.0771 27.1466 85.9655 33.2228 86.7993 39.8976C86.8608 40.4002 86.9083 40.9051 86.9417 41.4122C87.5889 51.3574 82.7326 62.4016 76.018 69.5544Z" fill="#BDD0FB"/>
<path d="M71.5004 30.6895V26.127C71.5004 24.5136 70.8594 22.9663 69.7186 21.8254C68.5778 20.6846 67.0304 20.0437 65.417 20.0437H22.8337C21.2203 20.0437 19.673 20.6846 18.5321 21.8254C17.3913 22.9663 16.7504 24.5136 16.7504 26.127V68.7103C16.7504 70.3237 17.3913 71.871 18.5321 73.0119C19.673 74.1527 21.2203 74.7937 22.8337 74.7937H33.4795M56.292 13.9603V26.127M31.9587 13.9603V26.127M16.7504 38.2937H31.9587M60.8545 61.1062L56.292 57.3041V50.4603" stroke="#636262" stroke-width="3" stroke-linecap="round" stroke-linejoin="round"/>
<path d="M74.5421 56.5437C74.5421 61.3839 72.6193 66.0258 69.1968 69.4484C65.7742 72.8709 61.1323 74.7937 56.2921 74.7937C51.4519 74.7937 46.8099 72.8709 43.3874 69.4484C39.9648 66.0258 38.0421 61.3839 38.0421 56.5437C38.0421 51.7035 39.9648 47.0615 43.3874 43.639C46.8099 40.2164 51.4519 38.2937 56.2921 38.2937C61.1323 38.2937 65.7742 40.2164 69.1968 43.639C72.6193 47.0615 74.5421 51.7035 74.5421 56.5437Z" stroke="#636262" stroke-width="3" stroke-linecap="round" stroke-linejoin="round"/>
</svg>
