<svg width="16" height="28" viewBox="0 0 16 28" fill="none" xmlns="http://www.w3.org/2000/svg">
<path d="M0.0477577 13.9999C0.0477577 14.3178 0.107353 14.6253 0.226539 14.9224C0.345725 15.2212 0.504639 15.4699 0.703283 15.6685L11.6684 26.6337C12.1054 27.0707 12.6616 27.2892 13.337 27.2892C14.0124 27.2892 14.5686 27.0707 15.0056 26.6337C15.4426 26.1966 15.6611 25.6404 15.6611 24.9651C15.6611 24.2897 15.4426 23.7335 15.0056 23.2965L5.7091 13.9999L15.0056 4.70343C15.4426 4.26641 15.6611 3.71021 15.6611 3.03482C15.6611 2.35944 15.4426 1.80324 15.0056 1.36622C14.5686 0.929207 14.0124 0.710695 13.337 0.710695C12.6616 0.710695 12.1054 0.929207 11.6684 1.36622L0.703283 12.3313C0.464911 12.5697 0.296462 12.8279 0.197934 13.106C0.097818 13.3841 0.0477577 13.6821 0.0477577 13.9999Z" fill="#3535A2"/>
</svg>
