<svg width="34" height="28" viewBox="0 0 34 28" fill="none" xmlns="http://www.w3.org/2000/svg">
<path d="M3.66683 27.3333C2.75016 27.3333 1.96572 27.0072 1.3135 26.355C0.660163 25.7016 0.333496 24.9166 0.333496 24V3.99996C0.333496 3.08329 0.660163 2.29885 1.3135 1.64663C1.96572 0.993292 2.75016 0.666626 3.66683 0.666626H30.3335C31.2502 0.666626 32.0352 0.993292 32.6885 1.64663C33.3407 2.29885 33.6668 3.08329 33.6668 3.99996V24C33.6668 24.9166 33.3407 25.7016 32.6885 26.355C32.0352 27.0072 31.2502 27.3333 30.3335 27.3333H3.66683ZM17.0002 15.6666L3.66683 7.33329V24H30.3335V7.33329L17.0002 15.6666ZM17.0002 12.3333L30.3335 3.99996H3.66683L17.0002 12.3333ZM3.66683 7.33329V3.99996V24V7.33329Z" fill="#252424"/>
</svg>
