<svg width="84" height="74" viewBox="0 0 84 74" fill="none" xmlns="http://www.w3.org/2000/svg">
<path d="M41.9999 18.6667C47.0625 18.6667 51.1666 14.5626 51.1666 9.5C51.1666 4.43739 47.0625 0.333336 41.9999 0.333336C36.9373 0.333336 32.8333 4.43739 32.8333 9.5C32.8333 14.5626 36.9373 18.6667 41.9999 18.6667Z" fill="#757575"/>
<path d="M83.25 55.3333V46.1667C72.9833 46.1667 64.1833 41.7667 57.5833 33.8833L51.4417 26.55C49.7 24.4417 47.1333 23.25 44.4292 23.25H39.6167C36.9125 23.25 34.3458 24.4417 32.6042 26.55L26.4625 33.8833C19.8167 41.7667 11.0167 46.1667 0.75 46.1667V55.3333C13.4458 55.3333 24.5375 49.9708 32.8333 40.4375V50.75L15.05 57.8542C11.9792 59.0917 9.91667 62.1167 9.91667 65.4625C9.91667 70 13.5833 73.6667 18.1208 73.6667H28.25V71.375C28.25 65.05 33.3833 59.9167 39.7083 59.9167H53.4583C54.7417 59.9167 55.75 60.925 55.75 62.2083C55.75 63.4917 54.7417 64.5 53.4583 64.5H39.7083C35.9042 64.5 32.8333 67.5708 32.8333 71.375V73.6667H65.8792C70.4167 73.6667 74.0833 70 74.0833 65.4625C74.0833 62.1167 72.0208 59.0917 68.95 57.8542L51.1667 50.75V40.4375C59.4625 49.9708 70.5542 55.3333 83.25 55.3333Z" fill="#757575"/>
</svg>
