<svg width="18" height="9" viewBox="0 0 18 9" fill="none" xmlns="http://www.w3.org/2000/svg">
<path d="M16.9625 1.65615L9.61247 7.9749C9.52497 8.0499 9.43018 8.1029 9.3281 8.1339C9.22602 8.1654 9.11664 8.18115 8.99998 8.18115C8.88331 8.18115 8.77393 8.1654 8.67185 8.1339C8.56977 8.1029 8.47498 8.0499 8.38748 7.9749L1.0156 1.65615C0.811434 1.48115 0.70935 1.2624 0.70935 0.999903C0.70935 0.737402 0.818725 0.512403 1.03748 0.324903C1.25623 0.137403 1.51143 0.0436525 1.8031 0.0436525C2.09477 0.0436525 2.34998 0.137402 2.56873 0.324902L8.99998 5.8374L15.4312 0.324902C15.6354 0.149902 15.8868 0.0624021 16.1855 0.062402C16.4847 0.062402 16.7437 0.156152 16.9625 0.343652C17.1812 0.531152 17.2906 0.749902 17.2906 0.999902C17.2906 1.2499 17.1812 1.46865 16.9625 1.65615Z" fill="#252424"/>
</svg>
