<svg width="31" height="30" viewBox="0 0 31 30" fill="none" xmlns="http://www.w3.org/2000/svg">
<path d="M27.55 20.4333L23.3167 19.9499C22.8189 19.8915 22.3144 19.9466 21.8409 20.1111C21.3675 20.2757 20.9376 20.5454 20.5833 20.8999L17.5167 23.9666C12.7853 21.5603 8.93964 17.7146 6.53334 12.9833L9.61667 9.89994C10.3333 9.18327 10.6833 8.18327 10.5667 7.1666L10.0833 2.9666C9.98885 2.15356 9.59866 1.40366 8.98707 0.859683C8.37547 0.315701 7.58519 0.0156311 6.76667 0.0166039H3.88334C2.00001 0.0166039 0.43334 1.58327 0.550007 3.4666C1.43334 17.6999 12.8167 29.0666 27.0333 29.9499C28.9167 30.0666 30.4833 28.4999 30.4833 26.6166V23.7333C30.5 22.0499 29.2333 20.6333 27.55 20.4333Z" fill="#252424"/>
</svg>
