<svg width="16" height="28" viewBox="0 0 16 28" fill="none" xmlns="http://www.w3.org/2000/svg">
<path d="M15.9522 13.9999C15.9522 14.3178 15.8926 14.6253 15.7735 14.9224C15.6543 15.2212 15.4954 15.4699 15.2967 15.6685L4.3316 26.6337C3.89459 27.0707 3.33838 27.2892 2.66299 27.2892C1.98761 27.2892 1.43141 27.0707 0.99439 26.6337C0.557374 26.1966 0.338867 25.6404 0.338867 24.9651C0.338867 24.2897 0.557374 23.7335 0.994389 23.2965L10.2909 13.9999L0.994389 4.70343C0.557373 4.26641 0.338866 3.71021 0.338866 3.03482C0.338866 2.35944 0.557373 1.80324 0.994389 1.36622C1.4314 0.929207 1.98761 0.710695 2.66299 0.710695C3.33838 0.710695 3.89458 0.929207 4.3316 1.36622L15.2967 12.3313C15.5351 12.5697 15.7035 12.8279 15.8021 13.106C15.9022 13.3841 15.9522 13.6821 15.9522 13.9999Z" fill="#3535A2"/>
</svg>
