<svg width="27" height="27" viewBox="0 0 27 27" fill="none" xmlns="http://www.w3.org/2000/svg">
<path d="M22.3333 7.49996L3.84375 26.0416C3.42708 26.4583 2.93194 26.6666 2.35833 26.6666C1.78611 26.6666 1.29167 26.4583 0.874999 26.0416C0.458333 25.625 0.25 25.1298 0.25 24.5562C0.25 23.984 0.458333 23.4895 0.874999 23.0729L19.4167 4.58329H3.58333C2.99306 4.58329 2.49792 4.38399 2.09792 3.98538C1.69931 3.58538 1.5 3.09024 1.5 2.49996C1.5 1.90968 1.69931 1.41454 2.09792 1.01454C2.49792 0.615932 2.99306 0.416626 3.58333 0.416626H24.4167C25.0069 0.416626 25.5014 0.615932 25.9 1.01454C26.3 1.41454 26.5 1.90968 26.5 2.49996V23.3333C26.5 23.9236 26.3 24.418 25.9 24.8166C25.5014 25.2166 25.0069 25.4166 24.4167 25.4166C23.8264 25.4166 23.3319 25.2166 22.9333 24.8166C22.5333 24.418 22.3333 23.9236 22.3333 23.3333V7.49996Z" fill="#3535A2"/>
</svg>
