<svg width="33" height="33" viewBox="0 0 33 33" fill="none" xmlns="http://www.w3.org/2000/svg">
<path d="M0.839673 32.3332L3.00287 24.3844C1.57749 21.941 0.828627 19.162 0.833273 16.3332C0.833273 7.49645 7.99647 0.333252 16.8333 0.333252C25.6701 0.333252 32.8333 7.49645 32.8333 16.3332C32.8333 25.17 25.6701 32.3332 16.8333 32.3332C14.0057 32.3378 11.2279 31.5895 8.78527 30.1652L0.839673 32.3332ZM11.0589 8.82605C10.8522 8.83888 10.6503 8.8933 10.4653 8.98605C10.2917 9.08433 10.1333 9.20721 9.99487 9.35085C9.80287 9.53165 9.69407 9.68845 9.57727 9.84045C8.98593 10.61 8.66784 11.5547 8.67327 12.5252C8.67647 13.3092 8.88127 14.0724 9.20127 14.786C9.85567 16.2292 10.9325 17.7572 12.3549 19.1732C12.6973 19.514 13.0317 19.8564 13.3917 20.1748C15.1571 21.7292 17.2609 22.8501 19.5357 23.4484L20.4461 23.5876C20.7421 23.6036 21.0381 23.5812 21.3357 23.5668C21.8016 23.5428 22.2566 23.4166 22.6685 23.1972C22.878 23.0893 23.0825 22.9719 23.2813 22.8452C23.2813 22.8452 23.3501 22.8004 23.4813 22.7012C23.6973 22.5412 23.8301 22.4276 24.0093 22.2404C24.1421 22.1028 24.2573 21.9412 24.3453 21.7572C24.4701 21.4964 24.5949 20.9988 24.6461 20.5844C24.6845 20.2676 24.6733 20.0948 24.6685 19.9876C24.6621 19.8164 24.5197 19.6388 24.3645 19.5636L23.4333 19.146C23.4333 19.146 22.0413 18.5396 21.1917 18.1524C21.1021 18.1134 21.0061 18.0912 20.9085 18.0868C20.799 18.0756 20.6884 18.0879 20.5841 18.123C20.4797 18.158 20.3841 18.215 20.3037 18.29V18.2868C20.2957 18.2868 20.1885 18.378 19.0317 19.7796C18.9653 19.8689 18.8738 19.9363 18.7689 19.9733C18.6641 20.0104 18.5506 20.0154 18.4429 19.9876C18.3386 19.9598 18.2365 19.9245 18.1373 19.882C17.9389 19.7988 17.8701 19.7668 17.7341 19.7076L17.7261 19.7044C16.8107 19.3048 15.9632 18.765 15.2141 18.1044C15.0125 17.9284 14.8253 17.7364 14.6333 17.5508C14.0038 16.948 13.4552 16.2661 13.0013 15.522L12.9069 15.37C12.8391 15.2679 12.7842 15.1577 12.7437 15.042C12.6829 14.8068 12.8413 14.618 12.8413 14.618C12.8413 14.618 13.2301 14.1924 13.4109 13.962C13.5614 13.7706 13.7019 13.5714 13.8317 13.3652C14.0205 13.0612 14.0797 12.7492 13.9805 12.5076C13.5325 11.4132 13.0685 10.3236 12.5917 9.24205C12.4973 9.02765 12.2173 8.87405 11.9629 8.84365C11.8765 8.83405 11.7901 8.82445 11.7037 8.81805C11.4888 8.80737 11.2735 8.81111 11.0589 8.82605Z" fill="#34BD52"/>
</svg>
