<svg width="324" height="325" viewBox="0 0 324 325" fill="none" xmlns="http://www.w3.org/2000/svg">
<g filter="url(#filter0_d_279_1207)">
<path fill-rule="evenodd" clip-rule="evenodd" d="M70.1488 18.9468C44.0798 18.9468 22.9467 40.0799 22.9467 66.1489V227.745C22.9467 253.814 44.0797 274.947 70.1487 274.947H231.745C257.814 274.947 278.947 253.814 278.947 227.745V66.1489C278.947 40.0799 257.814 18.9468 231.745 18.9468H70.1488ZM76.8919 45.9194C61.9953 45.9194 49.9193 57.9954 49.9193 72.892V221.241C49.9193 236.138 61.9953 248.214 76.8919 248.214H225.241C240.138 248.214 252.214 236.138 252.214 221.241V72.892C252.214 57.9955 240.138 45.9194 225.241 45.9194H76.8919Z" fill="#3535A2"/>
</g>
<defs>
<filter id="filter0_d_279_1207" x="0.469467" y="0.965027" width="323.432" height="323.432" filterUnits="userSpaceOnUse" color-interpolation-filters="sRGB">
<feFlood flood-opacity="0" result="BackgroundImageFix"/>
<feColorMatrix in="SourceAlpha" type="matrix" values="0 0 0 0 0 0 0 0 0 0 0 0 0 0 0 0 0 0 127 0" result="hardAlpha"/>
<feOffset dx="11.2386" dy="15.734"/>
<feGaussianBlur stdDeviation="16.8579"/>
<feComposite in2="hardAlpha" operator="out"/>
<feColorMatrix type="matrix" values="0 0 0 0 0.741176 0 0 0 0 0.815686 0 0 0 0 0.984314 0 0 0 0.55 0"/>
<feBlend mode="normal" in2="BackgroundImageFix" result="effect1_dropShadow_279_1207"/>
<feBlend mode="normal" in="SourceGraphic" in2="effect1_dropShadow_279_1207" result="shape"/>
</filter>
</defs>
</svg>
